# Created by 3DAce v2.72


g
v 0.049617 -0.018558 0.010017
v 0.030329 -0.041544 0.010017
v 0.049617 -0.018558 -0.010017
v 0.030329 -0.041544 -0.010017
v 0.038950 -0.219662 0.010017
v 0.061936 -0.238950 0.010017
v 0.038950 -0.219662 -0.010017
v 0.061936 -0.238950 -0.010017
v 0.115434 -0.112955 0.010017
v 0.115434 -0.112955 -0.010017
v 0.116667 -0.127043 -0.010017
v 0.116667 -0.127043 0.010017
v 0.118544 -0.123622 -0.010017
v 0.118543 -0.123623 0.010017
v 0.118968 -0.119744 -0.010017
v 0.118968 -0.119744 0.010017
v 0.117876 -0.115998 -0.010017
v 0.117876 -0.115998 0.010017
v 0.142386 -0.096401 -0.010017
v 0.142386 -0.096401 0.010017
v 0.146084 -0.138666 0.010017
v 0.146084 -0.138666 -0.010017
v 0.150292 -0.132061 0.010017
v 0.150292 -0.132061 -0.010017
v 0.152647 -0.124592 0.010017
v 0.152647 -0.124592 -0.010017
v 0.152989 -0.116768 0.010017
v 0.152989 -0.116768 -0.010017
v 0.151294 -0.109122 0.010017
v 0.151294 -0.109122 -0.010017
v 0.147677 -0.102175 0.010017
v 0.147677 -0.102175 -0.010017
# 32 vertices

vt 0.000000 0.000000
vt 1.000000 0.000000
vt 1.000000 1.000000
vt 0.000000 1.000000
vt 0.000000 0.000000
vt 1.000000 0.000000
vt 1.000000 1.000000
vt 0.000000 1.000000
vt 0.076391 1.000000
vt 0.077938 0.979355
vt 0.000000 0.979355
vt 0.000000 1.000000
vt 0.077938 0.979355
vt 0.079485 0.958711
vt 0.000000 0.958711
vt 0.000000 0.979355
vt 0.079485 0.958711
vt 0.081032 0.938066
vt 0.000000 0.938066
vt 0.000000 0.958711
vt 0.081032 0.938066
vt 0.082579 0.917421
vt 0.000000 0.917421
vt 0.000000 0.938066
vt 1.000000 0.000000
vt 0.000000 0.000000
vt 0.000000 0.917421
vt 0.082579 0.917421
vt 0.076391 1.000000
vt 0.000000 1.000000
vt 0.000000 1.000000
vt 1.000000 1.000000
vt 0.813562 0.000000
vt 0.811545 0.166667
vt 0.811545 0.833333
vt 0.813562 1.000000
vt 0.811545 0.166667
vt 0.809528 0.333333
vt 0.809528 0.666667
vt 0.811545 0.833333
vt 0.809528 0.333333
vt 0.807511 0.500000
vt 0.807511 0.500000
vt 0.809528 0.666667
vt 0.807511 0.500000
vt 0.805493 0.666667
vt 0.805493 0.333333
vt 0.807511 0.500000
vt 0.805493 0.666667
vt 0.803476 0.833333
vt 0.803476 0.166667
vt 0.805493 0.333333
vt 0.803476 0.833333
vt 0.801459 1.000000
vt 0.801459 0.000000
vt 0.803476 0.166667
vt 0.000000 0.000000
vt 0.801459 0.000000
vt 0.801459 1.000000
vt 0.000000 1.000000
vt 0.000000 0.000000
vt 0.813562 0.000000
vt 0.813562 1.000000
vt 0.000000 1.000000
vt 0.079485 0.958711
vt 0.807511 0.500000
vt 0.805493 0.333333
vt 0.079485 0.958711
vt 0.079485 0.958711
vt 0.809528 0.666667
vt 0.807511 0.500000
vt 0.079485 0.958711
vt 0.079485 0.958711
vt 0.077938 0.979355
vt 0.811545 0.833333
vt 0.809528 0.666667
vt 0.805493 0.333333
vt 0.803476 0.166667
vt 0.081032 0.938066
vt 0.079485 0.958711
vt 0.082579 0.917421
vt 0.081032 0.938066
vt 0.803476 0.166667
vt 0.801459 0.000000
vt 0.077938 0.979355
vt 0.076391 1.000000
vt 0.813562 1.000000
vt 0.811545 0.833333
vt 0.813562 1.000000
vt 0.076391 1.000000
vt 1.000000 1.000000
vt 1.000000 0.000000
vt 0.082579 0.917421
vt 0.801459 0.000000
vt 1.000000 1.000000
vt 1.000000 0.000000
vt 0.807511 0.500000
vt 0.079485 0.958711
vt 0.805493 0.333333
vt 0.807511 0.500000
vt 0.809528 0.666667
vt 0.079485 0.958711
vt 0.807511 0.500000
vt 0.809528 0.666667
vt 0.811545 0.833333
vt 0.077938 0.979355
vt 0.079485 0.958711
vt 0.809528 0.666667
vt 0.081032 0.938066
vt 0.803476 0.166667
vt 0.805493 0.333333
vt 0.079485 0.958711
vt 0.803476 0.166667
vt 0.081032 0.938066
vt 0.082579 0.917421
vt 0.801459 0.000000
vt 0.813562 1.000000
vt 0.076391 1.000000
vt 0.077938 0.979355
vt 0.811545 0.833333
vt 1.000000 1.000000
vt 0.076391 1.000000
vt 0.813562 1.000000
vt 1.000000 0.000000
vt 1.000000 1.000000
vt 0.801459 0.000000
vt 0.082579 0.917421
vt 1.000000 0.000000
# 128 texture vertices

vn -0.766044 0.642788 0.000000
vn -0.766044 0.642788 0.000000
vn -0.766044 0.642788 0.000000
vn -0.766044 0.642788 0.000000
vn -0.642787 -0.766045 0.000000
vn -0.642787 -0.766045 0.000000
vn -0.642787 -0.766045 0.000000
vn -0.642787 -0.766045 0.000000
vn -0.825359 0.564608 -0.000000
vn -0.953716 0.300708 -0.000001
vn -0.953716 0.300708 -0.000001
vn -0.825359 0.564608 -0.000000
vn -0.953716 0.300708 -0.000001
vn -0.996195 -0.087154 -0.000002
vn -0.996195 -0.087154 -0.000002
vn -0.953716 0.300708 -0.000001
vn -0.996195 -0.087154 -0.000002
vn -0.887010 -0.461750 -0.000004
vn -0.887010 -0.461750 -0.000004
vn -0.996195 -0.087154 -0.000002
vn -0.887010 -0.461750 -0.000004
vn -0.714777 -0.699353 -0.000003
vn -0.714777 -0.699353 -0.000003
vn -0.887010 -0.461750 -0.000004
vn -0.642787 -0.766045 -0.000002
vn -0.642787 -0.766045 -0.000002
vn -0.714777 -0.699353 -0.000003
vn -0.714777 -0.699353 -0.000003
vn -0.825359 0.564608 -0.000000
vn -0.825359 0.564608 -0.000000
vn -0.766044 0.642789 0.000000
vn -0.766044 0.642789 0.000000
vn 0.806443 -0.591311 0.000000
vn 0.906308 -0.422619 0.000000
vn 0.906308 -0.422619 0.000000
vn 0.806443 -0.591311 0.000000
vn 0.906308 -0.422619 0.000000
vn 0.984808 -0.173649 0.000000
vn 0.984808 -0.173649 0.000000
vn 0.906308 -0.422619 0.000000
vn 0.984808 -0.173649 0.000000
vn 0.996195 0.087156 0.000000
vn 0.996195 0.087156 0.000000
vn 0.984808 -0.173649 0.000000
vn 0.996195 0.087156 0.000000
vn 0.939692 0.342021 0.000000
vn 0.939692 0.342021 0.000000
vn 0.996195 0.087156 0.000000
vn 0.939692 0.342021 0.000000
vn 0.819154 0.573574 0.000000
vn 0.819154 0.573574 0.000000
vn 0.939692 0.342021 0.000000
vn 0.819154 0.573574 0.000000
vn 0.691514 0.722363 0.000000
vn 0.691514 0.722363 0.000000
vn 0.819154 0.573574 0.000000
vn 0.642788 0.766044 0.000000
vn 0.691514 0.722363 0.000000
vn 0.691514 0.722363 0.000000
vn 0.642788 0.766044 0.000000
vn 0.766044 -0.642788 0.000000
vn 0.806443 -0.591311 0.000000
vn 0.806443 -0.591311 0.000000
vn 0.766044 -0.642788 0.000000
vn -0.000001 -0.000000 1.000000
vn -0.000001 -0.000000 1.000000
vn -0.000001 -0.000000 1.000000
vn -0.000001 -0.000000 1.000000
vn -0.000001 -0.000000 1.000000
vn -0.000001 0.000000 1.000000
vn -0.000001 -0.000000 1.000000
vn -0.000001 -0.000000 1.000000
vn -0.000001 -0.000000 1.000000
vn -0.000001 0.000001 1.000000
vn -0.000001 0.000001 1.000000
vn -0.000001 0.000000 1.000000
vn -0.000001 -0.000000 1.000000
vn -0.000001 -0.000001 1.000000
vn -0.000001 -0.000001 1.000000
vn -0.000001 -0.000000 1.000000
vn -0.000001 -0.000001 1.000000
vn -0.000001 -0.000001 1.000000
vn -0.000001 -0.000001 1.000000
vn -0.000001 -0.000001 1.000000
vn -0.000001 0.000001 1.000000
vn -0.000001 0.000001 1.000000
vn -0.000001 0.000001 1.000000
vn -0.000001 0.000001 1.000000
vn -0.000001 0.000001 1.000000
vn -0.000001 0.000001 1.000000
vn -0.000000 0.000001 1.000000
vn -0.000000 0.000001 1.000000
vn -0.000001 -0.000001 1.000000
vn -0.000001 -0.000001 1.000000
vn -0.000000 -0.000001 1.000000
vn -0.000000 -0.000001 1.000000
vn 0.000001 0.000000 -1.000000
vn 0.000001 0.000000 -1.000000
vn 0.000001 0.000000 -1.000000
vn 0.000001 0.000000 -1.000000
vn 0.000001 -0.000000 -1.000000
vn 0.000001 0.000000 -1.000000
vn 0.000001 0.000000 -1.000000
vn 0.000001 -0.000000 -1.000000
vn 0.000001 -0.000000 -1.000000
vn 0.000001 -0.000000 -1.000000
vn 0.000001 0.000000 -1.000000
vn 0.000001 -0.000000 -1.000000
vn 0.000000 0.000000 -1.000000
vn 0.000000 0.000000 -1.000000
vn 0.000001 0.000000 -1.000000
vn 0.000001 0.000000 -1.000000
vn 0.000000 0.000000 -1.000000
vn 0.000000 0.000000 -1.000000
vn 0.000000 0.000000 -1.000000
vn 0.000000 0.000000 -1.000000
vn 0.000000 -0.000000 -1.000000
vn 0.000000 -0.000000 -1.000000
vn 0.000001 -0.000000 -1.000000
vn 0.000001 -0.000000 -1.000000
vn 0.000000 -0.000000 -1.000000
vn 0.000000 -0.000000 -1.000000
vn 0.000000 -0.000000 -1.000000
vn 0.000000 -0.000000 -1.000000
vn 0.000000 0.000000 -1.000000
vn 0.000000 0.000000 -1.000000
vn 0.000000 0.000000 -1.000000
vn 0.000000 0.000000 -1.000000
# 128 vertex normals

g mat1
f 4/1/1 2/2/2 1/3/3 3/4/4
f 8/5/5 6/6/6 5/7/7 7/8/8
f 12/9/9 14/10/10 13/11/11 11/12/12
f 14/13/13 16/14/14 15/15/15 13/16/16
f 16/17/17 18/18/18 17/19/19 15/20/20
f 18/21/21 9/22/22 10/23/23 17/24/24
f 2/25/25 4/26/26 10/27/27 9/28/28
f 12/29/29 11/30/30 7/31/31 5/32/32
f 22/33/33 24/34/34 23/35/35 21/36/36
f 24/37/37 26/38/38 25/39/39 23/40/40
f 26/41/41 28/42/42 27/43/43 25/44/44
f 28/45/45 30/46/46 29/47/47 27/48/48
f 30/49/49 32/50/50 31/51/51 29/52/52
f 32/53/53 19/54/54 20/55/55 31/56/56
f 1/57/57 20/58/58 19/59/59 3/60/60
f 8/61/61 22/62/62 21/63/63 6/64/64
f 16/65/65 27/66/66 29/67/67
f 16/69/69 25/70/70 27/71/71
f 16/73/73 14/74/74 23/75/75 25/76/76
f 29/77/77 31/78/78 18/79/79 16/80/80
f 9/81/81 18/82/82 31/83/83 20/84/84
f 14/85/85 12/86/86 21/87/87 23/88/88
f 21/89/89 12/90/90 5/91/91 6/92/92
f 9/93/93 20/94/94 1/95/95 2/96/96
f 28/97/97 15/98/98 30/99/99
f 26/101/101 15/102/102 28/103/103
f 24/105/105 13/106/106 15/107/107 26/108/108
f 17/109/109 32/110/110 30/111/111 15/112/112
f 32/113/113 17/114/114 10/115/115 19/116/116
f 22/117/117 11/118/118 13/119/119 24/120/120
f 7/121/121 11/122/122 22/123/123 8/124/124
f 3/125/125 19/126/126 10/127/127 4/128/128
# 32 elements

