# Created by 3DAce v2.72


g
v 0.061181 -0.225774 0.010000
v 0.076502 -0.238630 0.010000
v 0.061181 -0.225774 -0.010000
v 0.076502 -0.238630 -0.010000
v 0.063905 -0.018862 0.010000
v 0.047814 -0.038038 0.010000
v 0.063905 -0.018862 -0.010000
v 0.047814 -0.038038 -0.010000
v 0.115961 -0.160490 -0.010000
v 0.115961 -0.160490 0.010000
v 0.109798 -0.090049 0.010000
v 0.109798 -0.090049 -0.010000
v 0.118616 -0.099672 0.010000
v 0.118616 -0.099672 -0.010000
v 0.124643 -0.111250 0.010000
v 0.124643 -0.111250 -0.010000
v 0.127468 -0.123993 0.010000
v 0.127468 -0.123993 -0.010000
v 0.126899 -0.137033 0.010000
v 0.126899 -0.137033 -0.010000
v 0.122974 -0.149482 0.010000
v 0.122974 -0.149482 -0.010000
v 0.131302 -0.173321 0.010000
v 0.131302 -0.173321 -0.010000
v 0.122058 -0.067659 -0.010000
v 0.122058 -0.067659 0.010000
v 0.132340 -0.078168 -0.010000
v 0.132340 -0.078168 0.010000
v 0.140375 -0.090481 -0.010000
v 0.140375 -0.090481 0.010000
v 0.145853 -0.104125 -0.010000
v 0.145853 -0.104125 0.010000
v 0.148564 -0.118576 -0.010000
v 0.148564 -0.118576 0.010000
v 0.148403 -0.133277 -0.010000
v 0.148403 -0.133277 0.010000
v 0.145378 -0.147665 -0.010000
v 0.145378 -0.147665 0.010000
v 0.139604 -0.161187 -0.010000
v 0.139604 -0.161187 0.010000
# 40 vertices

vt 1.000000 1.000000
vt 0.000000 1.000000
vt 0.000000 0.000000
vt 1.000000 0.000000
vt 0.000000 0.000000
vt 1.000000 0.000000
vt 1.000000 1.000000
vt 0.000000 1.000000
vt 0.000000 0.618070
vt 0.084553 0.681725
vt 0.402828 0.515058
vt 0.381930 0.618070
vt 0.084553 0.681725
vt 0.169106 0.745379
vt 0.423726 0.412047
vt 0.402828 0.515058
vt 0.169106 0.745379
vt 0.253659 0.809034
vt 0.444625 0.309036
vt 0.423726 0.412047
vt 0.253659 0.809034
vt 0.338213 0.872689
vt 0.465523 0.206024
vt 0.444625 0.309036
vt 0.338213 0.872689
vt 0.422766 0.936344
vt 0.486421 0.103013
vt 0.465523 0.206024
vt 0.422766 0.936344
vt 0.507319 0.999998
vt 0.507319 0.000001
vt 0.486421 0.103013
vt 0.507319 0.000001
vt 0.507319 0.999998
vt 0.000000 1.000000
vt 0.000000 0.000000
vt 1.000000 0.000000
vt 0.000000 0.000000
vt 0.000000 0.618070
vt 0.381930 0.618070
vt 0.496972 1.000000
vt 0.488380 1.000000
vt 0.053529 0.875000
vt 0.000000 1.000000
vt 0.488380 1.000000
vt 0.479788 0.999999
vt 0.107059 0.750000
vt 0.053529 0.875000
vt 0.479788 0.999999
vt 0.471196 0.999999
vt 0.160589 0.625001
vt 0.107059 0.750000
vt 0.471196 0.999999
vt 0.462604 0.999999
vt 0.214118 0.500001
vt 0.160589 0.625001
vt 0.462604 0.999999
vt 0.454012 0.999999
vt 0.267648 0.375001
vt 0.214118 0.500001
vt 0.454012 0.999999
vt 0.445420 0.999998
vt 0.321177 0.250001
vt 0.267648 0.375001
vt 0.445420 0.999998
vt 0.436828 0.999998
vt 0.374706 0.125002
vt 0.321177 0.250001
vt 0.436828 0.999998
vt 0.428236 0.999998
vt 0.428236 0.000002
vt 0.374706 0.125002
vt 0.428236 0.000002
vt 0.428236 0.999998
vt 0.000000 1.000000
vt 0.000000 0.000000
vt 0.496972 1.000000
vt 0.000000 1.000000
vt 0.000000 1.000000
vt 1.000000 1.000000
vt 1.000000 1.000000
vt 1.000000 0.000000
vt 0.381930 0.618070
vt 0.496972 1.000000
vt 0.496972 1.000000
vt 0.381930 0.618070
vt 0.402828 0.515058
vt 0.488380 1.000000
vt 0.428236 0.999998
vt 0.507319 0.000001
vt 0.000000 0.000000
vt 1.000000 0.000000
vt 0.436828 0.999998
vt 0.486421 0.103013
vt 0.507319 0.000001
vt 0.428236 0.999998
vt 0.436828 0.999998
vt 0.445420 0.999998
vt 0.465523 0.206024
vt 0.486421 0.103013
vt 0.471196 0.999999
vt 0.423726 0.412047
vt 0.444625 0.309036
vt 0.462604 0.999999
vt 0.465523 0.206024
vt 0.445420 0.999998
vt 0.454012 0.999999
vt 0.465523 0.206024
vt 0.462604 0.999999
vt 0.444625 0.309036
vt 0.465523 0.206024
vt 0.454012 0.999999
vt 0.488380 1.000000
vt 0.402828 0.515058
vt 0.423726 0.412047
vt 0.479788 0.999999
vt 0.479788 0.999999
vt 0.423726 0.412047
vt 0.471196 0.999999
vt 0.479788 0.999999
vt 0.107059 0.750000
vt 0.160589 0.625001
vt 0.169106 0.745379
vt 0.107059 0.750000
vt 0.267648 0.375001
vt 0.321177 0.250001
vt 0.338213 0.872689
vt 0.267648 0.375001
vt 0.422766 0.936344
vt 0.374706 0.125002
vt 0.428236 0.000002
vt 0.507319 0.999998
vt 0.338213 0.872689
vt 0.321177 0.250001
vt 0.374706 0.125002
vt 0.422766 0.936344
vt 0.253659 0.809034
vt 0.214118 0.500001
vt 0.267648 0.375001
vt 0.338213 0.872689
vt 0.169106 0.745379
vt 0.160589 0.625001
vt 0.214118 0.500001
vt 0.253659 0.809034
vt 0.084553 0.681725
vt 0.053529 0.875000
vt 0.107059 0.750000
vt 0.169106 0.745379
vt 0.000000 0.618070
vt 0.000000 1.000000
vt 0.053529 0.875000
vt 0.084553 0.681725
vt 0.000000 0.000000
vt 0.000000 1.000000
vt 0.000000 1.000000
vt 0.000000 0.618070
vt 0.507319 0.999998
vt 0.428236 0.000002
vt 0.000000 0.000000
vt 0.000000 1.000000
# 160 texture vertices

vn -0.642788 -0.766044 0.000000
vn -0.642788 -0.766044 0.000000
vn -0.642788 -0.766044 0.000000
vn -0.642788 -0.766044 0.000000
vn -0.766045 0.642787 0.000000
vn -0.766045 0.642787 0.000000
vn -0.766045 0.642787 0.000000
vn -0.766045 0.642787 0.000000
vn -0.691512 -0.722365 -0.000001
vn -0.819152 -0.573577 -0.000001
vn -0.819152 -0.573577 -0.000001
vn -0.691512 -0.722365 -0.000001
vn -0.819152 -0.573577 -0.000001
vn -0.939692 -0.342021 -0.000002
vn -0.939692 -0.342021 -0.000002
vn -0.819152 -0.573577 -0.000001
vn -0.939692 -0.342021 -0.000002
vn -0.996195 -0.087156 -0.000002
vn -0.996195 -0.087156 -0.000002
vn -0.939692 -0.342021 -0.000002
vn -0.996195 -0.087156 -0.000002
vn -0.984808 0.173648 -0.000003
vn -0.984808 0.173648 -0.000003
vn -0.996195 -0.087156 -0.000002
vn -0.984808 0.173648 -0.000003
vn -0.906308 0.422619 -0.000003
vn -0.906308 0.422619 -0.000003
vn -0.984808 0.173648 -0.000003
vn -0.906308 0.422619 -0.000003
vn -0.806445 0.591310 -0.000002
vn -0.806445 0.591310 -0.000002
vn -0.906308 0.422619 -0.000003
vn -0.806445 0.591310 -0.000002
vn -0.806445 0.591310 -0.000002
vn -0.766044 0.642788 -0.000001
vn -0.766044 0.642788 -0.000001
vn -0.642787 -0.766045 -0.000000
vn -0.642787 -0.766045 -0.000000
vn -0.691512 -0.722365 -0.000001
vn -0.691512 -0.722365 -0.000001
vn 0.679601 0.733581 0.000000
vn 0.779885 0.625923 0.000000
vn 0.779885 0.625923 0.000000
vn 0.679601 0.733581 0.000000
vn 0.779885 0.625923 0.000000
vn 0.887011 0.461749 0.000000
vn 0.887011 0.461749 0.000000
vn 0.779885 0.625923 0.000000
vn 0.887011 0.461749 0.000000
vn 0.960050 0.279829 0.000001
vn 0.960050 0.279829 0.000001
vn 0.887011 0.461749 0.000000
vn 0.960050 0.279829 0.000001
vn 0.996195 0.087155 0.000001
vn 0.996195 0.087155 0.000001
vn 0.960050 0.279829 0.000001
vn 0.996195 0.087155 0.000001
vn 0.994056 -0.108867 0.000001
vn 0.994056 -0.108867 0.000001
vn 0.996195 0.087155 0.000001
vn 0.994056 -0.108867 0.000001
vn 0.953717 -0.300706 0.000001
vn 0.953717 -0.300706 0.000001
vn 0.994056 -0.108867 0.000001
vn 0.953717 -0.300706 0.000001
vn 0.876727 -0.480989 0.000001
vn 0.876727 -0.480989 0.000001
vn 0.953717 -0.300706 0.000001
vn 0.876727 -0.480989 0.000001
vn 0.796662 -0.604425 0.000001
vn 0.796662 -0.604425 0.000001
vn 0.876727 -0.480989 0.000001
vn 0.796662 -0.604425 0.000001
vn 0.796662 -0.604425 0.000001
vn 0.766044 -0.642788 0.000000
vn 0.766044 -0.642788 0.000000
vn 0.679601 0.733581 0.000000
vn 0.679601 0.733581 0.000000
vn 0.642788 0.766044 0.000000
vn 0.642788 0.766044 0.000000
vn -0.000001 -0.000001 1.000000
vn -0.000001 -0.000001 1.000000
vn -0.000001 -0.000001 1.000000
vn -0.000001 -0.000001 1.000000
vn -0.000001 -0.000001 1.000000
vn -0.000001 -0.000001 1.000000
vn -0.000002 -0.000002 1.000000
vn -0.000002 -0.000002 1.000000
vn -0.000002 0.000001 1.000000
vn -0.000002 0.000001 1.000000
vn -0.000001 0.000001 1.000000
vn -0.000001 0.000001 1.000000
vn -0.000003 0.000001 1.000000
vn -0.000003 0.000001 1.000000
vn -0.000002 0.000001 1.000000
vn -0.000002 0.000001 1.000000
vn -0.000003 0.000001 1.000000
vn -0.000004 0.000001 1.000000
vn -0.000004 0.000001 1.000000
vn -0.000003 0.000001 1.000000
vn -0.000003 -0.000001 1.000000
vn -0.000003 -0.000001 1.000000
vn -0.000004 -0.000000 1.000000
vn -0.000004 -0.000000 1.000000
vn -0.000004 0.000001 1.000000
vn -0.000004 0.000001 1.000000
vn -0.000004 0.000000 1.000000
vn -0.000004 0.000001 1.000000
vn -0.000004 -0.000000 1.000000
vn -0.000004 -0.000000 1.000000
vn -0.000004 0.000001 1.000000
vn -0.000004 0.000000 1.000000
vn -0.000002 -0.000002 1.000000
vn -0.000002 -0.000002 1.000000
vn -0.000003 -0.000001 1.000000
vn -0.000003 -0.000001 1.000000
vn -0.000003 -0.000001 1.000000
vn -0.000003 -0.000001 1.000000
vn -0.000003 -0.000001 1.000000
vn -0.000003 -0.000001 1.000000
vn -0.000001 -0.000000 -1.000000
vn -0.000001 -0.000000 -1.000000
vn -0.000001 -0.000000 -1.000000
vn -0.000001 -0.000000 -1.000000
vn -0.000002 0.000000 -1.000000
vn -0.000001 0.000000 -1.000000
vn -0.000001 0.000000 -1.000000
vn -0.000002 0.000000 -1.000000
vn -0.000001 0.000000 -1.000000
vn -0.000001 0.000000 -1.000000
vn -0.000001 0.000000 -1.000000
vn -0.000001 0.000000 -1.000000
vn -0.000001 0.000000 -1.000000
vn -0.000001 0.000000 -1.000000
vn -0.000001 0.000000 -1.000000
vn -0.000001 0.000000 -1.000000
vn -0.000001 -0.000000 -1.000000
vn -0.000001 -0.000000 -1.000000
vn -0.000002 0.000000 -1.000000
vn -0.000001 0.000000 -1.000000
vn -0.000001 -0.000000 -1.000000
vn -0.000001 -0.000000 -1.000000
vn -0.000001 -0.000000 -1.000000
vn -0.000001 -0.000000 -1.000000
vn -0.000001 -0.000000 -1.000000
vn -0.000001 -0.000000 -1.000000
vn -0.000001 -0.000000 -1.000000
vn -0.000001 -0.000000 -1.000000
vn -0.000001 -0.000000 -1.000000
vn -0.000001 -0.000000 -1.000000
vn -0.000001 -0.000000 -1.000000
vn -0.000001 -0.000000 -1.000000
vn -0.000001 -0.000000 -1.000000
vn -0.000001 -0.000000 -1.000000
vn -0.000001 -0.000000 -1.000000
vn -0.000001 -0.000000 -1.000000
vn -0.000001 0.000000 -1.000000
vn -0.000001 0.000000 -1.000000
vn -0.000001 0.000000 -1.000000
vn -0.000001 0.000000 -1.000000
# 160 vertex normals

g mat1
f 1/1/1 3/2/2 4/3/3 2/4/4
f 8/5/5 6/6/6 5/7/7 7/8/8
f 12/9/9 14/10/10 13/11/11 11/12/12
f 14/13/13 16/14/14 15/15/15 13/16/16
f 16/17/17 18/18/18 17/19/19 15/20/20
f 18/21/21 20/22/22 19/23/23 17/24/24
f 20/25/25 22/26/26 21/27/27 19/28/28
f 22/29/29 9/30/30 10/31/31 21/32/32
f 10/33/33 9/34/34 3/35/35 1/36/36
f 6/37/37 8/38/38 12/39/39 11/40/40
f 26/41/41 28/42/42 27/43/43 25/44/44
f 28/45/45 30/46/46 29/47/47 27/48/48
f 30/49/49 32/50/50 31/51/51 29/52/52
f 32/53/53 34/54/54 33/55/55 31/56/56
f 34/57/57 36/58/58 35/59/59 33/60/60
f 36/61/61 38/62/62 37/63/63 35/64/64
f 38/65/65 40/66/66 39/67/67 37/68/68
f 40/69/69 23/70/70 24/71/71 39/72/72
f 24/73/73 23/74/74 2/75/75 4/76/76
f 26/77/77 25/78/78 7/79/79 5/80/80
f 5/81/81 6/82/82 11/83/83 26/84/84
f 26/85/85 11/86/86 13/87/87 28/88/88
f 23/89/89 10/90/90 1/91/91 2/92/92
f 40/93/93 21/94/94 10/95/95 23/96/96
f 40/97/97 38/98/98 19/99/99 21/100/100
f 32/101/101 15/102/102 17/103/103 34/104/104
f 19/105/105 38/106/106 36/107/107
f 34/109/109 17/110/110 19/111/111 36/112/112
f 28/113/113 13/114/114 15/115/115 30/116/116
f 30/117/117 15/118/118 32/119/119
f 29/121/121 31/122/122 16/123/123
f 35/125/125 37/126/126 20/127/127
f 22/129/129 39/130/130 24/131/131 9/132/132
f 20/133/133 37/134/134 39/135/135 22/136/136
f 18/137/137 33/138/138 35/139/139 20/140/140
f 16/141/141 31/142/142 33/143/143 18/144/144
f 14/145/145 27/146/146 29/147/147 16/148/148
f 12/149/149 25/150/150 27/151/151 14/152/152
f 8/153/153 7/154/154 25/155/155 12/156/156
f 9/157/157 24/158/158 4/159/159 3/160/160
# 40 elements

