# Created by 3DAce v2.72


g
v -1.850000 0.100000 0.100000
v -1.850000 0.000000 0.100000
v -0.960000 0.100000 0.100000
v -0.960000 0.000000 0.100000
v -0.960000 0.100000 0.070000
v -0.960000 0.000000 0.070000
v -1.850000 0.100000 0.070000
v -1.850000 0.000000 0.070000
v 0.960000 0.100000 0.100000
v 0.960000 0.000000 0.100000
v 1.850000 0.100000 0.100000
v 1.850000 0.000000 0.100000
v 1.850000 0.100000 0.070000
v 1.850000 0.000000 0.070000
v 0.960000 0.100000 0.070000
v 0.960000 0.000000 0.070000
v 0.890000 2.150000 0.100000
v 0.890000 0.000000 0.100000
v 0.960000 2.150000 0.100000
v 0.960000 0.000000 0.100000
v 0.960000 2.150000 0.070000
v 0.960000 0.000000 0.070000
v 0.890000 2.150000 0.070000
v 0.890000 0.000000 0.070000
v -0.890000 2.150000 0.100000
v -0.890000 0.000000 0.100000
v -0.960000 2.150000 0.100000
v -0.960000 0.000000 0.100000
v -0.960000 2.150000 0.070000
v -0.960000 0.000000 0.070000
v -0.890000 2.150000 0.070000
v -0.890000 0.000000 0.070000
v -0.890000 0.100000 0.060000
v -0.890000 0.000000 0.060000
v -0.070000 0.100000 0.060000
v -0.070000 0.000000 0.060000
v -0.070000 0.100000 0.030000
v -0.070000 0.000000 0.030000
v -0.890000 0.100000 0.030000
v -0.890000 0.000000 0.030000
v -0.890000 2.150000 0.060000
v -0.890000 2.080000 0.060000
v -0.070000 2.150000 0.060000
v -0.070000 2.080000 0.060000
v -0.070000 2.150000 0.030000
v -0.070000 2.080000 0.030000
v -0.890000 2.150000 0.030000
v -0.890000 2.080000 0.030000
v 0.000000 2.150000 0.060000
v 0.000000 0.000000 0.060000
v -0.070000 2.150000 0.060000
v -0.070000 0.000000 0.060000
v -0.070000 2.150000 0.030000
v -0.070000 0.000000 0.030000
v 0.000000 2.150000 0.030000
v 0.000000 0.000000 0.030000
v -0.890000 2.150000 0.060000
v -0.890000 0.000000 0.060000
v -0.960000 2.150000 0.060000
v -0.960000 0.000000 0.060000
v -0.960000 2.150000 0.030000
v -0.960000 0.000000 0.030000
v -0.890000 2.150000 0.030000
v -0.890000 0.000000 0.030000
v 0.070000 0.100000 0.060000
v 0.070000 0.000000 0.060000
v 0.890000 0.100000 0.060000
v 0.890000 0.000000 0.060000
v 0.890000 0.100000 0.030000
v 0.890000 0.000000 0.030000
v 0.070000 0.100000 0.030000
v 0.070000 0.000000 0.030000
v 0.070000 2.150000 0.060000
v 0.070000 2.080000 0.060000
v 0.890000 2.150000 0.060000
v 0.890000 2.080000 0.060000
v 0.890000 2.150000 0.030000
v 0.890000 2.080000 0.030000
v 0.070000 2.150000 0.030000
v 0.070000 2.080000 0.030000
v 0.960000 2.150000 0.060000
v 0.960000 0.000000 0.060000
v 0.890000 2.150000 0.060000
v 0.890000 0.000000 0.060000
v 0.890000 2.150000 0.030000
v 0.890000 0.000000 0.030000
v 0.960000 2.150000 0.030000
v 0.960000 0.000000 0.030000
v 0.070000 2.150000 0.060000
v 0.070000 0.000000 0.060000
v 0.000000 2.150000 0.060000
v 0.000000 0.000000 0.060000
v 0.000000 2.150000 0.030000
v 0.000000 0.000000 0.030000
v 0.070000 2.150000 0.030000
v 0.070000 0.000000 0.030000
v 0.890000 2.850000 0.100000
v 0.890000 2.400000 0.100000
v 0.960000 2.850000 0.100000
v 0.960000 2.400000 0.100000
v 0.960000 2.850000 0.070000
v 0.960000 2.400000 0.070000
v 0.890000 2.850000 0.070000
v 0.890000 2.400000 0.070000
v -0.890000 2.850000 0.100000
v -0.890000 2.400000 0.100000
v -0.960000 2.850000 0.100000
v -0.960000 2.400000 0.100000
v -0.960000 2.850000 0.070000
v -0.960000 2.400000 0.070000
v -0.890000 2.850000 0.070000
v -0.890000 2.400000 0.070000
# 112 vertices

vt 0.044294 0.061903
vt 0.263705 0.061903
vt 0.263705 0.086556
vt 0.044294 0.086556
vt 0.263705 0.061903
vt 0.263705 0.061903
vt 0.263705 0.086556
vt 0.263705 0.086556
vt 0.263705 0.061903
vt 0.044294 0.061903
vt 0.044294 0.086556
vt 0.263705 0.086556
vt 0.044294 0.061903
vt 0.044294 0.061903
vt 0.044294 0.086556
vt 0.044294 0.086556
vt 0.044294 0.086556
vt 0.263705 0.086556
vt 0.263705 0.086556
vt 0.044294 0.086556
vt 0.044294 0.061903
vt 0.263705 0.061903
vt 0.263705 0.061903
vt 0.044294 0.061903
vt 0.737039 0.061903
vt 0.956449 0.061903
vt 0.956449 0.086556
vt 0.737039 0.086556
vt 0.956449 0.061903
vt 0.956449 0.061903
vt 0.956449 0.086556
vt 0.956449 0.086556
vt 0.956449 0.061903
vt 0.737039 0.061903
vt 0.737039 0.086556
vt 0.956449 0.086556
vt 0.737039 0.061903
vt 0.737039 0.061903
vt 0.737039 0.086556
vt 0.737039 0.086556
vt 0.737039 0.086556
vt 0.956449 0.086556
vt 0.956449 0.086556
vt 0.737039 0.086556
vt 0.737039 0.061903
vt 0.956449 0.061903
vt 0.956449 0.061903
vt 0.737039 0.061903
vt 0.719782 0.061903
vt 0.737039 0.061903
vt 0.737039 0.591939
vt 0.719782 0.591939
vt 0.737039 0.061903
vt 0.737039 0.061903
vt 0.737039 0.591939
vt 0.737039 0.591939
vt 0.737039 0.061903
vt 0.719782 0.061903
vt 0.719782 0.591939
vt 0.737039 0.591939
vt 0.719782 0.061903
vt 0.719782 0.061903
vt 0.719782 0.591939
vt 0.719782 0.591939
vt 0.719782 0.591939
vt 0.737039 0.591939
vt 0.737039 0.591939
vt 0.719782 0.591939
vt 0.719782 0.061903
vt 0.737039 0.061903
vt 0.737039 0.061903
vt 0.719782 0.061903
vt 0.263705 0.591939
vt 0.263705 0.061903
vt 0.280962 0.061903
vt 0.280962 0.591939
vt 0.263705 0.591939
vt 0.263705 0.061903
vt 0.263705 0.061903
vt 0.263705 0.591939
vt 0.280962 0.591939
vt 0.280962 0.061903
vt 0.263705 0.061903
vt 0.263705 0.591939
vt 0.280962 0.591939
vt 0.280962 0.061903
vt 0.280962 0.061903
vt 0.280962 0.591939
vt 0.263705 0.591939
vt 0.263705 0.591939
vt 0.280962 0.591939
vt 0.280962 0.591939
vt 0.263705 0.061903
vt 0.263705 0.061903
vt 0.280962 0.061903
vt 0.280962 0.061903
vt 0.280962 0.061903
vt 0.483115 0.061903
vt 0.483115 0.086556
vt 0.280962 0.086556
vt 0.483115 0.061903
vt 0.483115 0.061903
vt 0.483115 0.086556
vt 0.483115 0.086556
vt 0.483115 0.061903
vt 0.280962 0.061903
vt 0.280962 0.086556
vt 0.483115 0.086556
vt 0.280962 0.061903
vt 0.280962 0.061903
vt 0.280962 0.086556
vt 0.280962 0.086556
vt 0.280962 0.086556
vt 0.483115 0.086556
vt 0.483115 0.086556
vt 0.280962 0.086556
vt 0.280962 0.061903
vt 0.483115 0.061903
vt 0.483115 0.061903
vt 0.280962 0.061903
vt 0.280962 0.574682
vt 0.483115 0.574682
vt 0.483115 0.591939
vt 0.280962 0.591939
vt 0.483115 0.574682
vt 0.483115 0.574682
vt 0.483115 0.591939
vt 0.483115 0.591939
vt 0.483115 0.574682
vt 0.280962 0.574682
vt 0.280962 0.591939
vt 0.483115 0.591939
vt 0.280962 0.574682
vt 0.280962 0.574682
vt 0.280962 0.591939
vt 0.280962 0.591939
vt 0.280962 0.591939
vt 0.483115 0.591939
vt 0.483115 0.591939
vt 0.280962 0.591939
vt 0.280962 0.574682
vt 0.483115 0.574682
vt 0.483115 0.574682
vt 0.280962 0.574682
vt 0.483115 0.591939
vt 0.483115 0.061903
vt 0.500372 0.061903
vt 0.500372 0.591939
vt 0.483115 0.591939
vt 0.483115 0.061903
vt 0.483115 0.061903
vt 0.483115 0.591939
vt 0.500372 0.591939
vt 0.500372 0.061903
vt 0.483115 0.061903
vt 0.483115 0.591939
vt 0.500372 0.591939
vt 0.500372 0.061903
vt 0.500372 0.061903
vt 0.500372 0.591939
vt 0.483115 0.591939
vt 0.483115 0.591939
vt 0.500372 0.591939
vt 0.500372 0.591939
vt 0.483115 0.061903
vt 0.483115 0.061903
vt 0.500372 0.061903
vt 0.500372 0.061903
vt 0.263705 0.591939
vt 0.263705 0.061903
vt 0.280962 0.061903
vt 0.280962 0.591939
vt 0.263705 0.591939
vt 0.263705 0.061903
vt 0.263705 0.061903
vt 0.263705 0.591939
vt 0.280962 0.591939
vt 0.280962 0.061903
vt 0.263705 0.061903
vt 0.263705 0.591939
vt 0.280962 0.591939
vt 0.280962 0.061903
vt 0.280962 0.061903
vt 0.280962 0.591939
vt 0.263705 0.591939
vt 0.263705 0.591939
vt 0.280962 0.591939
vt 0.280962 0.591939
vt 0.263705 0.061903
vt 0.263705 0.061903
vt 0.280962 0.061903
vt 0.280962 0.061903
vt 0.517629 0.061903
vt 0.719782 0.061903
vt 0.719782 0.086556
vt 0.517629 0.086556
vt 0.719782 0.061903
vt 0.719782 0.061903
vt 0.719782 0.086556
vt 0.719782 0.086556
vt 0.719782 0.061903
vt 0.517629 0.061903
vt 0.517629 0.086556
vt 0.719782 0.086556
vt 0.517629 0.061903
vt 0.517629 0.061903
vt 0.517629 0.086556
vt 0.517629 0.086556
vt 0.517629 0.086556
vt 0.719782 0.086556
vt 0.719782 0.086556
vt 0.517629 0.086556
vt 0.517629 0.061903
vt 0.719782 0.061903
vt 0.719782 0.061903
vt 0.517629 0.061903
vt 0.517629 0.574682
vt 0.719782 0.574682
vt 0.719782 0.591939
vt 0.517629 0.591939
vt 0.719782 0.574682
vt 0.719782 0.574682
vt 0.719782 0.591939
vt 0.719782 0.591939
vt 0.719782 0.574682
vt 0.517629 0.574682
vt 0.517629 0.591939
vt 0.719782 0.591939
vt 0.517629 0.574682
vt 0.517629 0.574682
vt 0.517629 0.591939
vt 0.517629 0.591939
vt 0.517629 0.591939
vt 0.719782 0.591939
vt 0.719782 0.591939
vt 0.517629 0.591939
vt 0.517629 0.574682
vt 0.719782 0.574682
vt 0.719782 0.574682
vt 0.517629 0.574682
vt 0.719782 0.591939
vt 0.719782 0.061903
vt 0.737039 0.061903
vt 0.737039 0.591939
vt 0.719782 0.591939
vt 0.719782 0.061903
vt 0.719782 0.061903
vt 0.719782 0.591939
vt 0.737039 0.591939
vt 0.737039 0.061903
vt 0.719782 0.061903
vt 0.719782 0.591939
vt 0.737039 0.591939
vt 0.737039 0.061903
vt 0.737039 0.061903
vt 0.737039 0.591939
vt 0.719782 0.591939
vt 0.719782 0.591939
vt 0.737039 0.591939
vt 0.737039 0.591939
vt 0.719782 0.061903
vt 0.719782 0.061903
vt 0.737039 0.061903
vt 0.737039 0.061903
vt 0.500372 0.591939
vt 0.500372 0.061903
vt 0.517629 0.061903
vt 0.517629 0.591939
vt 0.500372 0.591939
vt 0.500372 0.061903
vt 0.500372 0.061903
vt 0.500372 0.591939
vt 0.517629 0.591939
vt 0.517629 0.061903
vt 0.500372 0.061903
vt 0.500372 0.591939
vt 0.517629 0.591939
vt 0.517629 0.061903
vt 0.517629 0.061903
vt 0.517629 0.591939
vt 0.500372 0.591939
vt 0.500372 0.591939
vt 0.517629 0.591939
vt 0.517629 0.591939
vt 0.500372 0.061903
vt 0.500372 0.061903
vt 0.517629 0.061903
vt 0.517629 0.061903
vt 0.719782 0.653571
vt 0.737039 0.653571
vt 0.737039 0.764508
vt 0.719782 0.764508
vt 0.737039 0.653571
vt 0.737039 0.653571
vt 0.737039 0.764508
vt 0.737039 0.764508
vt 0.737039 0.653571
vt 0.719782 0.653571
vt 0.719782 0.764508
vt 0.737039 0.764508
vt 0.719782 0.653571
vt 0.719782 0.653571
vt 0.719782 0.764508
vt 0.719782 0.764508
vt 0.719782 0.764508
vt 0.737039 0.764508
vt 0.737039 0.764508
vt 0.719782 0.764508
vt 0.719782 0.653571
vt 0.737039 0.653571
vt 0.737039 0.653571
vt 0.719782 0.653571
vt 0.263705 0.764508
vt 0.263705 0.653571
vt 0.280962 0.653571
vt 0.280962 0.764508
vt 0.263705 0.764508
vt 0.263705 0.653571
vt 0.263705 0.653571
vt 0.263705 0.764508
vt 0.280962 0.764508
vt 0.280962 0.653571
vt 0.263705 0.653571
vt 0.263705 0.764508
vt 0.280962 0.764508
vt 0.280962 0.653571
vt 0.280962 0.653571
vt 0.280962 0.764508
vt 0.263705 0.764508
vt 0.263705 0.764508
vt 0.280962 0.764508
vt 0.280962 0.764508
vt 0.263705 0.653571
vt 0.263705 0.653571
vt 0.280962 0.653571
vt 0.280962 0.653571
# 336 texture vertices

vn -0.000000 0.000000 1.000000
vn -0.000000 0.000000 1.000000
vn -0.000000 0.000000 1.000000
vn -0.000000 0.000000 1.000000
vn 1.000000 0.000000 0.000000
vn 1.000000 0.000000 0.000000
vn 1.000000 0.000000 0.000000
vn 1.000000 0.000000 0.000000
vn -0.000000 0.000000 -1.000000
vn -0.000000 0.000000 -1.000000
vn -0.000000 0.000000 -1.000000
vn -0.000000 0.000000 -1.000000
vn -1.000000 0.000000 0.000000
vn -1.000000 0.000000 0.000000
vn -1.000000 0.000000 0.000000
vn -1.000000 0.000000 0.000000
vn 0.000000 1.000000 0.000000
vn 0.000000 1.000000 0.000000
vn 0.000000 1.000000 0.000000
vn 0.000000 1.000000 0.000000
vn 0.000000 -1.000000 0.000000
vn 0.000000 -1.000000 0.000000
vn 0.000000 -1.000000 0.000000
vn 0.000000 -1.000000 0.000000
vn -0.000000 0.000000 1.000000
vn -0.000000 0.000000 1.000000
vn -0.000000 0.000000 1.000000
vn -0.000000 0.000000 1.000000
vn 1.000000 0.000000 0.000000
vn 1.000000 0.000000 0.000000
vn 1.000000 0.000000 0.000000
vn 1.000000 0.000000 0.000000
vn -0.000000 0.000000 -1.000000
vn -0.000000 0.000000 -1.000000
vn -0.000000 0.000000 -1.000000
vn -0.000000 0.000000 -1.000000
vn -1.000000 0.000000 0.000000
vn -1.000000 0.000000 0.000000
vn -1.000000 0.000000 0.000000
vn -1.000000 0.000000 0.000000
vn 0.000000 1.000000 0.000000
vn 0.000000 1.000000 0.000000
vn 0.000000 1.000000 0.000000
vn 0.000000 1.000000 0.000000
vn 0.000000 -1.000000 0.000000
vn 0.000000 -1.000000 0.000000
vn 0.000000 -1.000000 0.000000
vn 0.000000 -1.000000 0.000000
vn -0.000000 0.000000 1.000000
vn -0.000000 0.000000 1.000000
vn -0.000000 0.000000 1.000000
vn -0.000000 0.000000 1.000000
vn 1.000000 0.000000 0.000000
vn 1.000000 0.000000 0.000000
vn 1.000000 0.000000 0.000000
vn 1.000000 0.000000 0.000000
vn -0.000000 0.000000 -1.000000
vn -0.000000 0.000000 -1.000000
vn -0.000000 0.000000 -1.000000
vn -0.000000 0.000000 -1.000000
vn -1.000000 0.000000 0.000000
vn -1.000000 0.000000 0.000000
vn -1.000000 0.000000 0.000000
vn -1.000000 0.000000 0.000000
vn 0.000000 1.000000 0.000000
vn 0.000000 1.000000 0.000000
vn 0.000000 1.000000 0.000000
vn 0.000000 1.000000 0.000000
vn 0.000000 -1.000000 0.000000
vn 0.000000 -1.000000 0.000000
vn 0.000000 -1.000000 0.000000
vn 0.000000 -1.000000 0.000000
vn 0.000000 0.000000 1.000000
vn 0.000000 0.000000 1.000000
vn 0.000000 0.000000 1.000000
vn 0.000000 0.000000 1.000000
vn -1.000000 -0.000000 0.000000
vn -1.000000 -0.000000 0.000000
vn -1.000000 -0.000000 0.000000
vn -1.000000 -0.000000 0.000000
vn 0.000000 0.000000 -1.000000
vn 0.000000 0.000000 -1.000000
vn 0.000000 0.000000 -1.000000
vn 0.000000 0.000000 -1.000000
vn 1.000000 0.000000 0.000000
vn 1.000000 0.000000 0.000000
vn 1.000000 0.000000 0.000000
vn 1.000000 0.000000 0.000000
vn 0.000000 1.000000 -0.000000
vn 0.000000 1.000000 -0.000000
vn 0.000000 1.000000 -0.000000
vn 0.000000 1.000000 -0.000000
vn 0.000000 -1.000000 -0.000000
vn 0.000000 -1.000000 -0.000000
vn 0.000000 -1.000000 -0.000000
vn 0.000000 -1.000000 -0.000000
vn -0.000000 0.000000 1.000000
vn -0.000000 0.000000 1.000000
vn -0.000000 0.000000 1.000000
vn -0.000000 0.000000 1.000000
vn 1.000000 0.000000 0.000000
vn 1.000000 0.000000 0.000000
vn 1.000000 0.000000 0.000000
vn 1.000000 0.000000 0.000000
vn -0.000000 0.000000 -1.000000
vn -0.000000 0.000000 -1.000000
vn -0.000000 0.000000 -1.000000
vn -0.000000 0.000000 -1.000000
vn -1.000000 0.000000 0.000000
vn -1.000000 0.000000 0.000000
vn -1.000000 0.000000 0.000000
vn -1.000000 0.000000 0.000000
vn 0.000000 1.000000 0.000000
vn 0.000000 1.000000 0.000000
vn 0.000000 1.000000 0.000000
vn 0.000000 1.000000 0.000000
vn 0.000000 -1.000000 0.000000
vn 0.000000 -1.000000 0.000000
vn 0.000000 -1.000000 0.000000
vn 0.000000 -1.000000 0.000000
vn -0.000000 0.000000 1.000000
vn -0.000000 0.000000 1.000000
vn -0.000000 0.000000 1.000000
vn -0.000000 0.000000 1.000000
vn 1.000000 0.000000 0.000000
vn 1.000000 0.000000 0.000000
vn 1.000000 0.000000 0.000000
vn 1.000000 0.000000 0.000000
vn -0.000000 0.000000 -1.000000
vn -0.000000 0.000000 -1.000000
vn -0.000000 0.000000 -1.000000
vn -0.000000 0.000000 -1.000000
vn -1.000000 0.000000 0.000000
vn -1.000000 0.000000 0.000000
vn -1.000000 0.000000 0.000000
vn -1.000000 0.000000 0.000000
vn 0.000000 1.000000 0.000000
vn 0.000000 1.000000 0.000000
vn 0.000000 1.000000 0.000000
vn 0.000000 1.000000 0.000000
vn 0.000000 -1.000000 0.000000
vn 0.000000 -1.000000 0.000000
vn 0.000000 -1.000000 0.000000
vn 0.000000 -1.000000 0.000000
vn 0.000000 0.000000 1.000000
vn 0.000000 0.000000 1.000000
vn 0.000000 0.000000 1.000000
vn 0.000000 0.000000 1.000000
vn -1.000000 -0.000000 0.000000
vn -1.000000 -0.000000 0.000000
vn -1.000000 -0.000000 0.000000
vn -1.000000 -0.000000 0.000000
vn 0.000000 0.000000 -1.000000
vn 0.000000 0.000000 -1.000000
vn 0.000000 0.000000 -1.000000
vn 0.000000 0.000000 -1.000000
vn 1.000000 0.000000 0.000000
vn 1.000000 0.000000 0.000000
vn 1.000000 0.000000 0.000000
vn 1.000000 0.000000 0.000000
vn 0.000000 1.000000 -0.000000
vn 0.000000 1.000000 -0.000000
vn 0.000000 1.000000 -0.000000
vn 0.000000 1.000000 -0.000000
vn 0.000000 -1.000000 -0.000000
vn 0.000000 -1.000000 -0.000000
vn 0.000000 -1.000000 -0.000000
vn 0.000000 -1.000000 -0.000000
vn 0.000000 0.000000 1.000000
vn 0.000000 0.000000 1.000000
vn 0.000000 0.000000 1.000000
vn 0.000000 0.000000 1.000000
vn -1.000000 -0.000000 0.000000
vn -1.000000 -0.000000 0.000000
vn -1.000000 -0.000000 0.000000
vn -1.000000 -0.000000 0.000000
vn 0.000000 0.000000 -1.000000
vn 0.000000 0.000000 -1.000000
vn 0.000000 0.000000 -1.000000
vn 0.000000 0.000000 -1.000000
vn 1.000000 0.000000 0.000000
vn 1.000000 0.000000 0.000000
vn 1.000000 0.000000 0.000000
vn 1.000000 0.000000 0.000000
vn 0.000000 1.000000 -0.000000
vn 0.000000 1.000000 -0.000000
vn 0.000000 1.000000 -0.000000
vn 0.000000 1.000000 -0.000000
vn 0.000000 -1.000000 -0.000000
vn 0.000000 -1.000000 -0.000000
vn 0.000000 -1.000000 -0.000000
vn 0.000000 -1.000000 -0.000000
vn -0.000000 0.000000 1.000000
vn -0.000000 0.000000 1.000000
vn -0.000000 0.000000 1.000000
vn -0.000000 0.000000 1.000000
vn 1.000000 0.000000 0.000000
vn 1.000000 0.000000 0.000000
vn 1.000000 0.000000 0.000000
vn 1.000000 0.000000 0.000000
vn -0.000000 0.000000 -1.000000
vn -0.000000 0.000000 -1.000000
vn -0.000000 0.000000 -1.000000
vn -0.000000 0.000000 -1.000000
vn -1.000000 0.000000 0.000000
vn -1.000000 0.000000 0.000000
vn -1.000000 0.000000 0.000000
vn -1.000000 0.000000 0.000000
vn 0.000000 1.000000 0.000000
vn 0.000000 1.000000 0.000000
vn 0.000000 1.000000 0.000000
vn 0.000000 1.000000 0.000000
vn 0.000000 -1.000000 0.000000
vn 0.000000 -1.000000 0.000000
vn 0.000000 -1.000000 0.000000
vn 0.000000 -1.000000 0.000000
vn -0.000000 0.000000 1.000000
vn -0.000000 0.000000 1.000000
vn -0.000000 0.000000 1.000000
vn -0.000000 0.000000 1.000000
vn 1.000000 0.000000 0.000000
vn 1.000000 0.000000 0.000000
vn 1.000000 0.000000 0.000000
vn 1.000000 0.000000 0.000000
vn -0.000000 0.000000 -1.000000
vn -0.000000 0.000000 -1.000000
vn -0.000000 0.000000 -1.000000
vn -0.000000 0.000000 -1.000000
vn -1.000000 0.000000 0.000000
vn -1.000000 0.000000 0.000000
vn -1.000000 0.000000 0.000000
vn -1.000000 0.000000 0.000000
vn 0.000000 1.000000 0.000000
vn 0.000000 1.000000 0.000000
vn 0.000000 1.000000 0.000000
vn 0.000000 1.000000 0.000000
vn 0.000000 -1.000000 0.000000
vn 0.000000 -1.000000 0.000000
vn 0.000000 -1.000000 0.000000
vn 0.000000 -1.000000 0.000000
vn 0.000000 0.000000 1.000000
vn 0.000000 0.000000 1.000000
vn 0.000000 0.000000 1.000000
vn 0.000000 0.000000 1.000000
vn -1.000000 -0.000000 0.000000
vn -1.000000 -0.000000 0.000000
vn -1.000000 -0.000000 0.000000
vn -1.000000 -0.000000 0.000000
vn 0.000000 0.000000 -1.000000
vn 0.000000 0.000000 -1.000000
vn 0.000000 0.000000 -1.000000
vn 0.000000 0.000000 -1.000000
vn 1.000000 0.000000 0.000000
vn 1.000000 0.000000 0.000000
vn 1.000000 0.000000 0.000000
vn 1.000000 0.000000 0.000000
vn 0.000000 1.000000 -0.000000
vn 0.000000 1.000000 -0.000000
vn 0.000000 1.000000 -0.000000
vn 0.000000 1.000000 -0.000000
vn 0.000000 -1.000000 -0.000000
vn 0.000000 -1.000000 -0.000000
vn 0.000000 -1.000000 -0.000000
vn 0.000000 -1.000000 -0.000000
vn 0.000000 0.000000 1.000000
vn 0.000000 0.000000 1.000000
vn 0.000000 0.000000 1.000000
vn 0.000000 0.000000 1.000000
vn -1.000000 -0.000000 0.000000
vn -1.000000 -0.000000 0.000000
vn -1.000000 -0.000000 0.000000
vn -1.000000 -0.000000 0.000000
vn 0.000000 0.000000 -1.000000
vn 0.000000 0.000000 -1.000000
vn 0.000000 0.000000 -1.000000
vn 0.000000 0.000000 -1.000000
vn 1.000000 0.000000 0.000000
vn 1.000000 0.000000 0.000000
vn 1.000000 0.000000 0.000000
vn 1.000000 0.000000 0.000000
vn 0.000000 1.000000 -0.000000
vn 0.000000 1.000000 -0.000000
vn 0.000000 1.000000 -0.000000
vn 0.000000 1.000000 -0.000000
vn 0.000000 -1.000000 -0.000000
vn 0.000000 -1.000000 -0.000000
vn 0.000000 -1.000000 -0.000000
vn 0.000000 -1.000000 -0.000000
vn -0.000000 0.000000 1.000000
vn -0.000000 0.000000 1.000000
vn -0.000000 0.000000 1.000000
vn -0.000000 0.000000 1.000000
vn 1.000000 0.000000 0.000000
vn 1.000000 0.000000 0.000000
vn 1.000000 0.000000 0.000000
vn 1.000000 0.000000 0.000000
vn -0.000000 0.000000 -1.000000
vn -0.000000 0.000000 -1.000000
vn -0.000000 0.000000 -1.000000
vn -0.000000 0.000000 -1.000000
vn -1.000000 0.000000 0.000000
vn -1.000000 0.000000 0.000000
vn -1.000000 0.000000 0.000000
vn -1.000000 0.000000 0.000000
vn 0.000000 1.000000 0.000000
vn 0.000000 1.000000 0.000000
vn 0.000000 1.000000 0.000000
vn 0.000000 1.000000 0.000000
vn 0.000000 -1.000000 0.000000
vn 0.000000 -1.000000 0.000000
vn 0.000000 -1.000000 0.000000
vn 0.000000 -1.000000 0.000000
vn 0.000000 0.000000 1.000000
vn 0.000000 0.000000 1.000000
vn 0.000000 0.000000 1.000000
vn 0.000000 0.000000 1.000000
vn -1.000000 -0.000000 0.000000
vn -1.000000 -0.000000 0.000000
vn -1.000000 -0.000000 0.000000
vn -1.000000 -0.000000 0.000000
vn 0.000000 0.000000 -1.000000
vn 0.000000 0.000000 -1.000000
vn 0.000000 0.000000 -1.000000
vn 0.000000 0.000000 -1.000000
vn 1.000000 0.000000 0.000000
vn 1.000000 0.000000 0.000000
vn 1.000000 0.000000 0.000000
vn 1.000000 0.000000 0.000000
vn 0.000000 1.000000 -0.000000
vn 0.000000 1.000000 -0.000000
vn 0.000000 1.000000 -0.000000
vn 0.000000 1.000000 -0.000000
vn 0.000000 -1.000000 -0.000000
vn 0.000000 -1.000000 -0.000000
vn 0.000000 -1.000000 -0.000000
vn 0.000000 -1.000000 -0.000000
# 336 vertex normals

g mat1
f 2/1/1 4/2/2 3/3/3 1/4/4
f 4/5/5 6/6/6 5/7/7 3/8/8
f 6/9/9 8/10/10 7/11/11 5/12/12
f 8/13/13 2/14/14 1/15/15 7/16/16
f 1/17/17 3/18/18 5/19/19 7/20/20
f 8/21/21 6/22/22 4/23/23 2/24/24
f 10/25/25 12/26/26 11/27/27 9/28/28
f 12/29/29 14/30/30 13/31/31 11/32/32
f 14/33/33 16/34/34 15/35/35 13/36/36
f 16/37/37 10/38/38 9/39/39 15/40/40
f 9/41/41 11/42/42 13/43/43 15/44/44
f 16/45/45 14/46/46 12/47/47 10/48/48
f 18/49/49 20/50/50 19/51/51 17/52/52
f 20/53/53 22/54/54 21/55/55 19/56/56
f 22/57/57 24/58/58 23/59/59 21/60/60
f 24/61/61 18/62/62 17/63/63 23/64/64
f 17/65/65 19/66/66 21/67/67 23/68/68
f 24/69/69 22/70/70 20/71/71 18/72/72
f 27/73/73 28/74/74 26/75/75 25/76/76
f 29/77/77 30/78/78 28/79/79 27/80/80
f 31/81/81 32/82/82 30/83/83 29/84/84
f 25/85/85 26/86/86 32/87/87 31/88/88
f 29/89/89 27/90/90 25/91/91 31/92/92
f 28/93/93 30/94/94 32/95/95 26/96/96
f 34/97/97 36/98/98 35/99/99 33/100/100
f 36/101/101 38/102/102 37/103/103 35/104/104
f 38/105/105 40/106/106 39/107/107 37/108/108
f 40/109/109 34/110/110 33/111/111 39/112/112
f 33/113/113 35/114/114 37/115/115 39/116/116
f 40/117/117 38/118/118 36/119/119 34/120/120
f 42/121/121 44/122/122 43/123/123 41/124/124
f 44/125/125 46/126/126 45/127/127 43/128/128
f 46/129/129 48/130/130 47/131/131 45/132/132
f 48/133/133 42/134/134 41/135/135 47/136/136
f 41/137/137 43/138/138 45/139/139 47/140/140
f 48/141/141 46/142/142 44/143/143 42/144/144
f 51/145/145 52/146/146 50/147/147 49/148/148
f 53/149/149 54/150/150 52/151/151 51/152/152
f 55/153/153 56/154/154 54/155/155 53/156/156
f 49/157/157 50/158/158 56/159/159 55/160/160
f 53/161/161 51/162/162 49/163/163 55/164/164
f 52/165/165 54/166/166 56/167/167 50/168/168
f 59/169/169 60/170/170 58/171/171 57/172/172
f 61/173/173 62/174/174 60/175/175 59/176/176
f 63/177/177 64/178/178 62/179/179 61/180/180
f 57/181/181 58/182/182 64/183/183 63/184/184
f 61/185/185 59/186/186 57/187/187 63/188/188
f 60/189/189 62/190/190 64/191/191 58/192/192
f 66/193/193 68/194/194 67/195/195 65/196/196
f 68/197/197 70/198/198 69/199/199 67/200/200
f 70/201/201 72/202/202 71/203/203 69/204/204
f 72/205/205 66/206/206 65/207/207 71/208/208
f 65/209/209 67/210/210 69/211/211 71/212/212
f 72/213/213 70/214/214 68/215/215 66/216/216
f 74/217/217 76/218/218 75/219/219 73/220/220
f 76/221/221 78/222/222 77/223/223 75/224/224
f 78/225/225 80/226/226 79/227/227 77/228/228
f 80/229/229 74/230/230 73/231/231 79/232/232
f 73/233/233 75/234/234 77/235/235 79/236/236
f 80/237/237 78/238/238 76/239/239 74/240/240
f 83/241/241 84/242/242 82/243/243 81/244/244
f 85/245/245 86/246/246 84/247/247 83/248/248
f 87/249/249 88/250/250 86/251/251 85/252/252
f 81/253/253 82/254/254 88/255/255 87/256/256
f 85/257/257 83/258/258 81/259/259 87/260/260
f 84/261/261 86/262/262 88/263/263 82/264/264
f 91/265/265 92/266/266 90/267/267 89/268/268
f 93/269/269 94/270/270 92/271/271 91/272/272
f 95/273/273 96/274/274 94/275/275 93/276/276
f 89/277/277 90/278/278 96/279/279 95/280/280
f 93/281/281 91/282/282 89/283/283 95/284/284
f 92/285/285 94/286/286 96/287/287 90/288/288
f 98/289/289 100/290/290 99/291/291 97/292/292
f 100/293/293 102/294/294 101/295/295 99/296/296
f 102/297/297 104/298/298 103/299/299 101/300/300
f 104/301/301 98/302/302 97/303/303 103/304/304
f 97/305/305 99/306/306 101/307/307 103/308/308
f 104/309/309 102/310/310 100/311/311 98/312/312
f 107/313/313 108/314/314 106/315/315 105/316/316
f 109/317/317 110/318/318 108/319/319 107/320/320
f 111/321/321 112/322/322 110/323/323 109/324/324
f 105/325/325 106/326/326 112/327/327 111/328/328
f 109/329/329 107/330/330 105/331/331 111/332/332
f 108/333/333 110/334/334 112/335/335 106/336/336
# 84 elements

