# Created by 3DAce v2.72


g
v 0.200000 2.250000 0.150000
v -0.200000 2.250000 0.150000
v -0.175000 2.345000 0.200000
v 0.175000 2.345000 0.200000
v 0.175000 2.270000 0.200000
v -0.175000 2.270000 0.200000
v 0.192942 2.347656 0.185291
v 0.200000 2.354714 0.150000
v 0.192942 2.264117 0.185291
v -0.200000 2.354714 0.150000
v -0.192942 2.347656 0.185291
v -0.192942 2.264117 0.185291
v -0.184714 2.370000 0.150000
v 0.184714 2.370000 0.150000
v 0.177656 2.362942 0.185291
v -0.177656 2.362942 0.185291
v 0.186468 2.268277 0.195692
v 0.186468 2.345576 0.195692
v -0.186468 2.345576 0.195692
v -0.186468 2.268277 0.195692
v 0.195523 2.365523 0.150000
v 0.188465 2.358465 0.185291
v 0.175576 2.356468 0.195692
v -0.175576 2.356468 0.195692
v -0.188465 2.358465 0.185291
v -0.195523 2.365523 0.150000
v -0.200000 2.250000 -0.150000
v 0.200000 2.250000 -0.150000
v 0.175000 2.345000 -0.200000
v -0.175000 2.345000 -0.200000
v -0.175000 2.270000 -0.200000
v 0.175000 2.270000 -0.200000
v -0.192942 2.347656 -0.185291
v -0.200000 2.354714 -0.150000
v -0.192942 2.264117 -0.185291
v 0.200000 2.354714 -0.150000
v 0.192942 2.347656 -0.185291
v 0.192942 2.264117 -0.185291
v 0.184714 2.370000 -0.150000
v -0.184714 2.370000 -0.150000
v -0.177656 2.362942 -0.185291
v 0.177656 2.362942 -0.185291
v -0.186468 2.268277 -0.195692
v -0.186468 2.345576 -0.195692
v 0.186468 2.345576 -0.195692
v 0.186468 2.268277 -0.195692
v -0.195523 2.365523 -0.150000
v -0.188465 2.358465 -0.185291
v -0.175576 2.356468 -0.195692
v 0.175576 2.356468 -0.195692
v 0.188465 2.358465 -0.185291
v 0.195523 2.365523 -0.150000
v -0.244661 1.216566 0.045000
v -0.107302 1.216566 0.045000
v -0.175982 1.335521 0.045000
v -0.265942 1.144275 0.045000
v -0.109005 1.144275 0.045000
v -0.234554 1.112888 0.045000
v -0.109005 1.112888 0.045000
v -0.234554 1.175663 0.045000
v -0.109005 1.175663 0.045000
v 0.244661 1.216566 0.045000
v 0.107302 1.216566 0.045000
v 0.175982 1.335521 0.045000
v 0.265942 1.144275 0.045000
v 0.109005 1.144275 0.045000
v 0.234554 1.112888 0.045000
v 0.109005 1.112888 0.045000
v 0.234554 1.175663 0.045000
v 0.109005 1.175663 0.045000
# 70 vertices

vt 0.126861 0.745139
vt 0.125497 0.744591
vt 0.125632 0.735869
vt 0.127006 0.735713
vt 0.125497 0.744591
vt 0.123995 0.744635
vt 0.124126 0.736172
vt 0.125632 0.735869
vt 0.085984 0.746168
vt 0.085982 0.745975
vt 0.085823 0.754681
vt 0.085812 0.755576
vt 0.085982 0.745975
vt 0.086913 0.745657
vt 0.086759 0.754105
vt 0.085823 0.754681
vt 0.125204 0.747280
vt 0.126365 0.746481
vt 0.129401 0.748744
vt 0.128240 0.749542
vt 0.126365 0.746481
vt 0.126861 0.745139
vt 0.129897 0.747402
vt 0.129401 0.748744
vt 0.087402 0.756886
vt 0.086956 0.755615
vt 0.124316 0.746117
vt 0.125204 0.747280
vt 0.086956 0.755615
vt 0.086759 0.754105
vt 0.123995 0.744635
vt 0.124316 0.746117
vt 0.088945 0.759520
vt 0.087808 0.759306
vt 0.086264 0.756673
vt 0.087402 0.756886
vt 0.087808 0.759306
vt 0.087355 0.758209
vt 0.085812 0.755576
vt 0.086264 0.756673
vt 0.086956 0.755615
vt 0.085823 0.754681
vt 0.086759 0.754105
vt 0.086956 0.755615
vt 0.086956 0.755615
vt 0.086264 0.756673
vt 0.085823 0.754681
vt 0.086956 0.755615
vt 0.087402 0.756886
vt 0.086264 0.756673
vt 0.086956 0.755615
vt 0.087402 0.756886
vt 0.086264 0.756673
vt 0.085812 0.755576
vt 0.085823 0.754681
vt 0.086264 0.756673
vt 0.125497 0.744591
vt 0.124316 0.746117
vt 0.123995 0.744635
vt 0.125497 0.744591
vt 0.125497 0.744591
vt 0.126365 0.746481
vt 0.124316 0.746117
vt 0.125497 0.744591
vt 0.126861 0.745139
vt 0.126365 0.746481
vt 0.125497 0.744591
vt 0.126861 0.745139
vt 0.126365 0.746481
vt 0.125204 0.747280
vt 0.124316 0.746117
vt 0.126365 0.746481
vt 0.086913 0.745657
vt 0.124126 0.736172
vt 0.123995 0.744635
vt 0.086759 0.754105
vt 0.127006 0.735713
vt 0.130075 0.735590
vt 0.129897 0.747402
vt 0.126861 0.745139
vt 0.087570 0.746422
vt 0.085984 0.746168
vt 0.085812 0.755576
vt 0.087355 0.758209
vt 0.087402 0.756886
vt 0.125204 0.747280
vt 0.128240 0.749542
vt 0.088945 0.759520
vt 0.064250 0.998000
vt 0.035694 0.987273
vt 0.019575 0.961376
vt 0.002000 0.873500
vt 0.998000 0.873500
vt 0.980425 0.961376
vt 0.964306 0.987273
vt 0.935750 0.998000
vt 0.064250 0.998000
vt 0.002000 0.873500
vt 0.998000 0.873500
vt 0.935750 0.998000
vt 0.126861 0.745139
vt 0.125497 0.744591
vt 0.125632 0.735869
vt 0.127006 0.735713
vt 0.125497 0.744591
vt 0.123995 0.744635
vt 0.124126 0.736172
vt 0.125632 0.735869
vt 0.085984 0.746168
vt 0.085982 0.745975
vt 0.085823 0.754681
vt 0.085812 0.755576
vt 0.085982 0.745975
vt 0.086913 0.745657
vt 0.086759 0.754105
vt 0.085823 0.754681
vt 0.125204 0.747280
vt 0.126365 0.746481
vt 0.129401 0.748744
vt 0.128240 0.749542
vt 0.126365 0.746481
vt 0.126861 0.745139
vt 0.129897 0.747402
vt 0.129401 0.748744
vt 0.087402 0.756886
vt 0.086956 0.755615
vt 0.124316 0.746117
vt 0.125204 0.747280
vt 0.086956 0.755615
vt 0.086759 0.754105
vt 0.123995 0.744635
vt 0.124316 0.746117
vt 0.088945 0.759520
vt 0.087808 0.759306
vt 0.086264 0.756673
vt 0.087402 0.756886
vt 0.087808 0.759306
vt 0.087355 0.758209
vt 0.085812 0.755576
vt 0.086264 0.756673
vt 0.086956 0.755615
vt 0.085823 0.754681
vt 0.086759 0.754105
vt 0.086956 0.755615
vt 0.086956 0.755615
vt 0.086264 0.756673
vt 0.085823 0.754681
vt 0.086956 0.755615
vt 0.087402 0.756886
vt 0.086264 0.756673
vt 0.086956 0.755615
vt 0.087402 0.756886
vt 0.086264 0.756673
vt 0.085812 0.755576
vt 0.085823 0.754681
vt 0.086264 0.756673
vt 0.125497 0.744591
vt 0.124316 0.746117
vt 0.123995 0.744635
vt 0.125497 0.744591
vt 0.125497 0.744591
vt 0.126365 0.746481
vt 0.124316 0.746117
vt 0.125497 0.744591
vt 0.126861 0.745139
vt 0.126365 0.746481
vt 0.125497 0.744591
vt 0.126861 0.745139
vt 0.126365 0.746481
vt 0.125204 0.747280
vt 0.124316 0.746117
vt 0.126365 0.746481
vt 0.086913 0.745657
vt 0.124126 0.736172
vt 0.123995 0.744635
vt 0.086759 0.754105
vt 0.127006 0.735713
vt 0.130075 0.735590
vt 0.129897 0.747402
vt 0.126861 0.745139
vt 0.087570 0.746422
vt 0.085984 0.746168
vt 0.085812 0.755576
vt 0.087355 0.758209
vt 0.087402 0.756886
vt 0.125204 0.747280
vt 0.128240 0.749542
vt 0.088945 0.759520
vt 0.064250 0.998000
vt 0.035694 0.987273
vt 0.019575 0.961376
vt 0.002000 0.873500
vt 0.998000 0.873500
vt 0.980425 0.961376
vt 0.964306 0.987273
vt 0.935750 0.998000
vt 0.064250 0.998000
vt 0.002000 0.873500
vt 0.998000 0.873500
vt 0.935750 0.998000
vt 0.327903 0.565811
vt 0.001775 0.000942
vt 0.654031 0.000942
vt 0.327903 0.565811
vt 0.376663 0.547487
vt 0.999842 0.547487
vt 0.999842 0.703282
vt 0.220868 0.703282
vt 0.220868 0.703282
vt 0.999842 0.703282
vt 0.999842 0.859076
vt 0.376663 0.859076
vt 0.654031 0.000942
vt 0.001775 0.000942
vt 0.327903 0.565811
vt 0.654031 0.000942
vt 0.220868 0.703282
vt 0.999842 0.703282
vt 0.999842 0.547487
vt 0.376663 0.547487
vt 0.376663 0.859076
vt 0.999842 0.859076
vt 0.999842 0.703282
vt 0.220868 0.703282
vt 0.001775 0.000942
vt 0.327903 0.565811
vt 0.654031 0.000942
vt 0.001775 0.000942
vt 0.999842 0.703282
vt 0.999842 0.547487
vt 0.376663 0.547487
vt 0.220868 0.703282
vt 0.999842 0.859076
vt 0.999842 0.703282
vt 0.220868 0.703282
vt 0.376663 0.859076
vt 0.001775 0.000942
vt 0.654031 0.000942
vt 0.327903 0.565811
vt 0.001775 0.000942
vt 0.999842 0.547487
vt 0.999842 0.703282
vt 0.220868 0.703282
vt 0.376663 0.547487
vt 0.999842 0.703282
vt 0.999842 0.859076
vt 0.376663 0.859076
vt 0.220868 0.703282
# 248 texture vertices

vn 0.902144 0.178202 0.392912
vn 0.593095 0.241583 0.768034
vn 0.633988 -0.000000 0.773342
vn 0.929748 -0.000000 0.368196
vn 0.593095 0.241583 0.768034
vn 0.172795 0.172795 0.969682
vn 0.178707 -0.000000 0.983902
vn 0.633988 -0.000000 0.773342
vn -0.929748 0.000000 0.368196
vn -0.633989 0.000000 0.773342
vn -0.593095 0.241582 0.768034
vn -0.902144 0.178202 0.392913
vn -0.633989 0.000000 0.773342
vn -0.178707 0.000000 0.983902
vn -0.172796 0.172795 0.969682
vn -0.593095 0.241582 0.768034
vn 0.178203 0.902144 0.392913
vn 0.613880 0.613878 0.496292
vn 0.680414 0.680414 0.272164
vn 0.188642 0.955037 0.228733
vn 0.613880 0.613878 0.496292
vn 0.902144 0.178202 0.392912
vn 0.955037 0.188641 0.228735
vn 0.680414 0.680414 0.272164
vn -0.178203 0.902144 0.392912
vn -0.241585 0.593093 0.768035
vn 0.241584 0.593093 0.768035
vn 0.178203 0.902144 0.392913
vn -0.241585 0.593093 0.768035
vn -0.172796 0.172795 0.969682
vn 0.172795 0.172795 0.969682
vn 0.241584 0.593093 0.768035
vn -0.188642 0.955037 0.228733
vn -0.680414 0.680414 0.272164
vn -0.613880 0.613878 0.496292
vn -0.178203 0.902144 0.392912
vn -0.680414 0.680414 0.272164
vn -0.955037 0.188641 0.228735
vn -0.902144 0.178202 0.392913
vn -0.613880 0.613878 0.496292
vn -0.241585 0.593093 0.768035
vn -0.593095 0.241582 0.768034
vn -0.172796 0.172795 0.969682
vn -0.241585 0.593093 0.768035
vn -0.241585 0.593093 0.768035
vn -0.613880 0.613878 0.496292
vn -0.593095 0.241582 0.768034
vn -0.241585 0.593093 0.768035
vn -0.178203 0.902144 0.392912
vn -0.613880 0.613878 0.496292
vn -0.241585 0.593093 0.768035
vn -0.178203 0.902144 0.392912
vn -0.613880 0.613878 0.496292
vn -0.902144 0.178202 0.392913
vn -0.593095 0.241582 0.768034
vn -0.613880 0.613878 0.496292
vn 0.593095 0.241583 0.768034
vn 0.241584 0.593093 0.768035
vn 0.172795 0.172795 0.969682
vn 0.593095 0.241583 0.768034
vn 0.593095 0.241583 0.768034
vn 0.613880 0.613878 0.496292
vn 0.241584 0.593093 0.768035
vn 0.593095 0.241583 0.768034
vn 0.902144 0.178202 0.392912
vn 0.613880 0.613878 0.496292
vn 0.593095 0.241583 0.768034
vn 0.902144 0.178202 0.392912
vn 0.613880 0.613878 0.496292
vn 0.178203 0.902144 0.392913
vn 0.241584 0.593093 0.768035
vn 0.613880 0.613878 0.496292
vn -0.178707 0.000000 0.983902
vn 0.178707 -0.000000 0.983902
vn 0.172795 0.172795 0.969682
vn -0.172796 0.172795 0.969682
vn 0.929748 -0.000000 0.368196
vn 0.980581 0.000000 0.196116
vn 0.955037 0.188641 0.228735
vn 0.902144 0.178202 0.392912
vn -0.980581 0.000000 0.196116
vn -0.929748 0.000000 0.368196
vn -0.902144 0.178202 0.392913
vn -0.955037 0.188641 0.228735
vn -0.178203 0.902144 0.392913
vn 0.178203 0.902144 0.392913
vn 0.188642 0.955037 0.228733
vn -0.188642 0.955037 0.228733
vn -0.000003 -0.928477 0.371391
vn -0.000006 -0.928477 0.371391
vn -0.000006 -0.928477 0.371391
vn -0.000003 -0.928477 0.371391
vn -0.000002 -0.928478 0.371388
vn -0.000004 -0.928479 0.371385
vn -0.000004 -0.928479 0.371385
vn -0.000002 -0.928478 0.371388
vn -0.000003 -0.928477 0.371391
vn -0.000003 -0.928477 0.371391
vn -0.000002 -0.928478 0.371388
vn -0.000002 -0.928478 0.371388
vn -0.902144 0.178202 -0.392912
vn -0.593095 0.241583 -0.768034
vn -0.633988 -0.000000 -0.773342
vn -0.929748 -0.000000 -0.368196
vn -0.593095 0.241583 -0.768034
vn -0.172795 0.172795 -0.969682
vn -0.178707 -0.000000 -0.983902
vn -0.633988 -0.000000 -0.773342
vn 0.929748 0.000000 -0.368196
vn 0.633989 0.000000 -0.773342
vn 0.593095 0.241582 -0.768034
vn 0.902144 0.178202 -0.392913
vn 0.633989 0.000000 -0.773342
vn 0.178707 0.000000 -0.983902
vn 0.172796 0.172795 -0.969682
vn 0.593095 0.241582 -0.768034
vn -0.178203 0.902144 -0.392913
vn -0.613880 0.613878 -0.496292
vn -0.680414 0.680414 -0.272164
vn -0.188642 0.955037 -0.228733
vn -0.613880 0.613878 -0.496292
vn -0.902144 0.178202 -0.392912
vn -0.955037 0.188641 -0.228735
vn -0.680414 0.680414 -0.272164
vn 0.178203 0.902144 -0.392912
vn 0.241585 0.593093 -0.768035
vn -0.241584 0.593093 -0.768035
vn -0.178203 0.902144 -0.392913
vn 0.241585 0.593093 -0.768035
vn 0.172796 0.172795 -0.969682
vn -0.172795 0.172795 -0.969682
vn -0.241584 0.593093 -0.768035
vn 0.188642 0.955037 -0.228733
vn 0.680414 0.680414 -0.272164
vn 0.613880 0.613878 -0.496292
vn 0.178203 0.902144 -0.392912
vn 0.680414 0.680414 -0.272164
vn 0.955037 0.188641 -0.228735
vn 0.902144 0.178202 -0.392913
vn 0.613880 0.613878 -0.496292
vn 0.241585 0.593093 -0.768035
vn 0.593095 0.241582 -0.768034
vn 0.172796 0.172795 -0.969682
vn 0.241585 0.593093 -0.768035
vn 0.241585 0.593093 -0.768035
vn 0.613880 0.613878 -0.496292
vn 0.593095 0.241582 -0.768034
vn 0.241585 0.593093 -0.768035
vn 0.178203 0.902144 -0.392912
vn 0.613880 0.613878 -0.496292
vn 0.241585 0.593093 -0.768035
vn 0.178203 0.902144 -0.392912
vn 0.613880 0.613878 -0.496292
vn 0.902144 0.178202 -0.392913
vn 0.593095 0.241582 -0.768034
vn 0.613880 0.613878 -0.496292
vn -0.593095 0.241583 -0.768034
vn -0.241584 0.593093 -0.768035
vn -0.172795 0.172795 -0.969682
vn -0.593095 0.241583 -0.768034
vn -0.593095 0.241583 -0.768034
vn -0.613880 0.613878 -0.496292
vn -0.241584 0.593093 -0.768035
vn -0.593095 0.241583 -0.768034
vn -0.902144 0.178202 -0.392912
vn -0.613880 0.613878 -0.496292
vn -0.593095 0.241583 -0.768034
vn -0.902144 0.178202 -0.392912
vn -0.613880 0.613878 -0.496292
vn -0.178203 0.902144 -0.392913
vn -0.241584 0.593093 -0.768035
vn -0.613880 0.613878 -0.496292
vn 0.178707 0.000000 -0.983902
vn -0.178707 -0.000000 -0.983902
vn -0.172795 0.172795 -0.969682
vn 0.172796 0.172795 -0.969682
vn -0.929748 -0.000000 -0.368196
vn -0.980581 0.000000 -0.196116
vn -0.955037 0.188641 -0.228735
vn -0.902144 0.178202 -0.392912
vn 0.980581 0.000000 -0.196116
vn 0.929748 0.000000 -0.368196
vn 0.902144 0.178202 -0.392913
vn 0.955037 0.188641 -0.228735
vn 0.178203 0.902144 -0.392913
vn -0.178203 0.902144 -0.392913
vn -0.188642 0.955037 -0.228733
vn 0.188642 0.955037 -0.228733
vn 0.000003 -0.928477 -0.371391
vn 0.000006 -0.928477 -0.371391
vn 0.000006 -0.928477 -0.371391
vn 0.000003 -0.928477 -0.371391
vn 0.000002 -0.928478 -0.371388
vn 0.000004 -0.928479 -0.371385
vn 0.000004 -0.928479 -0.371385
vn 0.000002 -0.928478 -0.371388
vn 0.000003 -0.928477 -0.371391
vn 0.000003 -0.928477 -0.371391
vn 0.000002 -0.928478 -0.371388
vn 0.000002 -0.928478 -0.371388
vn 0.000000 -0.000000 1.000000
vn 0.000000 -0.000000 1.000000
vn 0.000000 -0.000000 1.000000
vn 0.000000 -0.000000 1.000000
vn -0.000000 0.000000 1.000000
vn -0.000000 0.000000 1.000000
vn 0.000000 -0.000000 1.000000
vn 0.000000 -0.000000 1.000000
vn 0.000000 -0.000000 1.000000
vn 0.000000 -0.000000 1.000000
vn 0.000000 -0.000000 1.000000
vn 0.000000 -0.000000 1.000000
vn 0.000000 -0.000000 -1.000000
vn 0.000000 -0.000000 -1.000000
vn 0.000000 -0.000000 -1.000000
vn 0.000000 -0.000000 -1.000000
vn 0.000000 0.000000 -1.000000
vn 0.000000 0.000000 -1.000000
vn 0.000000 0.000000 -1.000000
vn 0.000000 0.000000 -1.000000
vn 0.000000 0.000000 -1.000000
vn 0.000000 0.000000 -1.000000
vn 0.000000 0.000000 -1.000000
vn 0.000000 0.000000 -1.000000
vn -0.000000 0.000000 1.000000
vn -0.000000 0.000000 1.000000
vn -0.000000 0.000000 1.000000
vn -0.000000 0.000000 1.000000
vn 0.000000 -0.000000 1.000000
vn 0.000000 0.000000 1.000000
vn 0.000000 0.000000 1.000000
vn 0.000000 -0.000000 1.000000
vn 0.000000 -0.000000 1.000000
vn 0.000000 -0.000000 1.000000
vn 0.000000 -0.000000 1.000000
vn 0.000000 -0.000000 1.000000
vn 0.000000 -0.000000 -1.000000
vn 0.000000 -0.000000 -1.000000
vn 0.000000 -0.000000 -1.000000
vn 0.000000 -0.000000 -1.000000
vn 0.000000 0.000000 -1.000000
vn 0.000000 0.000000 -1.000000
vn 0.000000 0.000000 -1.000000
vn 0.000000 0.000000 -1.000000
vn 0.000000 0.000000 -1.000000
vn 0.000000 0.000000 -1.000000
vn 0.000000 0.000000 -1.000000
vn 0.000000 0.000000 -1.000000
# 248 vertex normals

g mat1
f 7/1/1 18/2/2 17/3/3 9/4/4
f 18/5/5 4/6/6 5/7/7 17/8/8
f 12/9/9 20/10/10 19/11/11 11/12/12
f 20/13/13 6/14/14 3/15/15 19/16/16
f 15/17/17 22/18/18 21/19/19 14/20/20
f 22/21/21 7/22/22 8/23/23 21/24/24
f 16/25/25 24/26/26 23/27/27 15/28/28
f 24/29/29 3/30/30 4/31/31 23/32/32
f 13/33/33 26/34/34 25/35/35 16/36/36
f 26/37/37 10/38/38 11/39/39 25/40/40
f 24/41/41 19/42/42 3/43/43
f 24/45/45 25/46/46 19/47/47
f 16/49/49 25/50/50 24/51/51
f 25/53/53 11/54/54 19/55/55
f 18/57/57 23/58/58 4/59/59
f 18/61/61 22/62/62 23/63/63
f 7/65/65 22/66/66 18/67/67
f 22/69/69 15/70/70 23/71/71
f 6/73/73 5/74/74 4/75/75 3/76/76
f 9/77/77 1/78/78 8/79/79 7/80/80
f 2/81/81 12/82/82 11/83/83 10/84/84
f 16/85/85 15/86/86 14/87/87 13/88/88
f 6/89/89 20/90/90 12/91/91 2/92/92
f 1/93/93 9/94/94 17/95/95 5/96/96
f 6/97/97 2/98/98 1/99/99 5/100/100
f 33/101/101 44/102/102 43/103/103 35/104/104
f 44/105/105 30/106/106 31/107/107 43/108/108
f 38/109/109 46/110/110 45/111/111 37/112/112
f 46/113/113 32/114/114 29/115/115 45/116/116
f 41/117/117 48/118/118 47/119/119 40/120/120
f 48/121/121 33/122/122 34/123/123 47/124/124
f 42/125/125 50/126/126 49/127/127 41/128/128
f 50/129/129 29/130/130 30/131/131 49/132/132
f 39/133/133 52/134/134 51/135/135 42/136/136
f 52/137/137 36/138/138 37/139/139 51/140/140
f 50/141/141 45/142/142 29/143/143
f 50/145/145 51/146/146 45/147/147
f 42/149/149 51/150/150 50/151/151
f 51/153/153 37/154/154 45/155/155
f 44/157/157 49/158/158 30/159/159
f 44/161/161 48/162/162 49/163/163
f 33/165/165 48/166/166 44/167/167
f 48/169/169 41/170/170 49/171/171
f 32/173/173 31/174/174 30/175/175 29/176/176
f 35/177/177 27/178/178 34/179/179 33/180/180
f 28/181/181 38/182/182 37/183/183 36/184/184
f 42/185/185 41/186/186 40/187/187 39/188/188
f 32/189/189 46/190/190 38/191/191 28/192/192
f 27/193/193 35/194/194 43/195/195 31/196/196
f 32/197/197 28/198/198 27/199/199 31/200/200
f 55/201/201 53/202/202 54/203/203
f 58/205/205 59/206/206 57/207/207 56/208/208
f 56/209/209 57/210/210 61/211/211 60/212/212
f 54/213/213 53/214/214 55/215/215
f 56/217/217 57/218/218 59/219/219 58/220/220
f 60/221/221 61/222/222 57/223/223 56/224/224
f 62/225/225 64/226/226 63/227/227
f 66/229/229 68/230/230 67/231/231 65/232/232
f 70/233/233 66/234/234 65/235/235 69/236/236
f 62/237/237 63/238/238 64/239/239
f 68/241/241 66/242/242 65/243/243 67/244/244
f 66/245/245 70/246/246 69/247/247 65/248/248
# 62 elements

