# Created by 3DAce v2.72


g
v -1.000000 0.050000 1.000000
v -1.000000 -0.050000 1.000000
v 1.000000 0.050000 1.000000
v 1.000000 -0.050000 1.000000
v 1.000000 0.050000 -1.000000
v 1.000000 -0.050000 -1.000000
v -1.000000 0.050000 -1.000000
v -1.000000 -0.050000 -1.000000
# 8 vertices

vt 0.940937 0.041540
vt 0.963846 0.041015
vt 0.963884 0.042052
vt 0.940973 0.042577
vt 0.963846 0.041015
vt 0.962949 0.050753
vt 0.962987 0.051787
vt 0.963884 0.042052
vt 0.962949 0.050753
vt 0.940145 0.051273
vt 0.940180 0.052306
vt 0.962987 0.051787
vt 0.940145 0.051273
vt 0.940937 0.041540
vt 0.940973 0.042577
vt 0.940180 0.052306
vt 0.000000 0.218750
vt 0.781250 0.218750
vt 0.781250 1.000000
vt 0.000000 1.000000
vt 0.940145 0.051273
vt 0.962949 0.050753
vt 0.963846 0.041015
vt 0.940937 0.041540
# 24 texture vertices

vn -0.000000 0.000000 1.000000
vn -0.000000 0.000000 1.000000
vn -0.000000 0.000000 1.000000
vn -0.000000 0.000000 1.000000
vn 1.000000 0.000000 0.000000
vn 1.000000 0.000000 0.000000
vn 1.000000 0.000000 0.000000
vn 1.000000 0.000000 0.000000
vn -0.000000 0.000000 -1.000000
vn -0.000000 0.000000 -1.000000
vn -0.000000 0.000000 -1.000000
vn -0.000000 0.000000 -1.000000
vn -1.000000 0.000000 0.000000
vn -1.000000 0.000000 0.000000
vn -1.000000 0.000000 0.000000
vn -1.000000 0.000000 0.000000
vn 0.000000 1.000000 0.000000
vn 0.000000 1.000000 0.000000
vn 0.000000 1.000000 0.000000
vn 0.000000 1.000000 0.000000
vn 0.000000 -1.000000 0.000000
vn 0.000000 -1.000000 0.000000
vn 0.000000 -1.000000 0.000000
vn 0.000000 -1.000000 0.000000
# 24 vertex normals

g mat1
f 2/1/1 4/2/2 3/3/3 1/4/4
f 4/5/5 6/6/6 5/7/7 3/8/8
f 6/9/9 8/10/10 7/11/11 5/12/12
f 8/13/13 2/14/14 1/15/15 7/16/16
f 1/17/17 3/18/18 5/19/19 7/20/20
f 8/21/21 6/22/22 4/23/23 2/24/24
# 6 elements

