# Created by 3DAce v2.72


g
v 0.066252 -0.061014 -0.450000
v 0.071427 -0.049915 -0.450000
v 0.043646 -0.060027 -0.450000
v 0.054745 -0.065202 -0.450000
v 0.066252 -0.061014 0.450000
v 0.071427 -0.049915 0.450000
v 0.043646 -0.060027 0.450000
v 0.054745 -0.065202 0.450000
v 0.044633 -0.037421 -0.450000
v 0.039458 -0.048520 -0.450000
v 0.067239 -0.038408 -0.450000
v 0.056140 -0.033233 -0.450000
v 0.044633 -0.037421 0.450000
v 0.039458 -0.048520 0.450000
v 0.067239 -0.038408 0.450000
v 0.056140 -0.033233 0.450000
v -0.066252 -0.061014 -0.450000
v -0.071427 -0.049915 -0.450000
v -0.043646 -0.060027 -0.450000
v -0.054745 -0.065202 -0.450000
v -0.066252 -0.061014 0.450000
v -0.071427 -0.049915 0.450000
v -0.043646 -0.060027 0.450000
v -0.054745 -0.065202 0.450000
v -0.044633 -0.037421 -0.450000
v -0.039458 -0.048520 -0.450000
v -0.067239 -0.038408 -0.450000
v -0.056140 -0.033233 -0.450000
v -0.044633 -0.037421 0.450000
v -0.039458 -0.048520 0.450000
v -0.067239 -0.038408 0.450000
v -0.056140 -0.033233 0.450000
# 32 vertices

vt 0.831702 0.247375
vt 0.719090 0.183532
vt 0.717325 0.179808
vt 0.830009 0.243851
vt 0.826326 0.242811
vt 0.713460 0.178730
vt 0.709760 0.180925
vt 0.822812 0.244861
vt 0.830009 0.243851
vt 0.717325 0.179808
vt 0.713460 0.178730
vt 0.826326 0.242811
vt 0.821523 0.248799
vt 0.708389 0.185107
vt 0.710149 0.188829
vt 0.823213 0.252321
vt 0.826894 0.253365
vt 0.714013 0.189912
vt 0.717717 0.187718
vt 0.830411 0.251317
vt 0.823213 0.252321
vt 0.710149 0.188829
vt 0.714013 0.189912
vt 0.826894 0.253365
vt 0.719090 0.183532
vt 0.831702 0.247375
vt 0.830411 0.251317
vt 0.717717 0.187718
vt 0.822812 0.244861
vt 0.709760 0.180925
vt 0.708389 0.185107
vt 0.821523 0.248799
vt 0.673116 0.184306
vt 0.671421 0.188363
vt 0.786343 0.251658
vt 0.787942 0.247839
vt 0.680635 0.183887
vt 0.676932 0.182451
vt 0.791568 0.246110
vt 0.795099 0.247487
vt 0.676932 0.182451
vt 0.673116 0.184306
vt 0.787942 0.247839
vt 0.791568 0.246110
vt 0.680358 0.191836
vt 0.682055 0.187775
vt 0.796466 0.251164
vt 0.794865 0.254988
vt 0.672837 0.192250
vt 0.676538 0.193690
vt 0.791235 0.256715
vt 0.787706 0.255335
vt 0.676538 0.193690
vt 0.680358 0.191836
vt 0.794865 0.254988
vt 0.791235 0.256715
vt 0.787706 0.255335
vt 0.786343 0.251658
vt 0.671421 0.188363
vt 0.672837 0.192250
vt 0.682055 0.187775
vt 0.680635 0.183887
vt 0.795099 0.247487
vt 0.796466 0.251164
# 64 texture vertices

vn 0.999048 -0.043619 0.000000
vn 0.999048 -0.043619 0.000000
vn 0.675589 -0.737278 0.000000
vn 0.675589 -0.737278 0.000000
vn -0.043619 -0.999048 0.000000
vn -0.043619 -0.999048 0.000000
vn -0.737276 -0.675592 0.000000
vn -0.737276 -0.675592 0.000000
vn 0.675589 -0.737278 0.000000
vn 0.675589 -0.737278 0.000000
vn -0.043619 -0.999048 0.000000
vn -0.043619 -0.999048 0.000000
vn -0.999048 0.043618 0.000000
vn -0.999048 0.043618 0.000000
vn -0.675590 0.737278 0.000000
vn -0.675590 0.737278 0.000000
vn 0.043619 0.999048 0.000000
vn 0.043619 0.999048 0.000000
vn 0.737276 0.675591 0.000000
vn 0.737276 0.675591 0.000000
vn -0.675590 0.737278 0.000000
vn -0.675590 0.737278 0.000000
vn 0.043619 0.999048 0.000000
vn 0.043619 0.999048 0.000000
vn 0.999048 -0.043619 0.000000
vn 0.999048 -0.043619 0.000000
vn 0.737276 0.675591 0.000000
vn 0.737276 0.675591 0.000000
vn -0.737276 -0.675592 0.000000
vn -0.737276 -0.675592 0.000000
vn -0.999048 0.043618 0.000000
vn -0.999048 0.043618 0.000000
vn -0.675589 -0.737278 0.000000
vn -0.999048 -0.043619 0.000000
vn -0.999048 -0.043619 0.000000
vn -0.675589 -0.737278 0.000000
vn 0.737276 -0.675592 0.000000
vn 0.043619 -0.999048 0.000000
vn 0.043619 -0.999048 0.000000
vn 0.737276 -0.675592 0.000000
vn 0.043619 -0.999048 0.000000
vn -0.675589 -0.737278 0.000000
vn -0.675589 -0.737278 0.000000
vn 0.043619 -0.999048 0.000000
vn 0.675590 0.737278 0.000000
vn 0.999048 0.043618 0.000000
vn 0.999048 0.043618 0.000000
vn 0.675590 0.737278 0.000000
vn -0.737276 0.675591 0.000000
vn -0.043619 0.999048 0.000000
vn -0.043619 0.999048 0.000000
vn -0.737276 0.675591 0.000000
vn -0.043619 0.999048 0.000000
vn 0.675590 0.737278 0.000000
vn 0.675590 0.737278 0.000000
vn -0.043619 0.999048 0.000000
vn -0.737276 0.675591 0.000000
vn -0.999048 -0.043619 0.000000
vn -0.999048 -0.043619 0.000000
vn -0.737276 0.675591 0.000000
vn 0.999048 0.043618 0.000000
vn 0.737276 -0.675592 0.000000
vn 0.737276 -0.675592 0.000000
vn 0.999048 0.043618 0.000000
# 64 vertex normals

g mat1
f 2/1/1 6/2/2 5/3/3 1/4/4
f 4/5/5 8/6/6 7/7/7 3/8/8
f 1/9/9 5/10/10 8/11/11 4/12/12
f 10/13/13 14/14/14 13/15/15 9/16/16
f 12/17/17 16/18/18 15/19/19 11/20/20
f 9/21/21 13/22/22 16/23/23 12/24/24
f 6/25/25 2/26/26 11/27/27 15/28/28
f 3/29/29 7/30/30 14/31/31 10/32/32
f 21/33/33 22/34/34 18/35/35 17/36/36
f 23/37/37 24/38/38 20/39/39 19/40/40
f 24/41/41 21/42/42 17/43/43 20/44/44
f 29/45/45 30/46/46 26/47/47 25/48/48
f 31/49/49 32/50/50 28/51/51 27/52/52
f 32/53/53 29/54/54 25/55/55 28/56/56
f 27/57/57 18/58/58 22/59/59 31/60/60
f 30/61/61 23/62/62 19/63/63 26/64/64
# 16 elements

