# Created by 3DAce v2.72


g
v 0.000000 0.000000 0.500000
v 0.080000 0.000000 0.500000
v 0.080000 0.000000 -0.500000
v 0.000000 0.000000 -0.500000
v 0.000000 -0.045072 -0.500000
v 0.080000 -0.015954 -0.500000
v -0.000000 -0.045072 0.500000
v 0.080000 -0.015954 0.500000
v 0.047368 -0.027033 0.490000
v 0.068954 -0.063963 0.490000
v 0.075424 -0.050090 0.490000
v 0.064731 -0.020713 0.490000
v 0.030005 -0.033353 0.490000
v 0.040697 -0.062729 0.490000
v 0.054570 -0.069198 0.490000
v 0.068954 -0.063963 0.470000
v 0.075424 -0.050090 0.470000
v 0.064731 -0.020713 0.470000
v 0.030005 -0.033353 0.470000
v 0.040697 -0.062729 0.470000
v 0.054570 -0.069198 0.470000
v 0.047368 -0.027033 0.470000
v 0.047368 -0.027033 -0.490000
v 0.068954 -0.063963 -0.490000
v 0.075424 -0.050090 -0.490000
v 0.064731 -0.020713 -0.490000
v 0.030005 -0.033353 -0.490000
v 0.040697 -0.062729 -0.490000
v 0.054570 -0.069198 -0.490000
v 0.068954 -0.063963 -0.470000
v 0.075424 -0.050090 -0.470000
v 0.064731 -0.020713 -0.470000
v 0.030005 -0.033353 -0.470000
v 0.040697 -0.062729 -0.470000
v 0.054570 -0.069198 -0.470000
v 0.047368 -0.027033 -0.470000
v -0.080000 0.000000 0.500000
v -0.080000 0.000000 -0.500000
v -0.080000 -0.015954 -0.500000
v -0.080000 -0.015954 0.500000
v -0.047368 -0.027033 0.490000
v -0.068954 -0.063963 0.490000
v -0.075424 -0.050090 0.490000
v -0.064731 -0.020713 0.490000
v -0.030005 -0.033353 0.490000
v -0.040697 -0.062729 0.490000
v -0.054570 -0.069198 0.490000
v -0.068954 -0.063963 0.470000
v -0.075424 -0.050090 0.470000
v -0.064731 -0.020713 0.470000
v -0.030005 -0.033353 0.470000
v -0.040697 -0.062729 0.470000
v -0.054570 -0.069198 0.470000
v -0.047368 -0.027033 0.470000
v -0.047368 -0.027033 -0.490000
v -0.068954 -0.063963 -0.490000
v -0.075424 -0.050090 -0.490000
v -0.064731 -0.020713 -0.490000
v -0.030005 -0.033353 -0.490000
v -0.040697 -0.062729 -0.490000
v -0.054570 -0.069198 -0.490000
v -0.068954 -0.063963 -0.470000
v -0.075424 -0.050090 -0.470000
v -0.064731 -0.020713 -0.470000
v -0.030005 -0.033353 -0.470000
v -0.040697 -0.062729 -0.470000
v -0.054570 -0.069198 -0.470000
v -0.047368 -0.027033 -0.470000
v 0.000000 -0.045072 -0.500000
v 0.080000 -0.015954 -0.500000
v -0.000000 -0.045072 0.500000
v 0.080000 -0.015954 0.500000
v 0.000000 -0.045072 -0.500000
v -0.000000 -0.045072 0.500000
v -0.080000 -0.015954 -0.500000
v -0.080000 -0.015954 0.500000
# 76 vertices

vt 0.340219 0.746442
vt 0.322665 0.740778
vt 0.322571 0.751911
vt 0.340188 0.750391
vt 0.214762 0.706329
vt 0.340219 0.746442
vt 0.340188 0.750391
vt 0.214705 0.710464
vt 0.214762 0.706329
vt 0.214705 0.710464
vt 0.196472 0.712135
vt 0.196642 0.700482
vt 0.208852 0.235540
vt 0.209388 0.236994
vt 0.208114 0.237113
vt 0.207578 0.235659
vt 0.209388 0.236994
vt 0.208544 0.239971
vt 0.207270 0.240092
vt 0.208114 0.237113
vt 0.205717 0.238528
vt 0.206560 0.235552
vt 0.205286 0.235670
vt 0.204443 0.238648
vt 0.206560 0.235552
vt 0.207680 0.234943
vt 0.206406 0.235062
vt 0.205286 0.235670
vt 0.207680 0.234943
vt 0.208852 0.235540
vt 0.207578 0.235659
vt 0.206406 0.235062
vt 0.207578 0.235659
vt 0.208114 0.237113
vt 0.205856 0.239370
vt 0.207578 0.235659
vt 0.208114 0.237113
vt 0.207270 0.240092
vt 0.205856 0.239370
vt 0.208114 0.237113
vt 0.204443 0.238648
vt 0.205286 0.235670
vt 0.205856 0.239370
vt 0.204443 0.238648
vt 0.205286 0.235670
vt 0.206406 0.235062
vt 0.205856 0.239370
vt 0.205286 0.235670
vt 0.206406 0.235062
vt 0.207578 0.235659
vt 0.205856 0.239370
vt 0.206406 0.235062
vt 0.209388 0.236994
vt 0.208852 0.235540
vt 0.207130 0.239250
vt 0.209388 0.236994
vt 0.208544 0.239971
vt 0.209388 0.236994
vt 0.207130 0.239250
vt 0.208544 0.239971
vt 0.206560 0.235552
vt 0.205717 0.238528
vt 0.207130 0.239250
vt 0.206560 0.235552
vt 0.207680 0.234943
vt 0.206560 0.235552
vt 0.207130 0.239250
vt 0.207680 0.234943
vt 0.208852 0.235540
vt 0.207680 0.234943
vt 0.207130 0.239250
vt 0.208852 0.235540
vt 0.269461 0.231362
vt 0.268231 0.231477
vt 0.267701 0.230048
vt 0.268932 0.229933
vt 0.268619 0.234290
vt 0.267388 0.234406
vt 0.268231 0.231477
vt 0.269461 0.231362
vt 0.266658 0.229946
vt 0.265427 0.230061
vt 0.264585 0.232989
vt 0.265817 0.232873
vt 0.267770 0.229347
vt 0.266539 0.229461
vt 0.265427 0.230061
vt 0.266658 0.229946
vt 0.268932 0.229933
vt 0.267701 0.230048
vt 0.266539 0.229461
vt 0.267770 0.229347
vt 0.269461 0.231362
vt 0.268932 0.229933
vt 0.267217 0.233581
vt 0.269461 0.231362
vt 0.268619 0.234290
vt 0.269461 0.231362
vt 0.267217 0.233581
vt 0.268619 0.234290
vt 0.266658 0.229946
vt 0.265817 0.232873
vt 0.267217 0.233581
vt 0.266658 0.229946
vt 0.267770 0.229347
vt 0.266658 0.229946
vt 0.267217 0.233581
vt 0.267770 0.229347
vt 0.268932 0.229933
vt 0.267770 0.229347
vt 0.267217 0.233581
vt 0.268932 0.229933
vt 0.267701 0.230048
vt 0.268231 0.231477
vt 0.265986 0.233697
vt 0.267701 0.230048
vt 0.268231 0.231477
vt 0.267388 0.234406
vt 0.265986 0.233697
vt 0.268231 0.231477
vt 0.264585 0.232989
vt 0.265427 0.230061
vt 0.265986 0.233697
vt 0.264585 0.232989
vt 0.265427 0.230061
vt 0.266539 0.229461
vt 0.265986 0.233697
vt 0.265427 0.230061
vt 0.266539 0.229461
vt 0.267701 0.230048
vt 0.265986 0.233697
vt 0.266539 0.229461
vt 0.322571 0.751911
vt 0.322665 0.740778
vt 0.305055 0.749490
vt 0.305018 0.753425
vt 0.305018 0.753425
vt 0.305055 0.749490
vt 0.178373 0.709682
vt 0.178310 0.713801
vt 0.196472 0.712135
vt 0.178310 0.713801
vt 0.178373 0.709682
vt 0.196642 0.700482
vt 0.195891 0.236494
vt 0.197166 0.236375
vt 0.197678 0.234976
vt 0.196402 0.235095
vt 0.196780 0.239555
vt 0.198056 0.239435
vt 0.197166 0.236375
vt 0.195891 0.236494
vt 0.198690 0.235337
vt 0.199965 0.235219
vt 0.200855 0.238280
vt 0.199580 0.238400
vt 0.197562 0.234616
vt 0.198837 0.234497
vt 0.199965 0.235219
vt 0.198690 0.235337
vt 0.196402 0.235095
vt 0.197678 0.234976
vt 0.198837 0.234497
vt 0.197562 0.234616
vt 0.195891 0.236494
vt 0.196402 0.235095
vt 0.198180 0.238978
vt 0.195891 0.236494
vt 0.196780 0.239555
vt 0.195891 0.236494
vt 0.198180 0.238978
vt 0.196780 0.239555
vt 0.198690 0.235337
vt 0.199580 0.238400
vt 0.198180 0.238978
vt 0.198690 0.235337
vt 0.197562 0.234616
vt 0.198690 0.235337
vt 0.198180 0.238978
vt 0.197562 0.234616
vt 0.196402 0.235095
vt 0.197562 0.234616
vt 0.198180 0.238978
vt 0.196402 0.235095
vt 0.197678 0.234976
vt 0.197166 0.236375
vt 0.199455 0.238858
vt 0.197678 0.234976
vt 0.197166 0.236375
vt 0.198056 0.239435
vt 0.199455 0.238858
vt 0.197166 0.236375
vt 0.200855 0.238280
vt 0.199965 0.235219
vt 0.199455 0.238858
vt 0.200855 0.238280
vt 0.199965 0.235219
vt 0.198837 0.234497
vt 0.199455 0.238858
vt 0.199965 0.235219
vt 0.198837 0.234497
vt 0.197678 0.234976
vt 0.199455 0.238858
vt 0.198837 0.234497
vt 0.256613 0.229503
vt 0.256103 0.230878
vt 0.257336 0.230763
vt 0.257846 0.229388
vt 0.256103 0.230878
vt 0.256981 0.233887
vt 0.258213 0.233771
vt 0.257336 0.230763
vt 0.259761 0.232749
vt 0.258883 0.229739
vt 0.260115 0.229624
vt 0.260993 0.232634
vt 0.258883 0.229739
vt 0.257765 0.229030
vt 0.258997 0.228916
vt 0.260115 0.229624
vt 0.257765 0.229030
vt 0.256613 0.229503
vt 0.257846 0.229388
vt 0.258997 0.228916
vt 0.257846 0.229388
vt 0.257336 0.230763
vt 0.259603 0.233203
vt 0.257846 0.229388
vt 0.257336 0.230763
vt 0.258213 0.233771
vt 0.259603 0.233203
vt 0.257336 0.230763
vt 0.260993 0.232634
vt 0.260115 0.229624
vt 0.259603 0.233203
vt 0.260993 0.232634
vt 0.260115 0.229624
vt 0.258997 0.228916
vt 0.259603 0.233203
vt 0.260115 0.229624
vt 0.258997 0.228916
vt 0.257846 0.229388
vt 0.259603 0.233203
vt 0.258997 0.228916
vt 0.256103 0.230878
vt 0.256613 0.229503
vt 0.258371 0.233319
vt 0.256103 0.230878
vt 0.256981 0.233887
vt 0.256103 0.230878
vt 0.258371 0.233319
vt 0.256981 0.233887
vt 0.258883 0.229739
vt 0.259761 0.232749
vt 0.258371 0.233319
vt 0.258883 0.229739
vt 0.257765 0.229030
vt 0.258883 0.229739
vt 0.258371 0.233319
vt 0.257765 0.229030
vt 0.256613 0.229503
vt 0.257765 0.229030
vt 0.258371 0.233319
vt 0.256613 0.229503
vt 0.322665 0.740778
vt 0.340219 0.746442
vt 0.214762 0.706329
vt 0.196642 0.700482
vt 0.178373 0.709682
vt 0.305055 0.749490
vt 0.322665 0.740778
vt 0.196642 0.700482
# 272 texture vertices

vn -0.000000 0.000000 -1.000000
vn 0.000000 0.000000 -1.000000
vn 0.000000 0.000000 -1.000000
vn -0.000000 0.000000 -1.000000
vn 1.000000 0.000002 -0.000000
vn 1.000000 0.000002 -0.000000
vn 1.000000 0.000002 -0.000000
vn 1.000000 0.000002 -0.000000
vn 0.000001 -0.000002 1.000000
vn 0.000001 -0.000002 1.000000
vn -0.000000 -0.000002 1.000000
vn -0.000000 -0.000002 1.000000
vn 0.675590 -0.737278 -0.000000
vn 0.999048 -0.043620 -0.000000
vn 0.999048 -0.043620 -0.000000
vn 0.675590 -0.737278 -0.000000
vn 0.999048 -0.043620 -0.000000
vn 0.939692 0.342021 -0.000000
vn 0.939692 0.342021 -0.000000
vn 0.999048 -0.043620 -0.000000
vn -0.939692 -0.342021 -0.000000
vn -0.737277 -0.675591 -0.000000
vn -0.737277 -0.675591 -0.000000
vn -0.939692 -0.342021 -0.000000
vn -0.737277 -0.675591 -0.000000
vn -0.043619 -0.999048 -0.000000
vn -0.043619 -0.999048 -0.000000
vn -0.737277 -0.675591 -0.000000
vn -0.043619 -0.999048 -0.000000
vn 0.675590 -0.737278 -0.000000
vn 0.675590 -0.737278 -0.000000
vn -0.043619 -0.999048 -0.000000
vn 0.000000 0.000000 1.000000
vn 0.000000 0.000000 1.000000
vn 0.000000 0.000000 1.000000
vn 0.000000 0.000000 1.000000
vn 0.000000 0.000000 1.000000
vn -0.000000 0.000000 1.000000
vn 0.000000 0.000000 1.000000
vn 0.000000 0.000000 1.000000
vn 0.000000 0.000000 1.000000
vn 0.000000 0.000000 1.000000
vn 0.000000 0.000000 1.000000
vn 0.000000 0.000000 1.000000
vn 0.000000 0.000000 1.000000
vn 0.000000 0.000000 1.000000
vn 0.000000 0.000000 1.000000
vn 0.000000 0.000000 1.000000
vn 0.000000 0.000000 1.000000
vn 0.000000 0.000000 1.000000
vn 0.000000 0.000000 1.000000
vn 0.000000 0.000000 1.000000
vn 0.000000 0.000000 -1.000000
vn 0.000000 0.000000 -1.000000
vn 0.000000 0.000000 -1.000000
vn 0.000000 0.000000 -1.000000
vn 0.000000 0.000000 -1.000000
vn 0.000000 0.000000 -1.000000
vn 0.000000 0.000000 -1.000000
vn 0.000000 0.000000 -1.000000
vn 0.000000 -0.000000 -1.000000
vn 0.000000 -0.000000 -1.000000
vn 0.000000 0.000000 -1.000000
vn 0.000000 -0.000000 -1.000000
vn 0.000000 0.000000 -1.000000
vn 0.000000 -0.000000 -1.000000
vn 0.000000 0.000000 -1.000000
vn 0.000000 0.000000 -1.000000
vn 0.000000 0.000000 -1.000000
vn 0.000000 0.000000 -1.000000
vn 0.000000 0.000000 -1.000000
vn 0.000000 0.000000 -1.000000
vn 0.999048 -0.043620 0.000000
vn 0.999048 -0.043620 0.000000
vn 0.675590 -0.737278 0.000000
vn 0.675590 -0.737278 0.000000
vn 0.939692 0.342021 0.000000
vn 0.939692 0.342021 0.000000
vn 0.999048 -0.043620 0.000000
vn 0.999048 -0.043620 0.000000
vn -0.737277 -0.675591 0.000000
vn -0.737277 -0.675591 0.000000
vn -0.939692 -0.342021 0.000000
vn -0.939692 -0.342021 0.000000
vn -0.043619 -0.999048 0.000000
vn -0.043619 -0.999048 0.000000
vn -0.737277 -0.675591 0.000000
vn -0.737277 -0.675591 0.000000
vn 0.675590 -0.737278 0.000000
vn 0.675590 -0.737278 0.000000
vn -0.043619 -0.999048 0.000000
vn -0.043619 -0.999048 0.000000
vn 0.000000 0.000000 -1.000000
vn 0.000000 0.000000 -1.000000
vn 0.000000 0.000000 -1.000000
vn 0.000000 0.000000 -1.000000
vn 0.000000 0.000000 -1.000000
vn 0.000000 0.000000 -1.000000
vn 0.000000 0.000000 -1.000000
vn 0.000000 0.000000 -1.000000
vn 0.000000 -0.000000 -1.000000
vn 0.000000 -0.000000 -1.000000
vn 0.000000 0.000000 -1.000000
vn 0.000000 -0.000000 -1.000000
vn 0.000000 0.000000 -1.000000
vn 0.000000 -0.000000 -1.000000
vn 0.000000 0.000000 -1.000000
vn 0.000000 0.000000 -1.000000
vn 0.000000 0.000000 -1.000000
vn 0.000000 0.000000 -1.000000
vn 0.000000 0.000000 -1.000000
vn 0.000000 0.000000 -1.000000
vn 0.000000 0.000000 1.000000
vn 0.000000 0.000000 1.000000
vn 0.000000 0.000000 1.000000
vn 0.000000 0.000000 1.000000
vn 0.000000 0.000000 1.000000
vn -0.000000 0.000000 1.000000
vn 0.000000 0.000000 1.000000
vn 0.000000 0.000000 1.000000
vn 0.000000 0.000000 1.000000
vn 0.000000 0.000000 1.000000
vn 0.000000 0.000000 1.000000
vn 0.000000 0.000000 1.000000
vn 0.000000 0.000000 1.000000
vn 0.000000 0.000000 1.000000
vn 0.000000 0.000000 1.000000
vn 0.000000 0.000000 1.000000
vn 0.000000 0.000000 1.000000
vn 0.000000 0.000000 1.000000
vn 0.000000 0.000000 1.000000
vn 0.000000 0.000000 1.000000
vn 0.000000 0.000000 -1.000000
vn 0.000000 0.000000 -1.000000
vn 0.000000 -0.000000 -1.000000
vn 0.000000 -0.000000 -1.000000
vn -1.000000 0.000002 -0.000000
vn -1.000000 0.000002 -0.000000
vn -1.000000 0.000002 -0.000000
vn -1.000000 0.000002 -0.000000
vn -0.000000 -0.000002 1.000000
vn -0.000001 -0.000002 1.000000
vn -0.000001 -0.000002 1.000000
vn -0.000000 -0.000002 1.000000
vn -0.999048 -0.043620 -0.000000
vn -0.999048 -0.043620 -0.000000
vn -0.675590 -0.737278 -0.000000
vn -0.675590 -0.737278 -0.000000
vn -0.939692 0.342021 -0.000000
vn -0.939692 0.342021 -0.000000
vn -0.999048 -0.043620 -0.000000
vn -0.999048 -0.043620 -0.000000
vn 0.737277 -0.675591 -0.000000
vn 0.737277 -0.675591 -0.000000
vn 0.939692 -0.342021 -0.000000
vn 0.939692 -0.342021 -0.000000
vn 0.043619 -0.999048 -0.000000
vn 0.043619 -0.999048 -0.000000
vn 0.737277 -0.675591 -0.000000
vn 0.737277 -0.675591 -0.000000
vn -0.675590 -0.737278 -0.000000
vn -0.675590 -0.737278 -0.000000
vn 0.043619 -0.999048 -0.000000
vn 0.043619 -0.999048 -0.000000
vn 0.000000 0.000000 1.000000
vn 0.000000 0.000000 1.000000
vn 0.000000 0.000000 1.000000
vn 0.000000 0.000000 1.000000
vn 0.000000 -0.000000 1.000000
vn 0.000000 0.000000 1.000000
vn 0.000000 0.000000 1.000000
vn 0.000000 -0.000000 1.000000
vn 0.000000 0.000000 1.000000
vn 0.000000 0.000000 1.000000
vn 0.000000 0.000000 1.000000
vn 0.000000 0.000000 1.000000
vn 0.000000 0.000000 1.000000
vn 0.000000 0.000000 1.000000
vn 0.000000 0.000000 1.000000
vn 0.000000 0.000000 1.000000
vn 0.000000 0.000000 1.000000
vn 0.000000 0.000000 1.000000
vn 0.000000 0.000000 1.000000
vn 0.000000 0.000000 1.000000
vn 0.000000 -0.000000 -1.000000
vn 0.000000 0.000000 -1.000000
vn 0.000000 0.000000 -1.000000
vn 0.000000 -0.000000 -1.000000
vn 0.000000 0.000000 -1.000000
vn -0.000000 0.000000 -1.000000
vn 0.000000 0.000000 -1.000000
vn 0.000000 0.000000 -1.000000
vn 0.000000 0.000000 -1.000000
vn 0.000000 0.000000 -1.000000
vn 0.000000 0.000000 -1.000000
vn 0.000000 0.000000 -1.000000
vn 0.000000 0.000000 -1.000000
vn 0.000000 -0.000000 -1.000000
vn 0.000000 0.000000 -1.000000
vn 0.000000 0.000000 -1.000000
vn 0.000000 -0.000000 -1.000000
vn 0.000000 -0.000000 -1.000000
vn 0.000000 0.000000 -1.000000
vn 0.000000 -0.000000 -1.000000
vn -0.675590 -0.737278 0.000000
vn -0.999048 -0.043620 0.000000
vn -0.999048 -0.043620 0.000000
vn -0.675590 -0.737278 0.000000
vn -0.999048 -0.043620 0.000000
vn -0.939692 0.342021 0.000000
vn -0.939692 0.342021 0.000000
vn -0.999048 -0.043620 0.000000
vn 0.939692 -0.342021 0.000000
vn 0.737277 -0.675591 0.000000
vn 0.737277 -0.675591 0.000000
vn 0.939692 -0.342021 0.000000
vn 0.737277 -0.675591 0.000000
vn 0.043619 -0.999048 0.000000
vn 0.043619 -0.999048 0.000000
vn 0.737277 -0.675591 0.000000
vn 0.043619 -0.999048 0.000000
vn -0.675590 -0.737278 0.000000
vn -0.675590 -0.737278 0.000000
vn 0.043619 -0.999048 0.000000
vn 0.000000 -0.000000 -1.000000
vn 0.000000 0.000000 -1.000000
vn 0.000000 0.000000 -1.000000
vn 0.000000 -0.000000 -1.000000
vn 0.000000 0.000000 -1.000000
vn -0.000000 0.000000 -1.000000
vn 0.000000 0.000000 -1.000000
vn 0.000000 0.000000 -1.000000
vn 0.000000 0.000000 -1.000000
vn 0.000000 0.000000 -1.000000
vn 0.000000 0.000000 -1.000000
vn 0.000000 0.000000 -1.000000
vn 0.000000 0.000000 -1.000000
vn 0.000000 -0.000000 -1.000000
vn 0.000000 0.000000 -1.000000
vn 0.000000 0.000000 -1.000000
vn 0.000000 -0.000000 -1.000000
vn 0.000000 -0.000000 -1.000000
vn 0.000000 0.000000 -1.000000
vn 0.000000 -0.000000 -1.000000
vn 0.000000 0.000000 1.000000
vn 0.000000 0.000000 1.000000
vn 0.000000 0.000000 1.000000
vn 0.000000 0.000000 1.000000
vn 0.000000 -0.000000 1.000000
vn 0.000000 0.000000 1.000000
vn 0.000000 0.000000 1.000000
vn 0.000000 -0.000000 1.000000
vn 0.000000 0.000000 1.000000
vn 0.000000 0.000000 1.000000
vn 0.000000 0.000000 1.000000
vn 0.000000 0.000000 1.000000
vn 0.000000 0.000000 1.000000
vn 0.000000 0.000000 1.000000
vn 0.000000 0.000000 1.000000
vn 0.000000 0.000000 1.000000
vn 0.000000 0.000000 1.000000
vn 0.000000 0.000000 1.000000
vn 0.000000 0.000000 1.000000
vn 0.000000 0.000000 1.000000
vn 0.342020 -0.939693 -0.000000
vn 0.342020 -0.939693 -0.000000
vn 0.342020 -0.939693 -0.000000
vn 0.342020 -0.939693 -0.000000
vn -0.342020 -0.939693 -0.000000
vn -0.342020 -0.939693 -0.000000
vn -0.342020 -0.939693 -0.000000
vn -0.342020 -0.939693 -0.000000
# 272 vertex normals

g mat1
f 6/1/1 5/2/2 4/3/3 3/4/4
f 8/5/5 6/6/6 3/7/7 2/8/8
f 8/9/9 2/10/10 1/11/11 7/12/12
f 16/13/13 17/14/14 11/15/15 10/16/16
f 17/17/17 18/18/18 12/19/19 11/20/20
f 19/21/21 20/22/22 14/23/23 13/24/24
f 20/25/25 21/26/26 15/27/27 14/28/28
f 21/29/29 16/30/30 10/31/31 15/32/32
f 10/33/33 11/34/34 9/35/35
f 11/37/37 12/38/38 9/39/39
f 13/41/41 14/42/42 9/43/43
f 14/45/45 15/46/46 9/47/47
f 15/49/49 10/50/50 9/51/51
f 17/53/53 16/54/54 22/55/55
f 18/57/57 17/58/58 22/59/59
f 20/61/61 19/62/62 22/63/63
f 21/65/65 20/66/66 22/67/67
f 16/69/69 21/70/70 22/71/71
f 25/73/73 31/74/74 30/75/75 24/76/76
f 26/77/77 32/78/78 31/79/79 25/80/80
f 28/81/81 34/82/82 33/83/83 27/84/84
f 29/85/85 35/86/86 34/87/87 28/88/88
f 24/89/89 30/90/90 35/91/91 29/92/92
f 25/93/93 24/94/94 23/95/95
f 26/97/97 25/98/98 23/99/99
f 28/101/101 27/102/102 23/103/103
f 29/105/105 28/106/106 23/107/107
f 24/109/109 29/110/110 23/111/111
f 30/113/113 31/114/114 36/115/115
f 31/117/117 32/118/118 36/119/119
f 33/121/121 34/122/122 36/123/123
f 34/125/125 35/126/126 36/127/127
f 35/129/129 30/130/130 36/131/131
f 4/133/133 5/134/134 39/135/135 38/136/136
f 38/137/137 39/138/138 40/139/139 37/140/140
f 1/141/141 37/142/142 40/143/143 7/144/144
f 43/145/145 49/146/146 48/147/147 42/148/148
f 44/149/149 50/150/150 49/151/151 43/152/152
f 46/153/153 52/154/154 51/155/155 45/156/156
f 47/157/157 53/158/158 52/159/159 46/160/160
f 42/161/161 48/162/162 53/163/163 47/164/164
f 43/165/165 42/166/166 41/167/167
f 44/169/169 43/170/170 41/171/171
f 46/173/173 45/174/174 41/175/175
f 47/177/177 46/178/178 41/179/179
f 42/181/181 47/182/182 41/183/183
f 48/185/185 49/186/186 54/187/187
f 49/189/189 50/190/190 54/191/191
f 51/193/193 52/194/194 54/195/195
f 52/197/197 53/198/198 54/199/199
f 53/201/201 48/202/202 54/203/203
f 62/205/205 63/206/206 57/207/207 56/208/208
f 63/209/209 64/210/210 58/211/211 57/212/212
f 65/213/213 66/214/214 60/215/215 59/216/216
f 66/217/217 67/218/218 61/219/219 60/220/220
f 67/221/221 62/222/222 56/223/223 61/224/224
f 56/225/225 57/226/226 55/227/227
f 57/229/229 58/230/230 55/231/231
f 59/233/233 60/234/234 55/235/235
f 60/237/237 61/238/238 55/239/239
f 61/241/241 56/242/242 55/243/243
f 63/245/245 62/246/246 68/247/247
f 64/249/249 63/250/250 68/251/251
f 66/253/253 65/254/254 68/255/255
f 67/257/257 66/258/258 68/259/259
f 62/261/261 67/262/262 68/263/263
f 69/265/265 70/266/266 72/267/267 71/268/268
f 76/269/269 75/270/270 73/271/271 74/272/272
# 68 elements

