# Created by 3DAce v2.72


g
v 0.000000 0.076000 0.061000
v -0.042992 0.025284 0.061000
v 0.042992 0.025284 0.061000
v 0.034992 0.084089 0.061000
v 0.048903 0.075275 0.061000
v 0.055491 0.058186 0.061000
v 0.050903 0.041097 0.061000
v 0.017179 0.084000 0.061000
v -0.017179 0.084000 0.061000
v -0.034992 0.084089 0.061000
v -0.050903 0.041097 0.061000
v -0.055491 0.058186 0.061000
v -0.048903 0.075275 0.061000
v 0.000000 0.076000 -0.061000
v -0.042992 0.025284 -0.061000
v 0.042992 0.025284 -0.061000
v 0.034992 0.084089 -0.061000
v 0.048903 0.075275 -0.061000
v 0.055491 0.058186 -0.061000
v 0.050903 0.041097 -0.061000
v 0.017179 0.084000 -0.061000
v -0.017179 0.084000 -0.061000
v -0.034992 0.084089 -0.061000
v -0.050903 0.041097 -0.061000
v -0.055491 0.058186 -0.061000
v -0.048903 0.075275 -0.061000
# 26 vertices

vt 0.016238 0.984092
vt 0.014133 0.981630
vt 0.018352 0.981643
vt 0.016238 0.984092
vt 0.018741 0.982407
vt 0.018968 0.983235
vt 0.018646 0.984064
vt 0.017961 0.984490
vt 0.017961 0.984490
vt 0.017083 0.984484
vt 0.018352 0.981643
vt 0.018741 0.982407
vt 0.018352 0.981643
vt 0.017083 0.984484
vt 0.016238 0.984092
vt 0.018352 0.981643
vt 0.014133 0.981630
vt 0.016238 0.984092
vt 0.015390 0.984479
vt 0.014133 0.981630
vt 0.013740 0.982393
vt 0.014133 0.981630
vt 0.015390 0.984479
vt 0.014512 0.984481
vt 0.014512 0.984481
vt 0.013828 0.984051
vt 0.013509 0.983220
vt 0.013740 0.982393
vt 0.014217 0.982667
vt 0.016214 0.985006
vt 0.018220 0.982678
vt 0.014217 0.982667
vt 0.018498 0.984979
vt 0.018804 0.984192
vt 0.018589 0.983405
vt 0.017849 0.985384
vt 0.018220 0.982678
vt 0.017016 0.985378
vt 0.017849 0.985384
vt 0.018589 0.983405
vt 0.017016 0.985378
vt 0.018220 0.982678
vt 0.016214 0.985006
vt 0.017016 0.985378
vt 0.016214 0.985006
vt 0.014217 0.982667
vt 0.015410 0.985374
vt 0.016214 0.985006
vt 0.015410 0.985374
vt 0.014217 0.982667
vt 0.013845 0.983392
vt 0.014577 0.985376
vt 0.013626 0.984178
vt 0.013929 0.984967
vt 0.014577 0.985376
vt 0.013845 0.983392
# 56 texture vertices

vn 0.000000 0.000000 1.000000
vn 0.000000 0.000000 1.000000
vn 0.000000 0.000000 1.000000
vn 0.000000 0.000000 1.000000
vn 0.000000 0.000000 1.000000
vn 0.000000 0.000000 1.000000
vn 0.000000 0.000000 1.000000
vn 0.000000 0.000000 1.000000
vn 0.000000 0.000000 1.000000
vn 0.000000 0.000000 1.000000
vn 0.000000 0.000000 1.000000
vn 0.000000 0.000000 1.000000
vn 0.000000 0.000000 1.000000
vn 0.000000 0.000000 1.000000
vn 0.000000 0.000000 1.000000
vn 0.000000 0.000000 1.000000
vn 0.000000 0.000000 1.000000
vn 0.000000 0.000000 1.000000
vn 0.000000 0.000000 1.000000
vn 0.000000 0.000000 1.000000
vn 0.000000 0.000000 1.000000
vn 0.000000 0.000000 1.000000
vn 0.000000 0.000000 1.000000
vn 0.000000 0.000000 1.000000
vn 0.000000 0.000000 1.000000
vn 0.000000 -0.000000 1.000000
vn 0.000000 -0.000000 1.000000
vn 0.000000 0.000000 1.000000
vn 0.000000 0.000000 -1.000000
vn 0.000000 0.000000 -1.000000
vn 0.000000 0.000000 -1.000000
vn 0.000000 0.000000 -1.000000
vn 0.000000 0.000000 -1.000000
vn 0.000000 0.000000 -1.000000
vn 0.000000 0.000000 -1.000000
vn 0.000000 0.000000 -1.000000
vn 0.000000 0.000000 -1.000000
vn 0.000000 0.000000 -1.000000
vn 0.000000 0.000000 -1.000000
vn 0.000000 0.000000 -1.000000
vn 0.000000 0.000000 -1.000000
vn 0.000000 0.000000 -1.000000
vn 0.000000 0.000000 -1.000000
vn 0.000000 0.000000 -1.000000
vn 0.000000 0.000000 -1.000000
vn 0.000000 0.000000 -1.000000
vn 0.000000 0.000000 -1.000000
vn 0.000000 0.000000 -1.000000
vn 0.000000 0.000000 -1.000000
vn 0.000000 0.000000 -1.000000
vn 0.000000 0.000000 -1.000000
vn 0.000000 0.000000 -1.000000
vn 0.000000 0.000000 -1.000000
vn 0.000000 0.000000 -1.000000
vn 0.000000 0.000000 -1.000000
vn 0.000000 0.000000 -1.000000
# 56 vertex normals

g mat1
f 1/1/1 2/2/2 3/3/3
f 7/5/5 6/6/6 5/7/7 4/8/8
f 4/9/9 8/10/10 3/11/11 7/12/12
f 3/13/13 8/14/14 1/15/15
f 2/17/17 1/18/18 9/19/19
f 11/21/21 2/22/22 9/23/23 10/24/24
f 10/25/25 13/26/26 12/27/27 11/28/28
f 15/29/29 14/30/30 16/31/31
f 18/33/33 19/34/34 20/35/35 17/36/36
f 16/37/37 21/38/38 17/39/39 20/40/40
f 21/41/41 16/42/42 14/43/43
f 14/45/45 15/46/46 22/47/47
f 22/49/49 15/50/50 24/51/51 23/52/52
f 25/53/53 26/54/54 23/55/55 24/56/56
# 14 elements

