# Created by 3DAce v2.72


g
v 0.000000 -0.090000 1.565000
v 0.076791 -0.090000 1.563115
v 0.153397 -0.090000 1.557464
v 0.229633 -0.090000 1.548061
v 0.305316 -0.090000 1.534929
v 0.380264 -0.090000 1.518099
v 0.454295 -0.090000 1.497612
v 0.527233 -0.090000 1.473516
v 0.598900 -0.090000 1.445871
v -0.598900 -0.090000 1.445871
v -0.527233 -0.090000 1.473516
v -0.454295 -0.090000 1.497612
v -0.380264 -0.090000 1.518099
v -0.305316 -0.090000 1.534929
v -0.229633 -0.090000 1.548061
v -0.153397 -0.090000 1.557464
v -0.076791 -0.090000 1.563115
v 0.344420 -0.090000 1.375000
v 0.417102 -0.090000 1.375000
v 0.273505 -0.090000 1.375000
v 0.203962 -0.090000 1.375000
v 0.569544 -0.090000 1.375000
v 0.491983 -0.090000 1.375000
v -0.491983 -0.090000 1.375000
v -0.569544 -0.090000 1.375000
v -0.067549 -0.090000 1.375000
v 0.000000 -0.090000 1.375000
v -0.135426 -0.090000 1.375000
v -0.203962 -0.090000 1.375000
v -0.273505 -0.090000 1.375000
v -0.344420 -0.090000 1.375000
v -0.417102 -0.090000 1.375000
v 0.135426 -0.090000 1.375000
v 0.067549 -0.090000 1.375000
v 0.000000 -0.070000 1.565000
v 0.076791 -0.065000 1.563115
v 0.153397 -0.050000 1.557464
v 0.229633 -0.035000 1.548061
v 0.305316 -0.030000 1.534929
v 0.380264 -0.035000 1.518099
v 0.454295 -0.050000 1.497612
v 0.527233 -0.065000 1.473516
v 0.598900 -0.070000 1.445871
v -0.598900 -0.070000 1.445871
v -0.527233 -0.065000 1.473516
v -0.454295 -0.050000 1.497612
v -0.380264 -0.035000 1.518099
v -0.305316 -0.030000 1.534929
v -0.229633 -0.035000 1.548061
v -0.153397 -0.050000 1.557464
v -0.076791 -0.065000 1.563115
v 0.000000 -0.090000 1.565000
v 0.076791 -0.090000 1.563115
v 0.153397 -0.090000 1.557464
v 0.229633 -0.090000 1.548061
v 0.305316 -0.090000 1.534929
v 0.380264 -0.090000 1.518099
v 0.454295 -0.090000 1.497612
v 0.527233 -0.090000 1.473516
v 0.598900 -0.090000 1.445871
v -0.598900 -0.090000 1.445871
v -0.527233 -0.090000 1.473516
v -0.454295 -0.090000 1.497612
v -0.380264 -0.090000 1.518099
v -0.305316 -0.090000 1.534929
v -0.229633 -0.090000 1.548061
v -0.153397 -0.090000 1.557464
v -0.076791 -0.090000 1.563115
# 68 vertices

vt 0.162626 0.961500
vt 0.160447 0.961486
vt 0.160621 0.962036
vt 0.162599 0.961976
vt 0.160447 0.961486
vt 0.158272 0.961487
vt 0.158693 0.962095
vt 0.160621 0.962036
vt 0.158272 0.961487
vt 0.156107 0.961502
vt 0.156802 0.962152
vt 0.158693 0.962095
vt 0.166977 0.961568
vt 0.164805 0.961527
vt 0.164636 0.961914
vt 0.166746 0.961850
vt 0.164805 0.961527
vt 0.162626 0.961500
vt 0.162599 0.961976
vt 0.164636 0.961914
vt 0.134409 0.962557
vt 0.135782 0.962790
vt 0.137889 0.962726
vt 0.136131 0.962398
vt 0.151256 0.962320
vt 0.149723 0.961630
vt 0.147649 0.961701
vt 0.149420 0.962376
vt 0.145611 0.961784
vt 0.147575 0.962432
vt 0.149420 0.962376
vt 0.147649 0.961701
vt 0.143615 0.961882
vt 0.145713 0.962489
vt 0.147575 0.962432
vt 0.145611 0.961784
vt 0.141664 0.961992
vt 0.143824 0.962546
vt 0.145713 0.962489
vt 0.143615 0.961882
vt 0.139763 0.962115
vt 0.141897 0.962604
vt 0.143824 0.962546
vt 0.141664 0.961992
vt 0.137917 0.962250
vt 0.139922 0.962664
vt 0.141897 0.962604
vt 0.139763 0.962115
vt 0.139922 0.962664
vt 0.137917 0.962250
vt 0.136131 0.962398
vt 0.137889 0.962726
vt 0.153957 0.961531
vt 0.151827 0.961574
vt 0.153093 0.962265
vt 0.154938 0.962209
vt 0.151827 0.961574
vt 0.149723 0.961630
vt 0.151256 0.962320
vt 0.153093 0.962265
vt 0.156802 0.962152
vt 0.156107 0.961502
vt 0.153957 0.961531
vt 0.154938 0.962209
vt 0.149723 0.961630
vt 0.151827 0.961574
vt 0.151819 0.962276
vt 0.149716 0.962192
vt 0.151827 0.961574
vt 0.153957 0.961531
vt 0.153944 0.962655
vt 0.151819 0.962276
vt 0.153957 0.961531
vt 0.156107 0.961502
vt 0.156089 0.963047
vt 0.153944 0.962655
vt 0.156107 0.961502
vt 0.158272 0.961487
vt 0.158253 0.963173
vt 0.156089 0.963047
vt 0.158272 0.961487
vt 0.160447 0.961486
vt 0.160429 0.963032
vt 0.158253 0.963173
vt 0.160447 0.961486
vt 0.162626 0.961500
vt 0.162614 0.962624
vt 0.160429 0.963032
vt 0.162626 0.961500
vt 0.164805 0.961527
vt 0.164797 0.962229
vt 0.162614 0.962624
vt 0.164805 0.961527
vt 0.166977 0.961568
vt 0.166971 0.962130
vt 0.164797 0.962229
vt 0.134409 0.962557
vt 0.136131 0.962398
vt 0.136123 0.963100
vt 0.134402 0.963119
vt 0.136131 0.962398
vt 0.137917 0.962250
vt 0.137904 0.963373
vt 0.136123 0.963100
vt 0.137917 0.962250
vt 0.139763 0.962115
vt 0.139745 0.963659
vt 0.137904 0.963373
vt 0.139763 0.962115
vt 0.141664 0.961992
vt 0.141644 0.963677
vt 0.139745 0.963659
vt 0.141664 0.961992
vt 0.143615 0.961882
vt 0.143597 0.963426
vt 0.141644 0.963677
vt 0.143615 0.961882
vt 0.145611 0.961784
vt 0.145598 0.962908
vt 0.143597 0.963426
vt 0.145611 0.961784
vt 0.147649 0.961701
vt 0.147641 0.962403
vt 0.145598 0.962908
vt 0.147649 0.961701
vt 0.149723 0.961630
vt 0.149716 0.962192
vt 0.147641 0.962403
# 128 texture vertices

vn 0.000000 -1.000000 -0.000000
vn -0.000000 -1.000000 0.000000
vn -0.000000 -1.000000 0.000000
vn 0.000000 -1.000000 -0.000000
vn -0.000000 -1.000000 0.000000
vn -0.000000 -1.000000 -0.000000
vn -0.000000 -1.000000 -0.000000
vn -0.000000 -1.000000 0.000000
vn -0.000000 -1.000000 -0.000000
vn 0.000000 -1.000000 -0.000000
vn 0.000000 -1.000000 -0.000000
vn -0.000000 -1.000000 -0.000000
vn -0.000000 -1.000000 -0.000001
vn 0.000000 -1.000000 -0.000001
vn 0.000000 -1.000000 -0.000001
vn -0.000000 -1.000000 -0.000001
vn 0.000000 -1.000000 -0.000001
vn 0.000000 -1.000000 -0.000000
vn 0.000000 -1.000000 -0.000000
vn 0.000000 -1.000000 -0.000001
vn -0.000001 -1.000000 -0.000000
vn -0.000001 -1.000000 -0.000000
vn -0.000000 -1.000000 0.000000
vn -0.000000 -1.000000 0.000000
vn 0.000000 -1.000000 0.000000
vn 0.000000 -1.000000 0.000000
vn -0.000000 -1.000000 0.000000
vn -0.000000 -1.000000 0.000000
vn -0.000000 -1.000000 0.000000
vn -0.000000 -1.000000 0.000000
vn -0.000000 -1.000000 0.000000
vn -0.000000 -1.000000 0.000000
vn -0.000000 -1.000000 0.000000
vn -0.000000 -1.000000 0.000000
vn -0.000000 -1.000000 0.000000
vn -0.000000 -1.000000 0.000000
vn -0.000000 -1.000000 0.000000
vn -0.000000 -1.000000 0.000000
vn -0.000000 -1.000000 0.000000
vn -0.000000 -1.000000 0.000000
vn -0.000000 -1.000000 -0.000000
vn -0.000000 -1.000000 -0.000000
vn -0.000000 -1.000000 0.000000
vn -0.000000 -1.000000 0.000000
vn 0.000000 -1.000000 0.000000
vn 0.000000 -1.000000 0.000000
vn -0.000000 -1.000000 -0.000000
vn -0.000000 -1.000000 -0.000000
vn 0.000000 -1.000000 0.000000
vn 0.000000 -1.000000 0.000000
vn -0.000000 -1.000000 0.000000
vn -0.000000 -1.000000 0.000000
vn 0.000000 -1.000000 -0.000000
vn 0.000001 -1.000000 0.000000
vn 0.000001 -1.000000 0.000000
vn 0.000000 -1.000000 -0.000000
vn 0.000001 -1.000000 0.000000
vn 0.000000 -1.000000 0.000000
vn 0.000000 -1.000000 0.000000
vn 0.000001 -1.000000 0.000000
vn 0.000000 -1.000000 -0.000000
vn 0.000000 -1.000000 -0.000000
vn 0.000000 -1.000000 -0.000000
vn 0.000000 -1.000000 -0.000000
vn 0.000000 0.000000 1.000000
vn 0.049067 0.000000 0.998796
vn 0.049067 0.000000 0.998796
vn 0.000000 0.000000 1.000000
vn 0.049067 0.000000 0.998796
vn 0.098018 0.000000 0.995185
vn 0.098018 0.000000 0.995185
vn 0.049067 0.000000 0.998796
vn 0.098018 0.000000 0.995185
vn 0.146731 0.000000 0.989177
vn 0.146731 0.000000 0.989177
vn 0.098018 0.000000 0.995185
vn 0.146731 0.000000 0.989177
vn 0.195090 0.000000 0.980785
vn 0.195090 0.000000 0.980785
vn 0.146731 0.000000 0.989177
vn 0.195090 0.000000 0.980785
vn 0.242980 0.000000 0.970031
vn 0.242980 0.000000 0.970031
vn 0.195090 0.000000 0.980785
vn 0.242980 0.000000 0.970031
vn 0.290285 0.000000 0.956940
vn 0.290285 0.000000 0.956940
vn 0.242980 0.000000 0.970031
vn 0.290285 0.000000 0.956940
vn 0.336891 0.000000 0.941544
vn 0.336891 0.000000 0.941544
vn 0.290285 0.000000 0.956940
vn 0.336891 0.000000 0.941544
vn 0.359895 0.000000 0.932993
vn 0.359895 0.000000 0.932993
vn 0.336891 0.000000 0.941544
vn -0.359895 0.000000 0.932993
vn -0.336891 0.000000 0.941544
vn -0.336891 0.000000 0.941544
vn -0.359895 0.000000 0.932993
vn -0.336891 0.000000 0.941544
vn -0.290285 0.000000 0.956940
vn -0.290285 0.000000 0.956940
vn -0.336891 0.000000 0.941544
vn -0.290285 0.000000 0.956940
vn -0.242980 0.000000 0.970031
vn -0.242980 0.000000 0.970031
vn -0.290285 0.000000 0.956940
vn -0.242980 0.000000 0.970031
vn -0.195090 0.000000 0.980785
vn -0.195090 0.000000 0.980785
vn -0.242980 0.000000 0.970031
vn -0.195090 0.000000 0.980785
vn -0.146731 0.000000 0.989177
vn -0.146731 0.000000 0.989177
vn -0.195090 0.000000 0.980785
vn -0.146731 0.000000 0.989177
vn -0.098018 0.000000 0.995185
vn -0.098018 0.000000 0.995185
vn -0.146731 0.000000 0.989177
vn -0.098018 0.000000 0.995185
vn -0.049067 0.000000 0.998796
vn -0.049067 0.000000 0.998796
vn -0.098018 0.000000 0.995185
vn -0.049067 0.000000 0.998796
vn 0.000000 0.000000 1.000000
vn 0.000000 0.000000 1.000000
vn -0.049067 0.000000 0.998796
# 128 vertex normals

g mat1
f 7/1/1 6/2/2 18/3/3 19/4/4
f 6/5/5 5/6/6 20/7/7 18/8/8
f 5/9/9 4/10/10 21/11/11 20/12/12
f 9/13/13 8/14/14 23/15/15 22/16/16
f 8/17/17 7/18/18 19/19/19 23/20/20
f 10/21/21 25/22/22 24/23/23 11/24/24
f 27/25/25 1/26/26 17/27/27 26/28/28
f 16/29/29 28/30/30 26/31/31 17/32/32
f 15/33/33 29/34/34 28/35/35 16/36/36
f 14/37/37 30/38/38 29/39/39 15/40/40
f 13/41/41 31/42/42 30/43/43 14/44/44
f 12/45/45 32/46/46 31/47/47 13/48/48
f 32/49/49 12/50/50 11/51/51 24/52/52
f 3/53/53 2/54/54 34/55/55 33/56/56
f 2/57/57 1/58/58 27/59/59 34/60/60
f 21/61/61 4/62/62 3/63/63 33/64/64
f 52/65/65 53/66/66 36/67/67 35/68/68
f 53/69/69 54/70/70 37/71/71 36/72/72
f 54/73/73 55/74/74 38/75/75 37/76/76
f 55/77/77 56/78/78 39/79/79 38/80/80
f 56/81/81 57/82/82 40/83/83 39/84/84
f 57/85/85 58/86/86 41/87/87 40/88/88
f 58/89/89 59/90/90 42/91/91 41/92/92
f 59/93/93 60/94/94 43/95/95 42/96/96
f 61/97/97 62/98/98 45/99/99 44/100/100
f 62/101/101 63/102/102 46/103/103 45/104/104
f 63/105/105 64/106/106 47/107/107 46/108/108
f 64/109/109 65/110/110 48/111/111 47/112/112
f 65/113/113 66/114/114 49/115/115 48/116/116
f 66/117/117 67/118/118 50/119/119 49/120/120
f 67/121/121 68/122/122 51/123/123 50/124/124
f 68/125/125 52/126/126 35/127/127 51/128/128
# 32 elements

