# Created by 3DAce v2.72


g
v 0.000000 0.100844 0.067000
v 0.005878 0.103356 0.067000
v 0.009511 0.109934 0.067000
v 0.009511 0.118065 0.067000
v 0.005878 0.124644 0.067000
v 0.000000 0.127156 0.067000
v -0.005878 0.124644 0.067000
v -0.009511 0.118065 0.067000
v -0.009511 0.109934 0.067000
v -0.005878 0.103356 0.067000
v 0.000000 0.114000 0.072000
v 0.004024 0.106714 0.072000
v 0.000000 0.104994 0.072000
v 0.006511 0.111217 0.072000
v 0.006511 0.116783 0.072000
v 0.004024 0.121286 0.072000
v 0.000000 0.123006 0.072000
v -0.004024 0.121286 0.072000
v -0.006511 0.116783 0.072000
v -0.006511 0.111217 0.072000
v -0.004024 0.106714 0.072000
v -0.009511 0.118065 0.069000
v -0.009511 0.109934 0.069000
v -0.005878 0.103356 0.069000
v 0.000000 0.100844 0.069000
v 0.005878 0.103356 0.069000
v 0.009511 0.109934 0.069000
v 0.009511 0.118065 0.069000
v 0.005878 0.124644 0.069000
v 0.000000 0.127156 0.069000
v -0.005878 0.124644 0.069000
v 0.000000 0.100844 -0.067000
v 0.005878 0.103356 -0.067000
v 0.009511 0.109934 -0.067000
v 0.009511 0.118065 -0.067000
v 0.005878 0.124644 -0.067000
v 0.000000 0.127156 -0.067000
v -0.005878 0.124644 -0.067000
v -0.009511 0.118065 -0.067000
v -0.009511 0.109934 -0.067000
v -0.005878 0.103356 -0.067000
v 0.000000 0.114000 -0.072000
v 0.004024 0.106714 -0.072000
v 0.000000 0.104994 -0.072000
v 0.006511 0.111217 -0.072000
v 0.006511 0.116783 -0.072000
v 0.004024 0.121286 -0.072000
v 0.000000 0.123006 -0.072000
v -0.004024 0.121286 -0.072000
v -0.006511 0.116783 -0.072000
v -0.006511 0.111217 -0.072000
v -0.004024 0.106714 -0.072000
v -0.009511 0.118065 -0.069000
v -0.009511 0.109934 -0.069000
v -0.005878 0.103356 -0.069000
v 0.000000 0.100844 -0.069000
v 0.005878 0.103356 -0.069000
v 0.009511 0.109934 -0.069000
v 0.009511 0.118065 -0.069000
v 0.005878 0.124644 -0.069000
v 0.000000 0.127156 -0.069000
v -0.005878 0.124644 -0.069000
# 62 vertices

vt 0.015764 0.985688
vt 0.015913 0.985729
vt 0.015912 0.986003
vt 0.015763 0.986087
vt 0.015945 0.985366
vt 0.016037 0.985509
vt 0.015913 0.985729
vt 0.015764 0.985688
vt 0.016237 0.985243
vt 0.016237 0.985425
vt 0.016037 0.985509
vt 0.015945 0.985366
vt 0.016528 0.985367
vt 0.016436 0.985510
vt 0.016237 0.985425
vt 0.016237 0.985243
vt 0.016707 0.985690
vt 0.016559 0.985731
vt 0.016436 0.985510
vt 0.016528 0.985367
vt 0.016706 0.986089
vt 0.016559 0.986004
vt 0.016559 0.985731
vt 0.016707 0.985690
vt 0.016526 0.986412
vt 0.016435 0.986226
vt 0.016559 0.986004
vt 0.016706 0.986089
vt 0.016234 0.986535
vt 0.016235 0.986310
vt 0.016435 0.986226
vt 0.016526 0.986412
vt 0.015942 0.986410
vt 0.016035 0.986225
vt 0.016235 0.986310
vt 0.016234 0.986535
vt 0.015763 0.986087
vt 0.015912 0.986003
vt 0.016035 0.986225
vt 0.015942 0.986410
vt 0.016237 0.985425
vt 0.016436 0.985510
vt 0.016236 0.985867
vt 0.016237 0.985425
vt 0.016436 0.985510
vt 0.016559 0.985731
vt 0.016236 0.985867
vt 0.016436 0.985510
vt 0.016559 0.985731
vt 0.016559 0.986004
vt 0.016236 0.985867
vt 0.016559 0.985731
vt 0.016559 0.986004
vt 0.016435 0.986226
vt 0.016236 0.985867
vt 0.016559 0.986004
vt 0.016435 0.986226
vt 0.016235 0.986310
vt 0.016236 0.985867
vt 0.016435 0.986226
vt 0.016235 0.986310
vt 0.016035 0.986225
vt 0.016236 0.985867
vt 0.016235 0.986310
vt 0.016035 0.986225
vt 0.015912 0.986003
vt 0.016236 0.985867
vt 0.016035 0.986225
vt 0.015912 0.986003
vt 0.015913 0.985729
vt 0.016236 0.985867
vt 0.015912 0.986003
vt 0.015913 0.985729
vt 0.016037 0.985509
vt 0.016236 0.985867
vt 0.015913 0.985729
vt 0.016037 0.985509
vt 0.016237 0.985425
vt 0.016236 0.985867
vt 0.016037 0.985509
vt 0.015764 0.985702
vt 0.015764 0.985688
vt 0.015763 0.986087
vt 0.015763 0.986101
vt 0.015764 0.985702
vt 0.015945 0.985380
vt 0.015945 0.985366
vt 0.015764 0.985688
vt 0.016236 0.985258
vt 0.016237 0.985243
vt 0.015945 0.985366
vt 0.015945 0.985380
vt 0.016236 0.985258
vt 0.016527 0.985382
vt 0.016528 0.985367
vt 0.016237 0.985243
vt 0.016528 0.985367
vt 0.016527 0.985382
vt 0.016706 0.985704
vt 0.016707 0.985690
vt 0.016707 0.985690
vt 0.016706 0.985704
vt 0.016706 0.986103
vt 0.016706 0.986089
vt 0.016706 0.986089
vt 0.016706 0.986103
vt 0.016525 0.986426
vt 0.016526 0.986412
vt 0.016525 0.986426
vt 0.016233 0.986548
vt 0.016234 0.986535
vt 0.016526 0.986412
vt 0.016234 0.986535
vt 0.016233 0.986548
vt 0.015942 0.986424
vt 0.015942 0.986410
vt 0.015942 0.986410
vt 0.015942 0.986424
vt 0.015763 0.986101
vt 0.015763 0.986087
vt 0.015904 0.986964
vt 0.015905 0.986706
vt 0.015765 0.986628
vt 0.015764 0.987004
vt 0.015905 0.986706
vt 0.016021 0.986499
vt 0.015936 0.986324
vt 0.015765 0.986628
vt 0.016021 0.986499
vt 0.016209 0.986420
vt 0.016210 0.986208
vt 0.015936 0.986324
vt 0.016209 0.986420
vt 0.016397 0.986500
vt 0.016484 0.986325
vt 0.016210 0.986208
vt 0.016397 0.986500
vt 0.016512 0.986708
vt 0.016653 0.986630
vt 0.016484 0.986325
vt 0.016512 0.986708
vt 0.016512 0.986965
vt 0.016653 0.987006
vt 0.016653 0.986630
vt 0.016512 0.986965
vt 0.016395 0.987173
vt 0.016482 0.987310
vt 0.016653 0.987006
vt 0.016395 0.987173
vt 0.016207 0.987252
vt 0.016207 0.987426
vt 0.016482 0.987310
vt 0.016207 0.987252
vt 0.016020 0.987172
vt 0.015933 0.987309
vt 0.016207 0.987426
vt 0.016020 0.987172
vt 0.015904 0.986964
vt 0.015764 0.987004
vt 0.015933 0.987309
vt 0.016397 0.986500
vt 0.016209 0.986420
vt 0.016208 0.986836
vt 0.016397 0.986500
vt 0.016512 0.986708
vt 0.016397 0.986500
vt 0.016208 0.986836
vt 0.016512 0.986708
vt 0.016512 0.986965
vt 0.016512 0.986708
vt 0.016208 0.986836
vt 0.016512 0.986965
vt 0.016395 0.987173
vt 0.016512 0.986965
vt 0.016208 0.986836
vt 0.016395 0.987173
vt 0.016207 0.987252
vt 0.016395 0.987173
vt 0.016208 0.986836
vt 0.016207 0.987252
vt 0.016020 0.987172
vt 0.016207 0.987252
vt 0.016208 0.986836
vt 0.016020 0.987172
vt 0.015904 0.986964
vt 0.016020 0.987172
vt 0.016208 0.986836
vt 0.015904 0.986964
vt 0.015905 0.986706
vt 0.015904 0.986964
vt 0.016208 0.986836
vt 0.015905 0.986706
vt 0.016021 0.986499
vt 0.015905 0.986706
vt 0.016208 0.986836
vt 0.016021 0.986499
vt 0.016209 0.986420
vt 0.016021 0.986499
vt 0.016208 0.986836
vt 0.016209 0.986420
vt 0.015764 0.987004
vt 0.015765 0.986628
vt 0.015765 0.986615
vt 0.015764 0.986992
vt 0.015936 0.986324
vt 0.015936 0.986311
vt 0.015765 0.986615
vt 0.015765 0.986628
vt 0.015936 0.986324
vt 0.016210 0.986208
vt 0.016211 0.986195
vt 0.015936 0.986311
vt 0.016484 0.986325
vt 0.016485 0.986312
vt 0.016211 0.986195
vt 0.016210 0.986208
vt 0.016654 0.986617
vt 0.016485 0.986312
vt 0.016484 0.986325
vt 0.016653 0.986630
vt 0.016653 0.986994
vt 0.016654 0.986617
vt 0.016653 0.986630
vt 0.016653 0.987006
vt 0.016483 0.987298
vt 0.016653 0.986994
vt 0.016653 0.987006
vt 0.016482 0.987310
vt 0.016207 0.987426
vt 0.016208 0.987414
vt 0.016483 0.987298
vt 0.016482 0.987310
vt 0.015933 0.987297
vt 0.016208 0.987414
vt 0.016207 0.987426
vt 0.015933 0.987309
vt 0.015764 0.986992
vt 0.015933 0.987297
vt 0.015933 0.987309
vt 0.015764 0.987004
# 240 texture vertices

vn -0.886943 -0.226586 0.402481
vn -0.352270 -0.088824 0.931674
vn -0.352269 0.088824 0.931674
vn -0.886943 0.226586 0.402481
vn -0.606999 -0.662870 0.438355
vn -0.224533 -0.240447 0.944336
vn -0.352270 -0.088824 0.931674
vn -0.886943 -0.226586 0.402481
vn -0.150139 -0.785357 0.600560
vn -0.000000 -0.303192 0.952929
vn -0.224533 -0.240447 0.944336
vn -0.460924 -0.680406 0.569734
vn 0.460924 -0.680406 0.569734
vn 0.224533 -0.240447 0.944336
vn -0.000000 -0.303192 0.952929
vn 0.150139 -0.785357 0.600560
vn 0.886943 -0.226586 0.402481
vn 0.352270 -0.088824 0.931674
vn 0.224533 -0.240447 0.944336
vn 0.606999 -0.662870 0.438355
vn 0.886943 0.226586 0.402481
vn 0.352270 0.088824 0.931674
vn 0.352270 -0.088824 0.931674
vn 0.886943 -0.226586 0.402481
vn 0.606999 0.662870 0.438355
vn 0.224533 0.240447 0.944336
vn 0.352270 0.088824 0.931674
vn 0.886943 0.226586 0.402481
vn 0.150139 0.785357 0.600560
vn -0.000000 0.303192 0.952930
vn 0.224533 0.240447 0.944336
vn 0.460924 0.680405 0.569735
vn -0.460924 0.680405 0.569735
vn -0.224533 0.240447 0.944336
vn -0.000000 0.303192 0.952930
vn -0.150139 0.785357 0.600560
vn -0.886943 0.226586 0.402481
vn -0.352269 0.088824 0.931674
vn -0.224533 0.240447 0.944336
vn -0.606999 0.662870 0.438355
vn -0.000000 -0.303192 0.952929
vn 0.224533 -0.240447 0.944336
vn 0.000000 0.000000 1.000000
vn -0.000000 -0.303192 0.952929
vn 0.224533 -0.240447 0.944336
vn 0.352270 -0.088824 0.931674
vn 0.000000 0.000000 1.000000
vn 0.224533 -0.240447 0.944336
vn 0.352270 -0.088824 0.931674
vn 0.352270 0.088824 0.931674
vn 0.000000 0.000000 1.000000
vn 0.352270 -0.088824 0.931674
vn 0.352270 0.088824 0.931674
vn 0.224533 0.240447 0.944336
vn 0.000000 0.000000 1.000000
vn 0.352270 0.088824 0.931674
vn 0.224533 0.240447 0.944336
vn -0.000000 0.303192 0.952930
vn 0.000000 0.000000 1.000000
vn 0.224533 0.240447 0.944336
vn -0.000000 0.303192 0.952930
vn -0.224533 0.240447 0.944336
vn 0.000000 0.000000 1.000000
vn -0.000000 0.303192 0.952930
vn -0.224533 0.240447 0.944336
vn -0.352269 0.088824 0.931674
vn 0.000000 0.000000 1.000000
vn -0.224533 0.240447 0.944336
vn -0.352269 0.088824 0.931674
vn -0.352270 -0.088824 0.931674
vn 0.000000 0.000000 1.000000
vn -0.352269 0.088824 0.931674
vn -0.352270 -0.088824 0.931674
vn -0.224533 -0.240447 0.944336
vn 0.000000 0.000000 1.000000
vn -0.352270 -0.088824 0.931674
vn -0.224533 -0.240447 0.944336
vn -0.000000 -0.303192 0.952929
vn 0.000000 0.000000 1.000000
vn -0.224533 -0.240447 0.944336
vn -0.968346 -0.249613 0.000000
vn -0.886943 -0.226586 0.402481
vn -0.886943 0.226586 0.402481
vn -0.968346 0.249613 0.000000
vn -0.968346 -0.249613 0.000000
vn -0.670663 -0.741762 0.000000
vn -0.703739 -0.654033 0.277476
vn -0.886943 -0.226586 0.402481
vn -0.000000 -1.000000 0.000000
vn -0.095491 -0.946252 0.309013
vn -0.606999 -0.662870 0.438355
vn -0.670663 -0.741762 0.000000
vn -0.000000 -1.000000 0.000000
vn 0.670663 -0.741763 0.000000
vn 0.606999 -0.662870 0.438355
vn 0.095491 -0.946252 0.309013
vn 0.703739 -0.654033 0.277475
vn 0.670663 -0.741763 0.000000
vn 0.968346 -0.249613 0.000000
vn 0.886943 -0.226586 0.402481
vn 0.886943 -0.226586 0.402481
vn 0.968346 -0.249613 0.000000
vn 0.968346 0.249613 0.000000
vn 0.886943 0.226586 0.402481
vn 0.886943 0.226586 0.402481
vn 0.968346 0.249613 0.000000
vn 0.670663 0.741763 0.000000
vn 0.703739 0.654033 0.277476
vn 0.670663 0.741763 0.000000
vn -0.000000 1.000000 0.000000
vn 0.095491 0.946252 0.309013
vn 0.606999 0.662870 0.438355
vn -0.095491 0.946252 0.309014
vn -0.000000 1.000000 0.000000
vn -0.670663 0.741762 0.000000
vn -0.606999 0.662870 0.438355
vn -0.703739 0.654033 0.277476
vn -0.670663 0.741762 0.000000
vn -0.968346 0.249613 0.000000
vn -0.886943 0.226586 0.402481
vn -0.352269 0.088824 -0.931674
vn -0.352270 -0.088824 -0.931674
vn -0.886943 -0.226586 -0.402481
vn -0.886943 0.226586 -0.402481
vn -0.352270 -0.088824 -0.931674
vn -0.224533 -0.240447 -0.944336
vn -0.606999 -0.662870 -0.438355
vn -0.886943 -0.226586 -0.402481
vn -0.224533 -0.240447 -0.944336
vn -0.000000 -0.303192 -0.952929
vn -0.150139 -0.785357 -0.600560
vn -0.460924 -0.680406 -0.569734
vn -0.000000 -0.303192 -0.952929
vn 0.224533 -0.240447 -0.944336
vn 0.460924 -0.680406 -0.569734
vn 0.150139 -0.785357 -0.600560
vn 0.224533 -0.240447 -0.944336
vn 0.352270 -0.088824 -0.931674
vn 0.886943 -0.226586 -0.402481
vn 0.606999 -0.662870 -0.438355
vn 0.352270 -0.088824 -0.931674
vn 0.352270 0.088824 -0.931674
vn 0.886943 0.226586 -0.402481
vn 0.886943 -0.226586 -0.402481
vn 0.352270 0.088824 -0.931674
vn 0.224533 0.240447 -0.944336
vn 0.606999 0.662870 -0.438355
vn 0.886943 0.226586 -0.402481
vn 0.224533 0.240447 -0.944336
vn -0.000000 0.303192 -0.952930
vn 0.150139 0.785357 -0.600560
vn 0.460924 0.680405 -0.569735
vn -0.000000 0.303192 -0.952930
vn -0.224533 0.240447 -0.944336
vn -0.460924 0.680405 -0.569735
vn -0.150139 0.785357 -0.600560
vn -0.224533 0.240447 -0.944336
vn -0.352269 0.088824 -0.931674
vn -0.886943 0.226586 -0.402481
vn -0.606999 0.662870 -0.438355
vn 0.224533 -0.240447 -0.944336
vn -0.000000 -0.303192 -0.952929
vn 0.000000 0.000000 -1.000000
vn 0.224533 -0.240447 -0.944336
vn 0.352270 -0.088824 -0.931674
vn 0.224533 -0.240447 -0.944336
vn 0.000000 0.000000 -1.000000
vn 0.352270 -0.088824 -0.931674
vn 0.352270 0.088824 -0.931674
vn 0.352270 -0.088824 -0.931674
vn 0.000000 0.000000 -1.000000
vn 0.352270 0.088824 -0.931674
vn 0.224533 0.240447 -0.944336
vn 0.352270 0.088824 -0.931674
vn 0.000000 0.000000 -1.000000
vn 0.224533 0.240447 -0.944336
vn -0.000000 0.303192 -0.952930
vn 0.224533 0.240447 -0.944336
vn 0.000000 0.000000 -1.000000
vn -0.000000 0.303192 -0.952930
vn -0.224533 0.240447 -0.944336
vn -0.000000 0.303192 -0.952930
vn 0.000000 0.000000 -1.000000
vn -0.224533 0.240447 -0.944336
vn -0.352269 0.088824 -0.931674
vn -0.224533 0.240447 -0.944336
vn 0.000000 0.000000 -1.000000
vn -0.352269 0.088824 -0.931674
vn -0.352270 -0.088824 -0.931674
vn -0.352269 0.088824 -0.931674
vn 0.000000 0.000000 -1.000000
vn -0.352270 -0.088824 -0.931674
vn -0.224533 -0.240447 -0.944336
vn -0.352270 -0.088824 -0.931674
vn 0.000000 0.000000 -1.000000
vn -0.224533 -0.240447 -0.944336
vn -0.000000 -0.303192 -0.952929
vn -0.224533 -0.240447 -0.944336
vn 0.000000 0.000000 -1.000000
vn -0.000000 -0.303192 -0.952929
vn -0.886943 0.226586 -0.402481
vn -0.886943 -0.226586 -0.402481
vn -0.968346 -0.249613 0.000000
vn -0.968346 0.249613 0.000000
vn -0.703739 -0.654033 -0.277476
vn -0.670663 -0.741762 0.000000
vn -0.968346 -0.249613 0.000000
vn -0.886943 -0.226586 -0.402481
vn -0.606999 -0.662870 -0.438355
vn -0.095491 -0.946252 -0.309013
vn -0.000000 -1.000000 0.000000
vn -0.670663 -0.741762 0.000000
vn 0.606999 -0.662870 -0.438355
vn 0.670663 -0.741763 0.000000
vn -0.000000 -1.000000 0.000000
vn 0.095491 -0.946252 -0.309013
vn 0.968346 -0.249613 0.000000
vn 0.670663 -0.741763 0.000000
vn 0.703739 -0.654033 -0.277475
vn 0.886943 -0.226586 -0.402481
vn 0.968346 0.249613 0.000000
vn 0.968346 -0.249613 0.000000
vn 0.886943 -0.226586 -0.402481
vn 0.886943 0.226586 -0.402481
vn 0.670663 0.741763 0.000000
vn 0.968346 0.249613 0.000000
vn 0.886943 0.226586 -0.402481
vn 0.703739 0.654033 -0.277476
vn 0.095491 0.946252 -0.309013
vn -0.000000 1.000000 0.000000
vn 0.670663 0.741763 0.000000
vn 0.606999 0.662870 -0.438355
vn -0.670663 0.741762 0.000000
vn -0.000000 1.000000 0.000000
vn -0.095491 0.946252 -0.309014
vn -0.606999 0.662870 -0.438355
vn -0.968346 0.249613 0.000000
vn -0.670663 0.741762 0.000000
vn -0.703739 0.654033 -0.277476
vn -0.886943 0.226586 -0.402481
# 240 vertex normals

g mat1
f 23/1/1 20/2/2 19/3/3 22/4/4
f 24/5/5 21/6/6 20/7/7 23/8/8
f 25/9/9 13/10/10 21/11/11 24/12/12
f 26/13/13 12/14/14 13/15/15 25/16/16
f 27/17/17 14/18/18 12/19/19 26/20/20
f 28/21/21 15/22/22 14/23/23 27/24/24
f 29/25/25 16/26/26 15/27/27 28/28/28
f 30/29/29 17/30/30 16/31/31 29/32/32
f 31/33/33 18/34/34 17/35/35 30/36/36
f 22/37/37 19/38/38 18/39/39 31/40/40
f 13/41/41 12/42/42 11/43/43
f 12/45/45 14/46/46 11/47/47
f 14/49/49 15/50/50 11/51/51
f 15/53/53 16/54/54 11/55/55
f 16/57/57 17/58/58 11/59/59
f 17/61/61 18/62/62 11/63/63
f 18/65/65 19/66/66 11/67/67
f 19/69/69 20/70/70 11/71/71
f 20/73/73 21/74/74 11/75/75
f 21/77/77 13/78/78 11/79/79
f 9/81/81 23/82/82 22/83/83 8/84/84
f 9/85/85 10/86/86 24/87/87 23/88/88
f 1/89/89 25/90/90 24/91/91 10/92/92
f 1/93/93 2/94/94 26/95/95 25/96/96
f 26/97/97 2/98/98 3/99/99 27/100/100
f 27/101/101 3/102/102 4/103/103 28/104/104
f 28/105/105 4/106/106 5/107/107 29/108/108
f 5/109/109 6/110/110 30/111/111 29/112/112
f 30/113/113 6/114/114 7/115/115 31/116/116
f 31/117/117 7/118/118 8/119/119 22/120/120
f 50/121/121 51/122/122 54/123/123 53/124/124
f 51/125/125 52/126/126 55/127/127 54/128/128
f 52/129/129 44/130/130 56/131/131 55/132/132
f 44/133/133 43/134/134 57/135/135 56/136/136
f 43/137/137 45/138/138 58/139/139 57/140/140
f 45/141/141 46/142/142 59/143/143 58/144/144
f 46/145/145 47/146/146 60/147/147 59/148/148
f 47/149/149 48/150/150 61/151/151 60/152/152
f 48/153/153 49/154/154 62/155/155 61/156/156
f 49/157/157 50/158/158 53/159/159 62/160/160
f 43/161/161 44/162/162 42/163/163
f 45/165/165 43/166/166 42/167/167
f 46/169/169 45/170/170 42/171/171
f 47/173/173 46/174/174 42/175/175
f 48/177/177 47/178/178 42/179/179
f 49/181/181 48/182/182 42/183/183
f 50/185/185 49/186/186 42/187/187
f 51/189/189 50/190/190 42/191/191
f 52/193/193 51/194/194 42/195/195
f 44/197/197 52/198/198 42/199/199
f 53/201/201 54/202/202 40/203/203 39/204/204
f 55/205/205 41/206/206 40/207/207 54/208/208
f 55/209/209 56/210/210 32/211/211 41/212/212
f 57/213/213 33/214/214 32/215/215 56/216/216
f 34/217/217 33/218/218 57/219/219 58/220/220
f 35/221/221 34/222/222 58/223/223 59/224/224
f 36/225/225 35/226/226 59/227/227 60/228/228
f 61/229/229 37/230/230 36/231/231 60/232/232
f 38/233/233 37/234/234 61/235/235 62/236/236
f 39/237/237 38/238/238 62/239/239 53/240/240
# 60 elements

