# Created by 3DAce v2.72


g
v -0.030719 -0.000000 0.018363
v -0.026389 0.004267 0.017582
v -0.021722 0.008117 0.015315
v -0.016618 0.011172 0.011785
v -0.010806 0.013134 0.007336
v -0.005151 0.013810 0.002405
v 0.000166 0.013134 -0.002527
v 0.004626 0.011172 -0.006976
v 0.004626 -0.011172 -0.006976
v 0.000166 -0.013134 -0.002527
v -0.005151 -0.013810 0.002405
v -0.010806 -0.013134 0.007336
v -0.016618 -0.011172 0.011785
v -0.021722 -0.008117 0.015315
v -0.026389 -0.004267 0.017582
v 0.030892 0.000000 0.018363
v 0.030892 0.004267 0.017582
v 0.030892 0.008117 0.015315
v 0.030892 0.011172 0.011785
v 0.030892 0.013134 0.007336
v 0.030892 0.013810 0.002405
v 0.030892 0.013134 -0.002527
v 0.030892 0.011172 -0.006976
v 0.030892 -0.011172 -0.006976
v 0.030892 -0.013134 -0.002527
v 0.030892 -0.013810 0.002405
v 0.030892 -0.013134 0.007336
v 0.030892 -0.011172 0.011785
v 0.030892 -0.008117 0.015315
v 0.030892 -0.004267 0.017582
v 0.021371 -0.000000 -0.026225
v 0.017190 0.000676 -0.021293
v 0.013191 0.002637 -0.016844
v 0.030892 0.000000 -0.026225
v 0.030892 0.000676 -0.021293
v 0.030892 0.002637 -0.016844
v 0.017190 -0.000676 -0.021293
v 0.013191 -0.002637 -0.016844
v 0.030892 -0.000676 -0.021293
v 0.030892 -0.002637 -0.016844
v 0.030892 0.000000 -0.037675
v 0.025952 -0.000000 -0.031633
v 0.030892 0.000000 -0.031633
# 43 vertices

vt 0.000000 0.000000
vt 0.050000 0.000000
vt 0.050000 1.000000
vt 0.000000 1.000000
vt 0.050000 0.000000
vt 0.100000 0.000000
vt 0.100000 1.000000
vt 0.050000 1.000000
vt 0.100000 0.000000
vt 0.150000 0.000000
vt 0.150000 1.000000
vt 0.100000 1.000000
vt 0.150000 0.000000
vt 0.200000 0.000000
vt 0.200000 1.000000
vt 0.150000 1.000000
vt 0.200000 0.000000
vt 0.250000 0.000000
vt 0.250000 1.000000
vt 0.200000 1.000000
vt 0.250000 0.000000
vt 0.300000 0.000000
vt 0.300000 1.000000
vt 0.250000 1.000000
vt 0.300000 0.000000
vt 0.350000 0.000000
vt 0.350000 1.000000
vt 0.300000 1.000000
vt 0.350000 0.000000
vt 0.400000 0.000000
vt 0.400000 1.000000
vt 0.350000 1.000000
vt 0.650000 0.000000
vt 0.700000 0.000000
vt 0.700000 1.000000
vt 0.650000 1.000000
vt 0.700000 0.000000
vt 0.750000 0.000000
vt 0.750000 1.000000
vt 0.700000 1.000000
vt 0.750000 0.000000
vt 0.800000 0.000000
vt 0.800000 1.000000
vt 0.750000 1.000000
vt 0.800000 0.000000
vt 0.850000 0.000000
vt 0.850000 1.000000
vt 0.800000 1.000000
vt 0.850000 0.000000
vt 0.900000 0.000000
vt 0.900000 1.000000
vt 0.850000 1.000000
vt 0.900000 0.000000
vt 0.950000 0.000000
vt 0.950000 1.000000
vt 0.900000 1.000000
vt 0.950000 0.000000
vt 1.000000 0.000000
vt 1.000000 1.000000
vt 0.950000 1.000000
vt 0.750000 1.000000
vt 0.800000 1.000000
vt 0.800000 0.000000
vt 0.750000 0.000000
vt 0.800000 1.000000
vt 0.850000 1.000000
vt 0.850000 0.000000
vt 0.800000 0.000000
vt 0.400000 1.000000
vt 0.400000 0.000000
vt 0.350000 0.000000
vt 0.350000 1.000000
vt 0.800000 0.000000
vt 0.800000 1.000000
vt 0.750000 1.000000
vt 0.750000 0.000000
vt 0.850000 0.000000
vt 0.850000 1.000000
vt 0.800000 1.000000
vt 0.800000 0.000000
vt 0.750000 1.000000
vt 0.750000 0.000000
vt 0.000000 1.000000
vt 0.750000 1.000000
vt 0.000000 1.000000
vt 0.750000 0.000000
vt 0.750000 1.000000
vt 0.000000 1.000000
vt 0.750000 1.000000
vt 0.000000 1.000000
vt 0.000000 1.000000
vt 0.750000 0.000000
vt 0.750000 0.000000
vt 0.000000 1.000000
vt 0.000000 1.000000
vt 0.750000 1.000000
vt 0.000000 1.000000
vt 0.050000 1.000000
vt 0.050000 0.000000
vt 0.000000 0.000000
vt 0.050000 1.000000
vt 0.100000 1.000000
vt 0.100000 0.000000
vt 0.050000 0.000000
vt 0.100000 1.000000
vt 0.150000 1.000000
vt 0.150000 0.000000
vt 0.100000 0.000000
vt 0.150000 1.000000
vt 0.200000 1.000000
vt 0.200000 0.000000
vt 0.150000 0.000000
vt 0.200000 1.000000
vt 0.250000 1.000000
vt 0.250000 0.000000
vt 0.200000 0.000000
vt 0.250000 1.000000
vt 0.300000 1.000000
vt 0.300000 0.000000
vt 0.250000 0.000000
vt 0.300000 1.000000
vt 0.350000 1.000000
vt 0.350000 0.000000
vt 0.300000 0.000000
vt 0.350000 1.000000
vt 0.400000 1.000000
vt 0.400000 0.000000
vt 0.350000 0.000000
vt 0.650000 1.000000
vt 0.700000 1.000000
vt 0.700000 0.000000
vt 0.650000 0.000000
vt 0.700000 1.000000
vt 0.750000 1.000000
vt 0.750000 0.000000
vt 0.700000 0.000000
vt 0.750000 1.000000
vt 0.800000 1.000000
vt 0.800000 0.000000
vt 0.750000 0.000000
vt 0.800000 1.000000
vt 0.850000 1.000000
vt 0.850000 0.000000
vt 0.800000 0.000000
vt 0.850000 1.000000
vt 0.900000 1.000000
vt 0.900000 0.000000
vt 0.850000 0.000000
vt 0.900000 1.000000
vt 0.950000 1.000000
vt 0.950000 0.000000
vt 0.900000 0.000000
vt 0.950000 1.000000
vt 1.000000 1.000000
vt 1.000000 0.000000
vt 0.950000 0.000000
vt 0.750000 0.000000
vt 0.800000 0.000000
vt 0.800000 1.000000
vt 0.750000 1.000000
vt 0.800000 0.000000
vt 0.850000 0.000000
vt 0.850000 1.000000
vt 0.800000 1.000000
vt 0.350000 1.000000
vt 0.350000 0.000000
vt 0.400000 0.000000
vt 0.400000 1.000000
vt 0.750000 0.000000
vt 0.750000 1.000000
vt 0.800000 1.000000
vt 0.800000 0.000000
vt 0.800000 0.000000
vt 0.800000 1.000000
vt 0.850000 1.000000
vt 0.850000 0.000000
# 176 texture vertices

vn 0.000000 -0.000000 1.000000
vn -0.000000 0.349085 0.937091
vn -0.000000 0.349085 0.937091
vn 0.000000 -0.000000 1.000000
vn -0.000000 0.349085 0.937091
vn -0.000000 0.640241 0.768174
vn -0.000000 0.640241 0.768174
vn -0.000000 0.349085 0.937091
vn -0.000000 0.640241 0.768174
vn -0.000000 0.844965 0.534822
vn -0.000000 0.844965 0.534822
vn -0.000000 0.640241 0.768174
vn -0.000000 0.844965 0.534822
vn -0.000000 0.962224 0.272258
vn -0.000000 0.962224 0.272258
vn -0.000000 0.844965 0.534822
vn -0.000000 0.962224 0.272258
vn -0.000000 1.000000 -0.000000
vn -0.000000 1.000000 -0.000000
vn -0.000000 0.962224 0.272258
vn -0.000000 1.000000 -0.000000
vn -0.000000 0.962224 -0.272258
vn -0.000000 0.962224 -0.272258
vn -0.000000 1.000000 -0.000000
vn -0.000000 0.962224 -0.272258
vn -0.000000 0.845044 -0.534696
vn -0.000000 0.845044 -0.534696
vn -0.000000 0.962224 -0.272258
vn -0.000000 0.845044 -0.534696
vn -0.000000 0.845045 -0.534696
vn -0.000000 0.845045 -0.534696
vn -0.000000 0.845044 -0.534696
vn 0.000000 -0.845044 -0.534696
vn 0.000000 -0.962224 -0.272258
vn 0.000000 -0.962224 -0.272258
vn 0.000000 -0.845044 -0.534696
vn 0.000000 -0.962224 -0.272258
vn 0.000000 -1.000000 0.000000
vn 0.000000 -1.000000 0.000000
vn 0.000000 -0.962224 -0.272258
vn 0.000000 -1.000000 0.000000
vn 0.000000 -0.962224 0.272258
vn 0.000000 -0.962224 0.272258
vn 0.000000 -1.000000 0.000000
vn 0.000000 -0.962224 0.272258
vn 0.000000 -0.844965 0.534822
vn 0.000000 -0.844965 0.534822
vn 0.000000 -0.962224 0.272258
vn 0.000000 -0.844965 0.534822
vn 0.000000 -0.640241 0.768174
vn 0.000000 -0.640241 0.768174
vn 0.000000 -0.844965 0.534822
vn 0.000000 -0.640241 0.768174
vn 0.000000 -0.349085 0.937091
vn 0.000000 -0.349085 0.937091
vn 0.000000 -0.640241 0.768174
vn 0.000000 -0.349085 0.937091
vn 0.000000 -0.000000 1.000000
vn 0.000000 -0.000000 1.000000
vn 0.000000 -0.349085 0.937091
vn -0.000000 1.000000 -0.000000
vn -0.000000 0.962225 -0.272256
vn -0.000000 0.962225 -0.272256
vn -0.000000 1.000000 -0.000000
vn -0.000000 0.962225 -0.272256
vn -0.000000 0.845045 -0.534696
vn -0.000000 0.845045 -0.534696
vn -0.000000 0.962225 -0.272256
vn -0.000000 -0.845045 -0.534696
vn -0.000000 -0.845045 -0.534696
vn 0.000000 -0.845044 -0.534696
vn 0.000000 -0.845044 -0.534696
vn -0.000000 -0.962225 -0.272256
vn -0.000000 -0.962225 -0.272256
vn 0.000000 -1.000000 0.000000
vn 0.000000 -1.000000 0.000000
vn -0.000000 -0.845045 -0.534696
vn -0.000000 -0.845045 -0.534696
vn -0.000000 -0.962225 -0.272256
vn -0.000000 -0.962225 -0.272256
vn -0.000000 1.000000 -0.000000
vn -0.000000 1.000000 -0.000000
vn -0.000001 1.000000 -0.000000
vn -0.000000 1.000000 -0.000000
vn 0.000001 -1.000000 0.000000
vn 0.000000 -1.000000 0.000000
vn 0.000000 -1.000000 0.000000
vn 0.000001 -1.000000 0.000000
vn -0.000000 1.000000 -0.000000
vn -0.000000 1.000000 -0.000000
vn -0.000000 1.000000 -0.000000
vn -0.000000 1.000000 -0.000000
vn 0.000000 -1.000000 0.000000
vn 0.000000 -1.000000 0.000000
vn 0.000000 -1.000000 0.000000
vn 0.000000 -1.000000 0.000000
vn 0.000000 -0.000000 -1.000000
vn 0.000000 -0.349085 -0.937091
vn 0.000000 -0.349085 -0.937091
vn 0.000000 -0.000000 -1.000000
vn 0.000000 -0.349085 -0.937091
vn 0.000000 -0.640241 -0.768174
vn 0.000000 -0.640241 -0.768174
vn 0.000000 -0.349085 -0.937091
vn 0.000000 -0.640241 -0.768174
vn 0.000000 -0.844965 -0.534822
vn 0.000000 -0.844965 -0.534822
vn 0.000000 -0.640241 -0.768174
vn 0.000000 -0.844965 -0.534822
vn 0.000000 -0.962224 -0.272258
vn 0.000000 -0.962224 -0.272258
vn 0.000000 -0.844965 -0.534822
vn 0.000000 -0.962224 -0.272258
vn 0.000000 -1.000000 0.000000
vn 0.000000 -1.000000 0.000000
vn 0.000000 -0.962224 -0.272258
vn 0.000000 -1.000000 0.000000
vn 0.000000 -0.962224 0.272258
vn 0.000000 -0.962224 0.272258
vn 0.000000 -1.000000 0.000000
vn 0.000000 -0.962224 0.272258
vn 0.000000 -0.845044 0.534696
vn 0.000000 -0.845044 0.534696
vn 0.000000 -0.962224 0.272258
vn 0.000000 -0.845044 0.534696
vn 0.000000 -0.845045 0.534696
vn 0.000000 -0.845045 0.534696
vn 0.000000 -0.845044 0.534696
vn -0.000000 0.845044 0.534696
vn -0.000000 0.962224 0.272258
vn -0.000000 0.962224 0.272258
vn -0.000000 0.845044 0.534696
vn -0.000000 0.962224 0.272258
vn -0.000000 1.000000 -0.000000
vn -0.000000 1.000000 -0.000000
vn -0.000000 0.962224 0.272258
vn -0.000000 1.000000 -0.000000
vn -0.000000 0.962224 -0.272258
vn -0.000000 0.962224 -0.272258
vn -0.000000 1.000000 -0.000000
vn -0.000000 0.962224 -0.272258
vn -0.000000 0.844965 -0.534822
vn -0.000000 0.844965 -0.534822
vn -0.000000 0.962224 -0.272258
vn -0.000000 0.844965 -0.534822
vn -0.000000 0.640241 -0.768174
vn -0.000000 0.640241 -0.768174
vn -0.000000 0.844965 -0.534822
vn -0.000000 0.640241 -0.768174
vn -0.000000 0.349085 -0.937091
vn -0.000000 0.349085 -0.937091
vn -0.000000 0.640241 -0.768174
vn -0.000000 0.349085 -0.937091
vn 0.000000 -0.000000 -1.000000
vn 0.000000 -0.000000 -1.000000
vn -0.000000 0.349085 -0.937091
vn 0.000000 -1.000000 0.000000
vn 0.000000 -0.962225 0.272256
vn 0.000000 -0.962225 0.272256
vn 0.000000 -1.000000 0.000000
vn 0.000000 -0.962225 0.272256
vn 0.000000 -0.845045 0.534696
vn 0.000000 -0.845045 0.534696
vn 0.000000 -0.962225 0.272256
vn -0.000000 0.845044 0.534696
vn -0.000000 0.845044 0.534696
vn 0.000000 0.845045 0.534696
vn 0.000000 0.845045 0.534696
vn -0.000000 1.000000 -0.000000
vn -0.000000 1.000000 -0.000000
vn 0.000000 0.962225 0.272256
vn 0.000000 0.962225 0.272256
vn 0.000000 0.962225 0.272256
vn 0.000000 0.962225 0.272256
vn 0.000000 0.845045 0.534696
vn 0.000000 0.845045 0.534696
# 176 vertex normals

g mat1
f 16/1/1 17/2/2 2/3/3 1/4/4
f 17/5/5 18/6/6 3/7/7 2/8/8
f 18/9/9 19/10/10 4/11/11 3/12/12
f 19/13/13 20/14/14 5/15/15 4/16/16
f 20/17/17 21/18/18 6/19/19 5/20/20
f 21/21/21 22/22/22 7/23/23 6/24/24
f 22/25/25 23/26/26 8/27/27 7/28/28
f 23/29/29 36/30/30 33/31/31 8/32/32
f 24/33/33 25/34/34 10/35/35 9/36/36
f 25/37/37 26/38/38 11/39/39 10/40/40
f 26/41/41 27/42/42 12/43/43 11/44/44
f 27/45/45 28/46/46 13/47/47 12/48/48
f 28/49/49 29/50/50 14/51/51 13/52/52
f 29/53/53 30/54/54 15/55/55 14/56/56
f 30/57/57 16/58/58 1/59/59 15/60/60
f 31/61/61 32/62/62 35/63/63 34/64/64
f 32/65/65 33/66/66 36/67/67 35/68/68
f 38/69/69 40/70/70 24/71/71 9/72/72
f 39/73/73 37/74/74 31/75/75 34/76/76
f 40/77/77 38/78/78 37/79/79 39/80/80
f 42/81/81 43/82/82 41/83/83
f 41/85/85 43/86/86 42/87/87
f 42/89/89 31/90/90 34/91/91 43/92/92
f 43/93/93 34/94/94 31/95/95 42/96/96
f 1/97/97 2/98/98 17/99/99 16/100/100
f 2/101/101 3/102/102 18/103/103 17/104/104
f 3/105/105 4/106/106 19/107/107 18/108/108
f 4/109/109 5/110/110 20/111/111 19/112/112
f 5/113/113 6/114/114 21/115/115 20/116/116
f 6/117/117 7/118/118 22/119/119 21/120/120
f 7/121/121 8/122/122 23/123/123 22/124/124
f 8/125/125 33/126/126 36/127/127 23/128/128
f 9/129/129 10/130/130 25/131/131 24/132/132
f 10/133/133 11/134/134 26/135/135 25/136/136
f 11/137/137 12/138/138 27/139/139 26/140/140
f 12/141/141 13/142/142 28/143/143 27/144/144
f 13/145/145 14/146/146 29/147/147 28/148/148
f 14/149/149 15/150/150 30/151/151 29/152/152
f 15/153/153 1/154/154 16/155/155 30/156/156
f 34/157/157 35/158/158 32/159/159 31/160/160
f 35/161/161 36/162/162 33/163/163 32/164/164
f 9/165/165 24/166/166 40/167/167 38/168/168
f 34/169/169 31/170/170 37/171/171 39/172/172
f 39/173/173 37/174/174 38/175/175 40/176/176
# 44 elements

