# Created by 3DAce v2.72


g
v 0.000000 0.445159 -0.000000
v 0.000000 0.445159 0.040396
v 0.020198 0.445159 0.034984
v 0.034984 0.445159 0.020198
v 0.040396 0.445159 -0.000000
v 0.034984 0.445159 -0.020198
v 0.020198 0.445159 -0.034984
v 0.000000 0.445159 -0.040396
v -0.020198 0.445159 -0.034984
v -0.034984 0.445159 -0.020198
v -0.040396 0.445159 -0.000000
v -0.034984 0.445159 0.020198
v -0.020198 0.445159 0.034984
v 0.000000 0.199625 0.040396
v 0.020198 0.199625 0.034984
v 0.034984 0.199625 0.020198
v 0.040396 0.199625 -0.000000
v 0.034984 0.199625 -0.020198
v 0.020198 0.199625 -0.034984
v 0.000000 0.199625 -0.040396
v -0.020198 0.199625 -0.034984
v -0.034984 0.199625 -0.020198
v -0.040396 0.199625 -0.000000
v -0.034984 0.199625 0.020198
v -0.020198 0.199625 0.034984
v 0.000000 0.199625 -0.000000
# 26 vertices

vt 0.000000 0.000000
vt 0.083333 0.000000
vt 0.083333 1.000000
vt 0.000000 1.000000
vt 0.083333 0.000000
vt 0.166667 0.000000
vt 0.166667 1.000000
vt 0.083333 1.000000
vt 0.166667 0.000000
vt 0.250000 0.000000
vt 0.250000 1.000000
vt 0.166667 1.000000
vt 0.250000 0.000000
vt 0.333333 0.000000
vt 0.333333 1.000000
vt 0.250000 1.000000
vt 0.333333 0.000000
vt 0.416667 0.000000
vt 0.416667 1.000000
vt 0.333333 1.000000
vt 0.416667 0.000000
vt 0.500000 0.000000
vt 0.500000 1.000000
vt 0.416667 1.000000
vt 0.500000 0.000000
vt 0.583333 0.000000
vt 0.583333 1.000000
vt 0.500000 1.000000
vt 0.583333 0.000000
vt 0.666667 0.000000
vt 0.666667 1.000000
vt 0.583333 1.000000
vt 0.666667 0.000000
vt 0.750000 0.000000
vt 0.750000 1.000000
vt 0.666667 1.000000
vt 0.750000 0.000000
vt 0.833333 0.000000
vt 0.833333 1.000000
vt 0.750000 1.000000
vt 0.833333 0.000000
vt 0.916667 0.000000
vt 0.916667 1.000000
vt 0.833333 1.000000
vt 0.916667 0.000000
vt 1.000000 0.000000
vt 1.000000 1.000000
vt 0.916667 1.000000
vt 0.000000 1.000000
vt 0.083333 1.000000
vt 0.041667 1.000000
vt 0.000000 1.000000
vt 0.083333 1.000000
vt 0.166667 1.000000
vt 0.125000 1.000000
vt 0.083333 1.000000
vt 0.166667 1.000000
vt 0.250000 1.000000
vt 0.208333 1.000000
vt 0.166667 1.000000
vt 0.250000 1.000000
vt 0.333333 1.000000
vt 0.291667 1.000000
vt 0.250000 1.000000
vt 0.333333 1.000000
vt 0.416667 1.000000
vt 0.375000 1.000000
vt 0.333333 1.000000
vt 0.416667 1.000000
vt 0.500000 1.000000
vt 0.458333 1.000000
vt 0.416667 1.000000
vt 0.500000 1.000000
vt 0.583333 1.000000
vt 0.541667 1.000000
vt 0.500000 1.000000
vt 0.583333 1.000000
vt 0.666667 1.000000
vt 0.625000 1.000000
vt 0.583333 1.000000
vt 0.666667 1.000000
vt 0.750000 1.000000
vt 0.708333 1.000000
vt 0.666667 1.000000
vt 0.750000 1.000000
vt 0.833333 1.000000
vt 0.791667 1.000000
vt 0.750000 1.000000
vt 0.833333 1.000000
vt 0.916667 1.000000
vt 0.875000 1.000000
vt 0.833333 1.000000
vt 0.916667 1.000000
vt 1.000000 1.000000
vt 0.958333 1.000000
vt 0.916667 1.000000
vt 0.083333 0.000000
vt 0.000000 0.000000
vt 0.041667 0.000000
vt 0.083333 0.000000
vt 0.166667 0.000000
vt 0.083333 0.000000
vt 0.125000 0.000000
vt 0.166667 0.000000
vt 0.250000 0.000000
vt 0.166667 0.000000
vt 0.208333 0.000000
vt 0.250000 0.000000
vt 0.333333 0.000000
vt 0.250000 0.000000
vt 0.291667 0.000000
vt 0.333333 0.000000
vt 0.416667 0.000000
vt 0.333333 0.000000
vt 0.375000 0.000000
vt 0.416667 0.000000
vt 0.500000 0.000000
vt 0.416667 0.000000
vt 0.458333 0.000000
vt 0.500000 0.000000
vt 0.583333 0.000000
vt 0.500000 0.000000
vt 0.541667 0.000000
vt 0.583333 0.000000
vt 0.666667 0.000000
vt 0.583333 0.000000
vt 0.625000 0.000000
vt 0.666667 0.000000
vt 0.750000 0.000000
vt 0.666667 0.000000
vt 0.708333 0.000000
vt 0.750000 0.000000
vt 0.833333 0.000000
vt 0.750000 0.000000
vt 0.791667 0.000000
vt 0.833333 0.000000
vt 0.916667 0.000000
vt 0.833333 0.000000
vt 0.875000 0.000000
vt 0.916667 0.000000
vt 1.000000 0.000000
vt 0.916667 0.000000
vt 0.958333 0.000000
vt 1.000000 0.000000
# 144 texture vertices

vn -0.000000 0.000000 1.000000
vn 0.500001 -0.000000 0.866025
vn 0.500001 -0.000000 0.866025
vn -0.000000 0.000000 1.000000
vn 0.500001 -0.000000 0.866025
vn 0.866026 -0.000000 0.500000
vn 0.866026 -0.000000 0.500000
vn 0.500001 -0.000000 0.866025
vn 0.866026 -0.000000 0.500000
vn 1.000000 0.000000 0.000000
vn 1.000000 0.000000 0.000000
vn 0.866026 -0.000000 0.500000
vn 1.000000 0.000000 0.000000
vn 0.866025 0.000000 -0.500001
vn 0.866025 0.000000 -0.500001
vn 1.000000 0.000000 0.000000
vn 0.866025 0.000000 -0.500001
vn 0.500000 0.000000 -0.866026
vn 0.500000 0.000000 -0.866026
vn 0.866025 0.000000 -0.500001
vn 0.500000 0.000000 -0.866026
vn -0.000000 0.000000 -1.000000
vn -0.000000 0.000000 -1.000000
vn 0.500000 0.000000 -0.866026
vn -0.000000 0.000000 -1.000000
vn -0.500001 0.000000 -0.866025
vn -0.500001 0.000000 -0.866025
vn -0.000000 0.000000 -1.000000
vn -0.500001 0.000000 -0.866025
vn -0.866025 -0.000000 -0.500000
vn -0.866025 -0.000000 -0.500000
vn -0.500001 0.000000 -0.866025
vn -0.866025 -0.000000 -0.500000
vn -1.000000 -0.000001 0.000000
vn -1.000000 -0.000001 0.000000
vn -0.866025 -0.000000 -0.500000
vn -1.000000 -0.000001 0.000000
vn -0.866026 -0.000000 0.499999
vn -0.866026 -0.000000 0.499999
vn -1.000000 -0.000001 0.000000
vn -0.866026 -0.000000 0.499999
vn -0.500002 -0.000000 0.866024
vn -0.500002 -0.000000 0.866024
vn -0.866026 -0.000000 0.499999
vn -0.500002 -0.000000 0.866024
vn -0.000000 0.000000 1.000000
vn -0.000000 0.000000 1.000000
vn -0.500002 -0.000000 0.866024
vn 0.000000 1.000000 -0.000000
vn 0.000000 1.000000 -0.000000
vn 0.000000 1.000000 0.000000
vn 0.000000 1.000000 -0.000000
vn 0.000000 1.000000 -0.000000
vn 0.000000 1.000000 -0.000000
vn 0.000000 1.000000 0.000000
vn 0.000000 1.000000 -0.000000
vn 0.000000 1.000000 -0.000000
vn 0.000000 1.000000 0.000000
vn 0.000000 1.000000 0.000000
vn 0.000000 1.000000 -0.000000
vn 0.000000 1.000000 0.000000
vn -0.000000 1.000000 0.000000
vn 0.000000 1.000000 0.000000
vn 0.000000 1.000000 0.000000
vn -0.000000 1.000000 0.000000
vn -0.000000 1.000000 0.000000
vn 0.000000 1.000000 0.000000
vn -0.000000 1.000000 0.000000
vn -0.000000 1.000000 0.000000
vn 0.000000 1.000000 0.000000
vn 0.000000 1.000000 0.000000
vn -0.000000 1.000000 0.000000
vn 0.000000 1.000000 0.000000
vn 0.000000 1.000000 0.000000
vn 0.000000 1.000000 0.000000
vn 0.000000 1.000000 0.000000
vn 0.000000 1.000000 0.000000
vn 0.000000 1.000000 0.000000
vn 0.000000 1.000000 0.000000
vn 0.000000 1.000000 0.000000
vn 0.000000 1.000000 0.000000
vn 0.000000 1.000000 0.000000
vn 0.000000 1.000000 0.000000
vn 0.000000 1.000000 0.000000
vn 0.000000 1.000000 0.000000
vn 0.000000 1.000000 0.000000
vn 0.000000 1.000000 0.000000
vn 0.000000 1.000000 0.000000
vn 0.000000 1.000000 0.000000
vn 0.000000 1.000000 0.000000
vn 0.000000 1.000000 0.000000
vn 0.000000 1.000000 0.000000
vn 0.000000 1.000000 0.000000
vn 0.000000 1.000000 -0.000000
vn 0.000000 1.000000 0.000000
vn 0.000000 1.000000 0.000000
vn 0.000000 -1.000000 0.000000
vn 0.000000 -1.000000 0.000000
vn 0.000000 -1.000000 0.000000
vn 0.000000 -1.000000 0.000000
vn 0.000000 -1.000000 0.000000
vn 0.000000 -1.000000 0.000000
vn 0.000000 -1.000000 0.000000
vn 0.000000 -1.000000 0.000000
vn 0.000000 -1.000000 0.000000
vn 0.000000 -1.000000 0.000000
vn 0.000000 -1.000000 0.000000
vn 0.000000 -1.000000 0.000000
vn 0.000000 -1.000000 -0.000000
vn 0.000000 -1.000000 0.000000
vn 0.000000 -1.000000 0.000000
vn 0.000000 -1.000000 -0.000000
vn 0.000000 -1.000000 -0.000000
vn 0.000000 -1.000000 -0.000000
vn 0.000000 -1.000000 0.000000
vn 0.000000 -1.000000 -0.000000
vn 0.000000 -1.000000 -0.000000
vn 0.000000 -1.000000 -0.000000
vn 0.000000 -1.000000 0.000000
vn 0.000000 -1.000000 -0.000000
vn -0.000000 -1.000000 0.000000
vn 0.000000 -1.000000 -0.000000
vn 0.000000 -1.000000 0.000000
vn -0.000000 -1.000000 0.000000
vn -0.000000 -1.000000 0.000000
vn -0.000000 -1.000000 0.000000
vn 0.000000 -1.000000 0.000000
vn -0.000000 -1.000000 0.000000
vn 0.000000 -1.000000 0.000000
vn -0.000000 -1.000000 0.000000
vn 0.000000 -1.000000 0.000000
vn 0.000000 -1.000000 0.000000
vn 0.000000 -1.000000 0.000000
vn 0.000000 -1.000000 0.000000
vn 0.000000 -1.000000 0.000000
vn 0.000000 -1.000000 0.000000
vn 0.000000 -1.000000 0.000000
vn 0.000000 -1.000000 0.000000
vn 0.000000 -1.000000 0.000000
vn 0.000000 -1.000000 0.000000
vn 0.000000 -1.000000 0.000000
vn 0.000000 -1.000000 0.000000
vn 0.000000 -1.000000 0.000000
vn 0.000000 -1.000000 0.000000
# 144 vertex normals

g mat1
f 14/1/1 15/2/2 3/3/3 2/4/4
f 15/5/5 16/6/6 4/7/7 3/8/8
f 16/9/9 17/10/10 5/11/11 4/12/12
f 17/13/13 18/14/14 6/15/15 5/16/16
f 18/17/17 19/18/18 7/19/19 6/20/20
f 19/21/21 20/22/22 8/23/23 7/24/24
f 20/25/25 21/26/26 9/27/27 8/28/28
f 21/29/29 22/30/30 10/31/31 9/32/32
f 22/33/33 23/34/34 11/35/35 10/36/36
f 23/37/37 24/38/38 12/39/39 11/40/40
f 24/41/41 25/42/42 13/43/43 12/44/44
f 25/45/45 14/46/46 2/47/47 13/48/48
f 2/49/49 3/50/50 1/51/51
f 3/53/53 4/54/54 1/55/55
f 4/57/57 5/58/58 1/59/59
f 5/61/61 6/62/62 1/63/63
f 6/65/65 7/66/66 1/67/67
f 7/69/69 8/70/70 1/71/71
f 8/73/73 9/74/74 1/75/75
f 9/77/77 10/78/78 1/79/79
f 10/81/81 11/82/82 1/83/83
f 11/85/85 12/86/86 1/87/87
f 12/89/89 13/90/90 1/91/91
f 13/93/93 2/94/94 1/95/95
f 15/97/97 14/98/98 26/99/99
f 16/101/101 15/102/102 26/103/103
f 17/105/105 16/106/106 26/107/107
f 18/109/109 17/110/110 26/111/111
f 19/113/113 18/114/114 26/115/115
f 20/117/117 19/118/118 26/119/119
f 21/121/121 20/122/122 26/123/123
f 22/125/125 21/126/126 26/127/127
f 23/129/129 22/130/130 26/131/131
f 24/133/133 23/134/134 26/135/135
f 25/137/137 24/138/138 26/139/139
f 14/141/141 25/142/142 26/143/143
# 36 elements

