# Created by 3DAce v2.72


g
v -0.002500 0.100000 -0.015000
v -0.002500 0.080000 -0.015000
v 0.002500 0.100000 -0.015000
v 0.002500 0.080000 -0.015000
v 0.002500 0.080000 -0.075000
v -0.002500 0.080000 -0.075000
v 0.000000 0.084696 -0.069824
v 0.000000 0.083828 -0.064900
v 0.002500 0.083944 -0.065560
v 0.004330 0.084262 -0.067362
v 0.005000 0.084696 -0.069824
v 0.004330 0.085130 -0.072286
v 0.002500 0.085448 -0.074088
v 0.000000 0.085564 -0.074748
v -0.002500 0.085448 -0.074088
v -0.004330 0.085130 -0.072286
v -0.005000 0.084696 -0.069824
v -0.004330 0.084262 -0.067362
v -0.002500 0.083944 -0.065560
v 0.000000 0.044436 -0.071846
v 0.002500 0.044552 -0.072506
v 0.004330 0.044870 -0.074308
v 0.005000 0.045304 -0.076770
v 0.004330 0.045738 -0.079232
v 0.002500 0.046056 -0.081034
v 0.000000 0.046172 -0.081694
v -0.002500 0.046056 -0.081034
v -0.004330 0.045738 -0.079232
v -0.005000 0.045304 -0.076770
v -0.004330 0.044870 -0.074308
v -0.002500 0.044552 -0.072506
v 0.000000 0.045304 -0.076770
v 0.002500 0.090000 -0.075000
v -0.002500 0.090000 -0.075000
v -0.002500 0.100000 -0.065000
v 0.002500 0.100000 -0.065000
v -0.002500 0.097071 -0.072071
v 0.002500 0.097071 -0.072071
# 38 vertices

vt 0.000000 0.000000
vt 1.000000 0.000000
vt 1.000000 1.000000
vt 0.000000 1.000000
vt 0.000000 0.000000
vt 1.000000 0.000000
vt 1.000000 1.000000
vt 0.000000 1.000000
vt 0.000000 0.000000
vt 0.083333 0.000000
vt 0.083333 1.000000
vt 0.000000 1.000000
vt 0.083333 0.000000
vt 0.166667 0.000000
vt 0.166667 1.000000
vt 0.083333 1.000000
vt 0.166667 0.000000
vt 0.250000 0.000000
vt 0.250000 1.000000
vt 0.166667 1.000000
vt 0.250000 0.000000
vt 0.333333 0.000000
vt 0.333333 1.000000
vt 0.250000 1.000000
vt 0.333333 0.000000
vt 0.416667 0.000000
vt 0.416667 1.000000
vt 0.333333 1.000000
vt 0.416667 0.000000
vt 0.500000 0.000000
vt 0.500000 1.000000
vt 0.416667 1.000000
vt 0.500000 0.000000
vt 0.583333 0.000000
vt 0.583333 1.000000
vt 0.500000 1.000000
vt 0.583333 0.000000
vt 0.666667 0.000000
vt 0.666667 1.000000
vt 0.583333 1.000000
vt 0.666667 0.000000
vt 0.750000 0.000000
vt 0.750000 1.000000
vt 0.666667 1.000000
vt 0.750000 0.000000
vt 0.833333 0.000000
vt 0.833333 1.000000
vt 0.750000 1.000000
vt 0.833333 0.000000
vt 0.916667 0.000000
vt 0.916667 1.000000
vt 0.833333 1.000000
vt 0.916667 0.000000
vt 1.000000 0.000000
vt 1.000000 1.000000
vt 0.916667 1.000000
vt 0.000000 1.000000
vt 0.083333 1.000000
vt 0.041667 1.000000
vt 0.000000 1.000000
vt 0.083333 1.000000
vt 0.166667 1.000000
vt 0.125000 1.000000
vt 0.083333 1.000000
vt 0.166667 1.000000
vt 0.250000 1.000000
vt 0.208333 1.000000
vt 0.166667 1.000000
vt 0.250000 1.000000
vt 0.333333 1.000000
vt 0.291667 1.000000
vt 0.250000 1.000000
vt 0.333333 1.000000
vt 0.416667 1.000000
vt 0.375000 1.000000
vt 0.333333 1.000000
vt 0.416667 1.000000
vt 0.500000 1.000000
vt 0.458333 1.000000
vt 0.416667 1.000000
vt 0.500000 1.000000
vt 0.583333 1.000000
vt 0.541667 1.000000
vt 0.500000 1.000000
vt 0.583333 1.000000
vt 0.666667 1.000000
vt 0.625000 1.000000
vt 0.583333 1.000000
vt 0.666667 1.000000
vt 0.750000 1.000000
vt 0.708333 1.000000
vt 0.666667 1.000000
vt 0.750000 1.000000
vt 0.833333 1.000000
vt 0.791667 1.000000
vt 0.750000 1.000000
vt 0.833333 1.000000
vt 0.916667 1.000000
vt 0.875000 1.000000
vt 0.833333 1.000000
vt 0.916667 1.000000
vt 1.000000 1.000000
vt 0.958333 1.000000
vt 0.916667 1.000000
vt 0.083333 0.000000
vt 0.000000 0.000000
vt 0.041667 0.000000
vt 0.083333 0.000000
vt 0.166667 0.000000
vt 0.083333 0.000000
vt 0.125000 0.000000
vt 0.166667 0.000000
vt 0.250000 0.000000
vt 0.166667 0.000000
vt 0.208333 0.000000
vt 0.250000 0.000000
vt 0.333333 0.000000
vt 0.250000 0.000000
vt 0.291667 0.000000
vt 0.333333 0.000000
vt 0.416667 0.000000
vt 0.333333 0.000000
vt 0.375000 0.000000
vt 0.416667 0.000000
vt 0.500000 0.000000
vt 0.416667 0.000000
vt 0.458333 0.000000
vt 0.500000 0.000000
vt 0.583333 0.000000
vt 0.500000 0.000000
vt 0.541667 0.000000
vt 0.583333 0.000000
vt 0.666667 0.000000
vt 0.583333 0.000000
vt 0.625000 0.000000
vt 0.666667 0.000000
vt 0.750000 0.000000
vt 0.666667 0.000000
vt 0.708333 0.000000
vt 0.750000 0.000000
vt 0.833333 0.000000
vt 0.750000 0.000000
vt 0.791667 0.000000
vt 0.833333 0.000000
vt 0.916667 0.000000
vt 0.833333 0.000000
vt 0.875000 0.000000
vt 0.916667 0.000000
vt 1.000000 0.000000
vt 0.916667 0.000000
vt 0.958333 0.000000
vt 1.000000 0.000000
vt 1.000000 0.833333
vt 0.500000 0.666667
vt 0.500000 0.666667
vt 0.000000 0.833333
vt 0.500000 0.666667
vt 0.000000 0.500000
vt 1.000000 0.500000
vt 0.500000 0.666667
vt 0.000000 0.000000
vt 1.000000 0.000000
vt 1.000000 0.500000
vt 0.000000 0.500000
vt 0.000000 0.000000
vt 1.000000 0.000000
vt 1.000000 0.833333
vt 0.000000 0.833333
vt 1.000000 0.000000
vt 0.000000 0.500000
vt 0.500000 0.666667
vt 1.000000 0.833333
vt 1.000000 1.000000
vt 1.000000 0.000000
vt 1.000000 0.000000
vt 1.000000 0.833333
vt 0.000000 0.833333
vt 0.500000 0.666667
vt 1.000000 0.500000
vt 0.000000 0.000000
vt 0.000000 0.000000
vt 0.000000 1.000000
vt 0.000000 0.833333
vt 0.000000 0.000000
# 184 texture vertices

vn -0.000000 0.000000 1.000000
vn -0.000000 0.000000 1.000000
vn -0.000000 0.000000 1.000000
vn -0.000000 0.000000 1.000000
vn 0.000000 -1.000000 0.000000
vn 0.000000 -1.000000 0.000000
vn 0.000000 -1.000000 0.000000
vn 0.000000 -1.000000 0.000000
vn 0.000000 -0.173648 0.984808
vn 0.500000 -0.150384 0.852868
vn 0.500000 -0.150384 0.852868
vn 0.000000 -0.173648 0.984808
vn 0.500000 -0.150384 0.852868
vn 0.866026 -0.086824 0.492404
vn 0.866026 -0.086824 0.492404
vn 0.500000 -0.150384 0.852868
vn 0.866026 -0.086824 0.492404
vn 1.000000 -0.000000 0.000000
vn 1.000000 -0.000000 0.000000
vn 0.866026 -0.086824 0.492404
vn 1.000000 -0.000000 0.000000
vn 0.866026 0.086824 -0.492403
vn 0.866026 0.086824 -0.492403
vn 1.000000 -0.000000 0.000000
vn 0.866026 0.086824 -0.492403
vn 0.500000 0.150384 -0.852868
vn 0.500000 0.150384 -0.852868
vn 0.866026 0.086824 -0.492403
vn 0.500000 0.150384 -0.852868
vn 0.000000 0.173648 -0.984808
vn 0.000000 0.173648 -0.984808
vn 0.500000 0.150384 -0.852868
vn 0.000000 0.173648 -0.984808
vn -0.500000 0.150384 -0.852868
vn -0.500000 0.150384 -0.852868
vn 0.000000 0.173648 -0.984808
vn -0.500000 0.150384 -0.852868
vn -0.866026 0.086824 -0.492403
vn -0.866026 0.086824 -0.492403
vn -0.500000 0.150384 -0.852868
vn -0.866026 0.086824 -0.492403
vn -1.000000 -0.000000 0.000000
vn -1.000000 -0.000000 0.000000
vn -0.866026 0.086824 -0.492403
vn -1.000000 -0.000000 0.000000
vn -0.866026 -0.086824 0.492404
vn -0.866026 -0.086824 0.492404
vn -1.000000 -0.000000 0.000000
vn -0.866026 -0.086824 0.492404
vn -0.500000 -0.150384 0.852868
vn -0.500000 -0.150384 0.852868
vn -0.866026 -0.086824 0.492404
vn -0.500000 -0.150384 0.852868
vn 0.000000 -0.173648 0.984808
vn 0.000000 -0.173648 0.984808
vn -0.500000 -0.150384 0.852868
vn 0.000000 0.984808 0.173649
vn 0.000002 0.984808 0.173649
vn 0.000000 0.984808 0.173648
vn 0.000000 0.984808 0.173649
vn 0.000002 0.984808 0.173649
vn 0.000001 0.984807 0.173651
vn 0.000000 0.984808 0.173648
vn 0.000002 0.984808 0.173649
vn 0.000001 0.984807 0.173651
vn 0.000000 0.984808 0.173648
vn 0.000000 0.984808 0.173648
vn 0.000001 0.984807 0.173651
vn 0.000000 0.984808 0.173648
vn 0.000001 0.984808 0.173646
vn 0.000000 0.984808 0.173648
vn 0.000000 0.984808 0.173648
vn 0.000001 0.984808 0.173646
vn 0.000001 0.984808 0.173647
vn 0.000000 0.984808 0.173648
vn 0.000001 0.984808 0.173646
vn 0.000001 0.984808 0.173647
vn 0.000000 0.984808 0.173646
vn 0.000000 0.984808 0.173648
vn 0.000001 0.984808 0.173647
vn 0.000000 0.984808 0.173646
vn -0.000001 0.984808 0.173647
vn 0.000000 0.984808 0.173648
vn 0.000000 0.984808 0.173646
vn -0.000001 0.984808 0.173647
vn -0.000001 0.984808 0.173646
vn 0.000000 0.984808 0.173648
vn -0.000001 0.984808 0.173647
vn -0.000001 0.984808 0.173646
vn 0.000000 0.984808 0.173648
vn 0.000000 0.984808 0.173648
vn -0.000001 0.984808 0.173646
vn 0.000000 0.984808 0.173648
vn -0.000001 0.984807 0.173651
vn 0.000000 0.984808 0.173648
vn 0.000000 0.984808 0.173648
vn -0.000001 0.984807 0.173651
vn -0.000002 0.984808 0.173649
vn -0.000000 0.984808 0.173648
vn -0.000001 0.984807 0.173651
vn -0.000002 0.984808 0.173649
vn 0.000000 0.984808 0.173649
vn -0.000000 0.984808 0.173648
vn -0.000002 0.984808 0.173649
vn -0.000001 -0.984808 -0.173647
vn 0.000000 -0.984808 -0.173647
vn 0.000000 -0.984808 -0.173648
vn -0.000001 -0.984808 -0.173647
vn -0.000000 -0.984808 -0.173647
vn -0.000001 -0.984808 -0.173647
vn 0.000000 -0.984808 -0.173648
vn -0.000000 -0.984808 -0.173647
vn 0.000000 -0.984808 -0.173648
vn -0.000000 -0.984808 -0.173647
vn 0.000000 -0.984808 -0.173648
vn 0.000000 -0.984808 -0.173648
vn -0.000000 -0.984808 -0.173649
vn 0.000000 -0.984808 -0.173648
vn 0.000000 -0.984808 -0.173648
vn -0.000000 -0.984808 -0.173649
vn 0.000001 -0.984808 -0.173649
vn -0.000000 -0.984808 -0.173649
vn 0.000000 -0.984808 -0.173648
vn 0.000001 -0.984808 -0.173649
vn 0.000000 -0.984808 -0.173648
vn 0.000001 -0.984808 -0.173649
vn 0.000000 -0.984808 -0.173648
vn 0.000000 -0.984808 -0.173648
vn -0.000001 -0.984808 -0.173649
vn 0.000000 -0.984808 -0.173648
vn 0.000000 -0.984808 -0.173648
vn -0.000001 -0.984808 -0.173649
vn 0.000000 -0.984808 -0.173649
vn -0.000001 -0.984808 -0.173649
vn 0.000000 -0.984808 -0.173648
vn 0.000000 -0.984808 -0.173649
vn 0.000000 -0.984808 -0.173648
vn 0.000000 -0.984808 -0.173649
vn 0.000000 -0.984808 -0.173648
vn 0.000000 -0.984808 -0.173648
vn 0.000000 -0.984808 -0.173647
vn 0.000000 -0.984808 -0.173648
vn 0.000000 -0.984808 -0.173648
vn 0.000000 -0.984808 -0.173647
vn 0.000001 -0.984808 -0.173647
vn 0.000000 -0.984808 -0.173647
vn -0.000000 -0.984808 -0.173648
vn 0.000001 -0.984808 -0.173647
vn 0.000000 -0.984808 -0.173647
vn 0.000001 -0.984808 -0.173647
vn 0.000000 -0.984808 -0.173648
vn 0.000000 -0.984808 -0.173647
vn 0.000000 0.980785 -0.195090
vn 0.000000 0.707107 -0.707107
vn 0.000000 0.707107 -0.707107
vn 0.000000 0.980785 -0.195090
vn 0.000000 0.707107 -0.707107
vn 0.000000 0.195090 -0.980785
vn 0.000000 0.195090 -0.980785
vn 0.000000 0.707107 -0.707107
vn -0.000000 0.000000 -1.000000
vn -0.000000 0.000000 -1.000000
vn 0.000000 0.195090 -0.980785
vn 0.000000 0.195090 -0.980785
vn 0.000000 1.000000 0.000000
vn 0.000000 1.000000 0.000000
vn 0.000000 0.980785 -0.195090
vn 0.000000 0.980785 -0.195090
vn 1.000000 0.000000 0.000000
vn 1.000000 0.000000 0.000000
vn 1.000000 0.000000 0.000000
vn 1.000000 0.000000 0.000000
vn 1.000000 0.000000 0.000000
vn 1.000000 0.000000 0.000000
vn 1.000000 0.000000 0.000000
vn 1.000000 0.000000 0.000000
vn -1.000000 0.000000 0.000000
vn -1.000000 0.000000 0.000000
vn -1.000000 0.000000 0.000000
vn -1.000000 0.000000 0.000000
vn -1.000000 0.000000 0.000000
vn -1.000000 0.000000 0.000000
vn -1.000000 0.000000 0.000000
vn -1.000000 0.000000 0.000000
# 184 vertex normals

g mat1
f 2/1/1 4/2/2 3/3/3 1/4/4
f 6/5/5 5/6/6 4/7/7 2/8/8
f 20/9/9 21/10/10 9/11/11 8/12/12
f 21/13/13 22/14/14 10/15/15 9/16/16
f 22/17/17 23/18/18 11/19/19 10/20/20
f 23/21/21 24/22/22 12/23/23 11/24/24
f 24/25/25 25/26/26 13/27/27 12/28/28
f 25/29/29 26/30/30 14/31/31 13/32/32
f 26/33/33 27/34/34 15/35/35 14/36/36
f 27/37/37 28/38/38 16/39/39 15/40/40
f 28/41/41 29/42/42 17/43/43 16/44/44
f 29/45/45 30/46/46 18/47/47 17/48/48
f 30/49/49 31/50/50 19/51/51 18/52/52
f 31/53/53 20/54/54 8/55/55 19/56/56
f 8/57/57 9/58/58 7/59/59
f 9/61/61 10/62/62 7/63/63
f 10/65/65 11/66/66 7/67/67
f 11/69/69 12/70/70 7/71/71
f 12/73/73 13/74/74 7/75/75
f 13/77/77 14/78/78 7/79/79
f 14/81/81 15/82/82 7/83/83
f 15/85/85 16/86/86 7/87/87
f 16/89/89 17/90/90 7/91/91
f 17/93/93 18/94/94 7/95/95
f 18/97/97 19/98/98 7/99/99
f 19/101/101 8/102/102 7/103/103
f 21/105/105 20/106/106 32/107/107
f 22/109/109 21/110/110 32/111/111
f 23/113/113 22/114/114 32/115/115
f 24/117/117 23/118/118 32/119/119
f 25/121/121 24/122/122 32/123/123
f 26/125/125 25/126/126 32/127/127
f 27/129/129 26/130/130 32/131/131
f 28/133/133 27/134/134 32/135/135
f 29/137/137 28/138/138 32/139/139
f 30/141/141 29/142/142 32/143/143
f 31/145/145 30/146/146 32/147/147
f 20/149/149 31/150/150 32/151/151
f 36/153/153 38/154/154 37/155/155 35/156/156
f 38/157/157 33/158/158 34/159/159 37/160/160
f 5/161/161 6/162/162 34/163/163 33/164/164
f 1/165/165 3/166/166 36/167/167 35/168/168
f 5/169/169 33/170/170 38/171/171 36/172/172
f 3/173/173 4/174/174 5/175/175 36/176/176
f 35/177/177 37/178/178 34/179/179 6/180/180
f 2/181/181 1/182/182 35/183/183 6/184/184
# 46 elements

