# Created by 3DAce v2.72


g
v 0.063933 0.050616 0.027097
v 0.063424 0.030692 0.024493
v 0.055433 0.050616 0.041819
v 0.052924 0.030692 0.042680
v 0.068374 0.049308 0.049291
v 0.065864 0.029384 0.050151
v 0.076874 0.049308 0.034568
v 0.076364 0.029384 0.031965
v 0.059163 0.003815 0.048592
v 0.045783 0.006622 0.040867
v 0.058283 0.006622 0.019216
v 0.071663 0.003815 0.026941
v 0.054553 0.001798 0.022836
v 0.047053 0.001798 0.035826
v 0.060581 -0.001039 0.043637
v 0.068081 -0.001039 0.030646
# 16 vertices

vt 0.000000 0.000000
vt 1.000000 0.000000
vt 1.000000 1.000000
vt 0.000000 1.000000
vt 0.000000 0.000000
vt 1.000000 0.000000
vt 1.000000 1.000000
vt 0.000000 1.000000
vt 0.000000 0.000000
vt 1.000000 0.000000
vt 1.000000 1.000000
vt 0.000000 1.000000
vt 0.000000 0.000000
vt 1.000000 0.000000
vt 1.000000 1.000000
vt 0.000000 1.000000
vt 0.000000 0.000000
vt 1.000000 0.000000
vt 1.000000 1.000000
vt 0.000000 1.000000
vt 0.800000 0.000000
vt 1.000000 0.159572
vt 0.000000 0.166947
vt 0.800000 1.000000
vt 0.200000 1.000000
vt 1.000000 0.166947
vt 0.000000 0.159572
vt 0.200000 0.000000
vt 0.000000 0.166947
vt 1.000000 0.159572
vt 1.000000 1.000000
vt 0.000000 1.000000
vt 0.000000 0.159572
vt 1.000000 0.166947
vt 1.000000 1.000000
vt 0.000000 1.000000
vt 0.200000 0.000000
vt 0.800000 0.000000
vt 0.800000 1.000000
vt 0.200000 1.000000
vt 0.000000 0.000000
vt 0.800000 0.000000
vt 0.200000 0.000000
vt 1.000000 0.000000
vt 1.000000 0.000000
vt 0.200000 0.000000
vt 0.000000 0.159572
vt 1.000000 0.000000
vt 0.000000 0.000000
vt 1.000000 0.159572
vt 0.800000 0.000000
vt 0.000000 0.000000
vt 1.000000 0.000000
vt 0.800000 1.000000
vt 0.000000 0.166947
vt 1.000000 0.000000
vt 0.000000 0.000000
vt 1.000000 0.166947
vt 0.200000 1.000000
vt 0.000000 0.000000
vt 0.000000 0.000000
vt 0.200000 1.000000
vt 0.800000 1.000000
vt 1.000000 0.000000
# 64 texture vertices

vn -0.845122 0.218386 -0.487931
vn -0.845122 0.218386 -0.487931
vn -0.862730 0.087156 -0.498098
vn -0.862730 0.087156 -0.498098
vn -0.489732 0.088291 0.867391
vn -0.489732 0.088291 0.867391
vn -0.490008 0.099125 0.866064
vn -0.490008 0.099125 0.866064
vn 0.849252 -0.195861 0.490316
vn 0.849252 -0.195861 0.490316
vn 0.862730 -0.087156 0.498098
vn 0.862730 -0.087156 0.498098
vn 0.506236 0.088380 -0.857854
vn 0.506236 0.088380 -0.857854
vn 0.505029 0.099125 -0.857391
vn 0.505029 0.099125 -0.857391
vn 0.075479 0.996195 0.043578
vn 0.075479 0.996195 0.043578
vn 0.075479 0.996195 0.043578
vn 0.075479 0.996195 0.043578
vn -0.334327 -0.909007 0.248861
vn -0.524314 -0.340377 0.780537
vn -0.524314 -0.340377 0.780537
vn -0.334327 -0.909007 0.248861
vn 0.048356 -0.909007 -0.413966
vn 0.413734 -0.340291 -0.844409
vn 0.413734 -0.340291 -0.844409
vn 0.048356 -0.909007 -0.413966
vn -0.524314 -0.340377 0.780537
vn -0.524314 -0.340377 0.780537
vn -0.489732 0.088291 0.867391
vn -0.489732 0.088291 0.867391
vn 0.413734 -0.340291 -0.844409
vn 0.413734 -0.340291 -0.844409
vn 0.506236 0.088380 -0.857854
vn 0.506236 0.088380 -0.857854
vn 0.048356 -0.909007 -0.413966
vn -0.334327 -0.909007 0.248861
vn -0.334327 -0.909007 0.248861
vn 0.048356 -0.909007 -0.413966
vn 0.849252 -0.195861 0.490316
vn 0.838675 -0.249329 0.484209
vn 0.838676 -0.249329 0.484209
vn 0.849252 -0.195861 0.490316
vn 0.849252 -0.195861 0.490316
vn 0.838676 -0.249329 0.484209
vn 0.838676 -0.249329 0.484208
vn 0.849252 -0.195861 0.490316
vn 0.849252 -0.195861 0.490316
vn 0.838675 -0.249329 0.484209
vn 0.838675 -0.249329 0.484209
vn 0.849252 -0.195861 0.490316
vn -0.845122 0.218386 -0.487931
vn -0.830735 0.282559 -0.479625
vn -0.830735 0.282559 -0.479625
vn -0.845122 0.218386 -0.487931
vn -0.845122 0.218386 -0.487931
vn -0.830735 0.282559 -0.479625
vn -0.830735 0.282559 -0.479625
vn -0.845122 0.218386 -0.487931
vn -0.845122 0.218386 -0.487931
vn -0.830735 0.282559 -0.479625
vn -0.830735 0.282559 -0.479625
vn -0.845122 0.218386 -0.487931
# 64 vertex normals

g mat1
f 2/1/1 4/2/2 3/3/3 1/4/4
f 4/5/5 6/6/6 5/7/7 3/8/8
f 6/9/9 8/10/10 7/11/11 5/12/12
f 8/13/13 2/14/14 1/15/15 7/16/16
f 1/17/17 3/18/18 5/19/19 7/20/20
f 15/21/21 9/22/22 10/23/23 14/24/24
f 13/25/25 11/26/26 12/27/27 16/28/28
f 10/29/29 9/30/30 6/31/31 4/32/32
f 12/33/33 11/34/34 2/35/35 8/36/36
f 16/37/37 15/38/38 14/39/39 13/40/40
f 6/41/41 15/42/42 16/43/43 8/44/44
f 8/45/45 16/46/46 12/47/47
f 6/49/49 9/50/50 15/51/51
f 4/53/53 14/54/54 10/55/55
f 2/57/57 11/58/58 13/59/59
f 2/61/61 13/62/62 14/63/63 4/64/64
# 16 elements

