# Created by 3DAce v2.72


g
v -0.005000 0.080000 -0.050000
v 0.005000 0.080000 -0.050000
v 0.005000 0.080000 -0.060000
v -0.005000 0.080000 -0.060000
v 0.005000 0.170000 -0.050000
v -0.005000 0.170000 -0.050000
v -0.005000 0.170000 -0.060000
v 0.005000 0.170000 -0.060000
v -0.005000 0.165000 -0.045000
v 0.005000 0.165000 -0.045000
v 0.005000 0.085000 -0.045000
v -0.005000 0.085000 -0.045000
v -0.005000 0.085000 -0.065000
v 0.005000 0.085000 -0.065000
v 0.005000 0.165000 -0.065000
v -0.005000 0.165000 -0.065000
# 16 vertices

vt 1.000000 0.944444
vt 0.000000 0.750000
vt 1.000000 0.750000
vt 0.000000 0.944444
vt 0.000000 0.055556
vt 0.000000 0.750000
vt 1.000000 0.750000
vt 1.000000 0.055556
vt 1.000000 0.944444
vt 1.000000 0.250000
vt 0.000000 0.250000
vt 0.000000 0.944444
vt 0.000000 0.055556
vt 1.000000 0.250000
vt 0.000000 0.250000
vt 1.000000 0.055556
vt 0.000000 0.250000
vt 1.000000 0.250000
vt 1.000000 0.750000
vt 0.000000 0.750000
vt 0.000000 0.250000
vt 1.000000 0.250000
vt 1.000000 0.750000
vt 0.000000 0.750000
vt 0.000000 0.055556
vt 1.000000 0.055556
vt 1.000000 0.944444
vt 0.000000 0.944444
vt 0.000000 0.055556
vt 1.000000 0.055556
vt 1.000000 0.944444
vt 0.000000 0.944444
vt 1.000000 0.250000
vt 1.000000 0.944444
vt 1.000000 0.055556
vt 0.000000 0.250000
vt 0.000000 0.750000
vt 1.000000 0.944444
vt 1.000000 0.055556
vt 1.000000 0.750000
vt 1.000000 0.750000
vt 1.000000 0.250000
vt 0.000000 0.250000
vt 0.000000 0.750000
vt 0.000000 0.750000
vt 0.000000 0.055556
vt 0.000000 0.944444
vt 1.000000 0.750000
vt 1.000000 0.750000
vt 1.000000 0.250000
vt 0.000000 0.250000
vt 0.000000 0.750000
vt 1.000000 0.250000
vt 0.000000 0.055556
vt 0.000000 0.944444
vt 0.000000 0.250000
# 56 texture vertices

vn 0.000000 0.382683 0.923880
vn 0.000000 0.923879 0.382684
vn 0.000000 0.923879 0.382684
vn 0.000000 0.382683 0.923880
vn 0.000000 -0.382683 0.923880
vn 0.000000 -0.923879 0.382684
vn 0.000000 -0.923879 0.382684
vn 0.000000 -0.382683 0.923880
vn 0.000000 -0.382683 -0.923880
vn 0.000000 -0.923879 -0.382684
vn 0.000000 -0.923879 -0.382684
vn 0.000000 -0.382683 -0.923880
vn 0.000000 0.382683 -0.923880
vn 0.000000 0.923879 -0.382684
vn 0.000000 0.923879 -0.382684
vn 0.000000 0.382683 -0.923880
vn 0.000000 -0.923879 -0.382684
vn 0.000000 -0.923879 -0.382684
vn 0.000000 -0.923879 0.382684
vn 0.000000 -0.923879 0.382684
vn 0.000000 0.923879 -0.382684
vn 0.000000 0.923879 -0.382684
vn 0.000000 0.923879 0.382684
vn 0.000000 0.923879 0.382684
vn 0.000000 -0.382683 0.923880
vn 0.000000 -0.382683 0.923880
vn 0.000000 0.382683 0.923880
vn 0.000000 0.382683 0.923880
vn 0.000000 0.382683 -0.923880
vn 0.000000 0.382683 -0.923880
vn 0.000000 -0.382683 -0.923880
vn 0.000000 -0.382683 -0.923880
vn 1.000000 0.000000 0.000000
vn 1.000000 0.000000 0.000000
vn 1.000000 0.000000 0.000000
vn 1.000000 0.000000 0.000000
vn 1.000000 0.000000 0.000000
vn 1.000000 0.000000 0.000000
vn 1.000000 0.000000 0.000000
vn 1.000000 0.000000 0.000000
vn 1.000000 0.000000 0.000000
vn 1.000000 0.000000 0.000000
vn 1.000000 0.000000 0.000000
vn 1.000000 0.000000 0.000000
vn -1.000000 0.000000 0.000000
vn -1.000000 0.000000 0.000000
vn -1.000000 0.000000 0.000000
vn -1.000000 0.000000 0.000000
vn -1.000000 0.000000 0.000000
vn -1.000000 0.000000 0.000000
vn -1.000000 0.000000 0.000000
vn -1.000000 0.000000 0.000000
vn -1.000000 0.000000 0.000000
vn -1.000000 0.000000 0.000000
vn -1.000000 0.000000 0.000000
vn -1.000000 0.000000 0.000000
# 56 vertex normals

g mat1
f 10/1/1 5/2/2 6/3/3 9/4/4
f 12/5/5 1/6/6 2/7/7 11/8/8
f 14/9/9 3/10/10 4/11/11 13/12/12
f 16/13/13 7/14/14 8/15/15 15/16/16
f 4/17/17 3/18/18 2/19/19 1/20/20
f 8/21/21 7/22/22 6/23/23 5/24/24
f 12/25/25 11/26/26 10/27/27 9/28/28
f 16/29/29 15/30/30 14/31/31 13/32/32
f 3/33/33 14/34/34 15/35/35 8/36/36
f 5/37/37 10/38/38 11/39/39 2/40/40
f 2/41/41 3/42/42 8/43/43 5/44/44
f 1/45/45 12/46/46 9/47/47 6/48/48
f 6/49/49 7/50/50 4/51/51 1/52/52
f 7/53/53 16/54/54 13/55/55 4/56/56
# 14 elements

