# Created by 3DAce v2.72


g
v -0.125000 0.355000 -0.435000
v 0.125000 0.355000 -0.435000
v 0.125000 0.355000 -0.545000
v -0.115000 0.355000 -0.555000
v 0.115000 0.355000 -0.555000
v -0.125000 0.355000 -0.545000
v 0.115000 0.719058 -0.555000
v 0.125000 0.762734 -0.435000
v 0.125000 0.722698 -0.545000
v -0.125000 0.722698 -0.545000
v -0.115000 0.719058 -0.555000
v -0.125000 0.762734 -0.435000
# 12 vertices

vt 0.924316 0.401522
vt 0.923722 0.395558
vt 0.924009 0.395601
vt 0.924598 0.401505
vt 0.924316 0.401522
vt 0.922266 0.403004
vt 0.921610 0.396391
vt 0.923722 0.395558
vt 0.926204 0.398321
vt 0.926108 0.398514
vt 0.926704 0.404475
vt 0.926795 0.404223
vt 0.922266 0.403004
vt 0.924655 0.405956
vt 0.923997 0.399346
vt 0.921610 0.396391
vt 0.924655 0.405956
vt 0.926704 0.404475
vt 0.926108 0.398514
vt 0.923997 0.399346
vt 0.926795 0.404223
vt 0.924598 0.401505
vt 0.924009 0.395601
vt 0.926204 0.398321
vt 0.923997 0.399346
vt 0.926108 0.398514
vt 0.926204 0.398321
vt 0.923997 0.399346
vt 0.924009 0.395601
vt 0.923722 0.395558
vt 0.921610 0.396391
vt 0.924009 0.395601
vt 0.924009 0.395601
vt 0.921610 0.396391
vt 0.923997 0.399346
vt 0.926204 0.398321
# 36 texture vertices

vn 0.923880 -0.000000 -0.382683
vn 0.923880 -0.000000 -0.382683
vn 0.382684 0.000000 -0.923879
vn 0.382684 0.000000 -0.923879
vn 0.923880 -0.000000 -0.382683
vn 1.000000 -0.000000 -0.000001
vn 1.000000 -0.000000 -0.000001
vn 0.923880 -0.000000 -0.382683
vn -0.382683 0.000000 -0.923880
vn -0.923879 0.000000 -0.382684
vn -0.923879 0.000000 -0.382684
vn -0.382683 0.000000 -0.923880
vn -0.000000 -0.000000 1.000000
vn -0.000000 -0.000000 1.000000
vn -0.000000 -0.000000 1.000000
vn -0.000000 -0.000000 1.000000
vn -1.000000 -0.000000 -0.000000
vn -0.923879 0.000000 -0.382684
vn -0.923879 0.000000 -0.382684
vn -1.000000 -0.000000 -0.000000
vn -0.382683 0.000000 -0.923880
vn 0.382684 0.000000 -0.923879
vn 0.382684 0.000000 -0.923879
vn -0.382683 0.000000 -0.923880
vn 0.000000 -1.000000 0.000000
vn 0.000000 -1.000000 0.000000
vn 0.000000 -1.000000 0.000000
vn 0.000000 -1.000000 0.000000
vn 0.000000 -1.000000 0.000000
vn 0.000000 -1.000000 -0.000000
vn 0.000000 -1.000000 0.000000
vn 0.000000 -1.000000 0.000000
vn 0.000000 -1.000000 0.000000
vn 0.000000 -1.000000 0.000000
vn 0.000000 -1.000000 0.000000
vn 0.000000 -1.000000 0.000000
# 36 vertex normals

g mat1
f 9/1/1 3/2/2 5/3/3 7/4/4
f 9/5/5 8/6/6 2/7/7 3/8/8
f 4/9/9 6/10/10 10/11/11 11/12/12
f 8/13/13 12/14/14 1/15/15 2/16/16
f 12/17/17 10/18/18 6/19/19 1/20/20
f 11/21/21 7/22/22 5/23/23 4/24/24
f 1/25/25 6/26/26 4/27/27
f 5/29/29 3/30/30 2/31/31
f 5/33/33 2/34/34 1/35/35 4/36/36
# 9 elements

