# Created by 3DAce v2.72


g
v -0.139048 0.010500 0.136192
v -0.139048 -0.010500 0.136192
v -0.144883 0.010500 0.169284
v -0.144883 -0.010500 0.169284
v -0.122502 0.010500 0.163287
v -0.122502 -0.010500 0.163287
v -0.119344 -0.010500 0.145379
v -0.119344 0.010500 0.145380
v -0.041653 0.010500 0.292309
v -0.041653 -0.010500 0.292309
v -0.025566 -0.010500 0.278811
v -0.025566 0.010500 0.278811
v -0.038919 0.010500 0.049532
v -0.038919 -0.010500 0.049532
v -0.055005 -0.010500 0.036033
v -0.055005 0.010500 0.036033
# 16 vertices

vt 0.000000 1.000000
vt 0.000000 1.000000
vt 0.000000 1.000000
vt 0.000000 1.000000
vt 0.000000 1.000000
vt 0.000000 1.000000
vt 0.000000 1.000000
vt 0.000000 1.000000
vt 0.000000 1.000000
vt 0.000000 1.000000
vt 0.000000 1.000000
vt 0.000000 1.000000
vt 0.000000 1.000000
vt 0.000000 1.000000
vt 0.000000 1.000000
vt 0.000000 1.000000
vt 0.000000 1.000000
vt 0.000000 1.000000
vt 0.000000 1.000000
vt 0.000000 1.000000
vt 0.000000 1.000000
vt 0.000000 1.000000
vt 0.000000 1.000000
vt 0.000000 1.000000
vt 0.000000 1.000000
vt 0.000000 1.000000
vt 0.000000 1.000000
vt 0.000000 1.000000
vt 0.000000 1.000000
vt 0.000000 1.000000
vt 0.000000 1.000000
vt 0.000000 1.000000
vt 0.000000 1.000000
vt 0.000000 1.000000
vt 0.000000 1.000000
vt 0.000000 1.000000
vt 0.000000 1.000000
vt 0.000000 1.000000
vt 0.000000 1.000000
vt 0.000000 1.000000
vt 0.000000 1.000000
vt 0.000000 1.000000
vt 0.000000 1.000000
vt 0.000000 1.000000
vt 0.000000 1.000000
vt 0.000000 1.000000
vt 0.000000 1.000000
vt 0.000000 1.000000
vt 0.000000 1.000000
vt 0.000000 1.000000
vt 0.000000 1.000000
vt 0.000000 1.000000
vt 0.000000 1.000000
vt 0.000000 1.000000
vt 0.000000 1.000000
vt 0.000000 1.000000
# 56 texture vertices

vn 0.965926 0.000001 -0.258819
vn 0.965926 0.000001 -0.258819
vn 0.906308 0.000001 0.422618
vn 0.906308 0.000001 0.422618
vn -0.906308 0.000002 -0.422617
vn -0.906308 0.000002 -0.422617
vn -0.965926 0.000002 0.258818
vn -0.965926 0.000002 0.258818
vn 0.642781 0.000000 0.766050
vn 0.642781 0.000000 0.766050
vn 0.642781 0.000000 0.766050
vn 0.642781 0.000000 0.766050
vn 0.642801 0.000000 -0.766033
vn 0.642801 0.000000 -0.766033
vn 0.642801 0.000000 -0.766033
vn 0.642801 0.000000 -0.766033
vn -0.965926 0.000002 0.258818
vn -0.965926 0.000002 0.258818
vn -0.766046 -0.000002 0.642786
vn -0.766046 -0.000002 0.642786
vn 0.906308 0.000001 0.422618
vn 0.906308 0.000001 0.422618
vn 0.766044 -0.000001 0.642788
vn 0.766044 -0.000001 0.642788
vn -0.766045 -0.000001 -0.642786
vn -0.766045 -0.000001 -0.642786
vn -0.906308 0.000002 -0.422617
vn -0.906308 0.000002 -0.422617
vn 0.965926 0.000001 -0.258819
vn 0.965926 0.000001 -0.258819
vn 0.766046 -0.000002 -0.642786
vn 0.766046 -0.000002 -0.642786
vn -0.000001 1.000000 -0.000000
vn -0.000001 1.000000 -0.000000
vn -0.000001 1.000000 -0.000000
vn -0.000001 1.000000 -0.000000
vn -0.000001 1.000000 -0.000000
vn -0.000001 1.000000 -0.000000
vn -0.000001 1.000000 -0.000000
vn -0.000001 1.000000 -0.000000
vn -0.000001 1.000000 0.000000
vn -0.000001 1.000000 0.000000
vn -0.000001 1.000000 -0.000000
vn -0.000001 1.000000 -0.000000
vn -0.000002 -1.000000 -0.000001
vn -0.000002 -1.000000 -0.000001
vn -0.000001 -1.000000 -0.000001
vn -0.000001 -1.000000 -0.000001
vn -0.000001 -1.000000 -0.000001
vn -0.000001 -1.000000 -0.000001
vn -0.000000 -1.000000 0.000000
vn -0.000000 -1.000000 0.000000
vn -0.000002 -1.000000 -0.000001
vn -0.000002 -1.000000 -0.000001
vn -0.000001 -1.000000 0.000001
vn -0.000001 -1.000000 0.000001
# 56 vertex normals

g mat1
f 5/1/1 6/2/2 7/3/3 8/4/4
f 1/5/5 2/6/6 4/7/7 3/8/8
f 9/9/9 10/10/10 11/11/11 12/12/12
f 13/13/13 14/14/14 15/15/15 16/16/16
f 3/17/17 4/18/18 10/19/19 9/20/20
f 8/21/21 7/22/22 14/23/23 13/24/24
f 16/25/25 15/26/26 2/27/27 1/28/28
f 6/29/29 5/30/30 12/31/31 11/32/32
f 1/33/33 3/34/34 5/35/35 8/36/36
f 1/37/37 8/38/38 13/39/39 16/40/40
f 9/41/41 12/42/42 5/43/43 3/44/44
f 6/45/45 4/46/46 2/47/47 7/48/48
f 7/49/49 2/50/50 15/51/51 14/52/52
f 4/53/53 6/54/54 11/55/55 10/56/56
# 14 elements

