# Created by 3DAce v2.72


g
v 0.008500 0.006500 0.017000
v 0.013753 0.006500 0.016168
v 0.018492 0.006500 0.013753
v 0.022253 0.006500 0.009992
v 0.024668 0.006500 0.005253
v 0.025500 0.006500 0.000000
v -0.008500 0.006500 0.000000
v -0.007668 0.006500 0.005253
v -0.005253 0.006500 0.009992
v -0.001492 0.006500 0.013753
v 0.003247 0.006500 0.016168
v 0.008500 -0.008500 0.017000
v 0.013753 -0.008500 0.016168
v 0.018492 -0.008500 0.013753
v 0.022253 -0.008500 0.009992
v 0.024668 -0.008500 0.005253
v 0.025500 -0.008500 0.000000
v -0.008500 -0.008500 0.000000
v -0.007668 -0.008500 0.005253
v -0.005253 -0.008500 0.009992
v -0.001492 -0.008500 0.013753
v 0.003247 -0.008500 0.016168
v 0.008500 -0.008500 0.000000
v 0.008500 0.006500 0.016000
v 0.013444 0.006500 0.015217
v 0.017905 0.006500 0.012944
v 0.021444 0.006500 0.009405
v 0.023717 0.006500 0.004944
v 0.024500 0.006500 0.000000
v -0.007500 0.006500 0.000000
v -0.006717 0.006500 0.004944
v -0.004444 0.006500 0.009405
v -0.000905 0.006500 0.012944
v 0.003556 0.006500 0.015217
v 0.008500 -0.005500 0.016000
v 0.013444 -0.005500 0.015217
v 0.017905 -0.005500 0.012944
v 0.021444 -0.005500 0.009405
v 0.023717 -0.005500 0.004944
v 0.024500 -0.005500 0.000000
v -0.007500 -0.005500 0.000000
v -0.006717 -0.005500 0.004944
v -0.004444 -0.005500 0.009405
v -0.000905 -0.005500 0.012944
v 0.003556 -0.005500 0.015217
v 0.008500 -0.005500 0.000000
v 0.008500 0.006500 0.000000
v 0.008500 0.006500 0.001000
v 0.008809 0.006500 0.000951
v 0.009088 0.006500 0.000809
v 0.009309 0.006500 0.000588
v 0.009451 0.006500 0.000309
v 0.009500 0.006500 0.000000
v 0.007500 0.006500 0.000000
v 0.007549 0.006500 0.000309
v 0.007691 0.006500 0.000588
v 0.007912 0.006500 0.000809
v 0.008191 0.006500 0.000951
v 0.008500 -0.005500 0.001000
v 0.008809 -0.005500 0.000951
v 0.009088 -0.005500 0.000809
v 0.009309 -0.005500 0.000588
v 0.009451 -0.005500 0.000309
v 0.009500 -0.005500 0.000000
v 0.007500 -0.005500 0.000000
v 0.007549 -0.005500 0.000309
v 0.007691 -0.005500 0.000588
v 0.007912 -0.005500 0.000809
v 0.008191 -0.005500 0.000951
v 0.008500 -0.005500 0.000000
# 70 vertices

vt 0.000000 0.000000
vt 0.050000 0.000000
vt 0.050000 1.000000
vt 0.000000 1.000000
vt 0.050000 0.000000
vt 0.100000 0.000000
vt 0.100000 1.000000
vt 0.050000 1.000000
vt 0.100000 0.000000
vt 0.150000 0.000000
vt 0.150000 1.000000
vt 0.100000 1.000000
vt 0.150000 0.000000
vt 0.200000 0.000000
vt 0.200000 1.000000
vt 0.150000 1.000000
vt 0.200000 0.000000
vt 0.250000 0.000000
vt 0.250000 1.000000
vt 0.200000 1.000000
vt 0.750000 0.000000
vt 0.800000 0.000000
vt 0.800000 1.000000
vt 0.750000 1.000000
vt 0.800000 0.000000
vt 0.850000 0.000000
vt 0.850000 1.000000
vt 0.800000 1.000000
vt 0.850000 0.000000
vt 0.900000 0.000000
vt 0.900000 1.000000
vt 0.850000 1.000000
vt 0.900000 0.000000
vt 0.950000 0.000000
vt 0.950000 1.000000
vt 0.900000 1.000000
vt 0.950000 0.000000
vt 1.000000 0.000000
vt 1.000000 1.000000
vt 0.950000 1.000000
vt 0.050000 0.000000
vt 0.000000 0.000000
vt 0.025000 0.000000
vt 0.050000 0.000000
vt 0.100000 0.000000
vt 0.050000 0.000000
vt 0.075000 0.000000
vt 0.100000 0.000000
vt 0.150000 0.000000
vt 0.100000 0.000000
vt 0.125000 0.000000
vt 0.150000 0.000000
vt 0.200000 0.000000
vt 0.150000 0.000000
vt 0.175000 0.000000
vt 0.200000 0.000000
vt 0.250000 0.000000
vt 0.200000 0.000000
vt 0.225000 0.000000
vt 0.250000 0.000000
vt 0.800000 0.000000
vt 0.750000 0.000000
vt 0.775000 0.000000
vt 0.800000 0.000000
vt 0.850000 0.000000
vt 0.800000 0.000000
vt 0.825000 0.000000
vt 0.850000 0.000000
vt 0.900000 0.000000
vt 0.850000 0.000000
vt 0.875000 0.000000
vt 0.900000 0.000000
vt 0.950000 0.000000
vt 0.900000 0.000000
vt 0.925000 0.000000
vt 0.950000 0.000000
vt 1.000000 0.000000
vt 0.950000 0.000000
vt 0.975000 0.000000
vt 1.000000 0.000000
vt 0.000000 1.000000
vt 0.050000 1.000000
vt 0.050000 0.000000
vt 0.000000 0.000000
vt 0.050000 1.000000
vt 0.100000 1.000000
vt 0.100000 0.000000
vt 0.050000 0.000000
vt 0.100000 1.000000
vt 0.150000 1.000000
vt 0.150000 0.000000
vt 0.100000 0.000000
vt 0.150000 1.000000
vt 0.200000 1.000000
vt 0.200000 0.000000
vt 0.150000 0.000000
vt 0.200000 1.000000
vt 0.250000 1.000000
vt 0.250000 0.000000
vt 0.200000 0.000000
vt 0.750000 1.000000
vt 0.800000 1.000000
vt 0.800000 0.000000
vt 0.750000 0.000000
vt 0.800000 1.000000
vt 0.850000 1.000000
vt 0.850000 0.000000
vt 0.800000 0.000000
vt 0.850000 1.000000
vt 0.900000 1.000000
vt 0.900000 0.000000
vt 0.850000 0.000000
vt 0.900000 1.000000
vt 0.950000 1.000000
vt 0.950000 0.000000
vt 0.900000 0.000000
vt 0.950000 1.000000
vt 1.000000 1.000000
vt 1.000000 0.000000
vt 0.950000 0.000000
vt 0.025000 0.000000
vt 0.000000 0.000000
vt 0.050000 0.000000
vt 0.025000 0.000000
vt 0.075000 0.000000
vt 0.050000 0.000000
vt 0.100000 0.000000
vt 0.075000 0.000000
vt 0.125000 0.000000
vt 0.100000 0.000000
vt 0.150000 0.000000
vt 0.125000 0.000000
vt 0.175000 0.000000
vt 0.150000 0.000000
vt 0.200000 0.000000
vt 0.175000 0.000000
vt 0.225000 0.000000
vt 0.200000 0.000000
vt 0.250000 0.000000
vt 0.225000 0.000000
vt 0.775000 0.000000
vt 0.750000 0.000000
vt 0.800000 0.000000
vt 0.775000 0.000000
vt 0.825000 0.000000
vt 0.800000 0.000000
vt 0.850000 0.000000
vt 0.825000 0.000000
vt 0.875000 0.000000
vt 0.850000 0.000000
vt 0.900000 0.000000
vt 0.875000 0.000000
vt 0.925000 0.000000
vt 0.900000 0.000000
vt 0.950000 0.000000
vt 0.925000 0.000000
vt 0.975000 0.000000
vt 0.950000 0.000000
vt 1.000000 0.000000
vt 0.975000 0.000000
vt 0.750000 0.000000
vt 0.750000 0.000000
vt 0.750000 1.000000
vt 0.750000 1.000000
vt 0.025000 0.000000
vt 0.025000 0.000000
vt 0.750000 0.000000
vt 0.750000 0.000000
vt 0.250000 0.000000
vt 0.250000 0.000000
vt 0.025000 0.000000
vt 0.025000 0.000000
vt 0.250000 1.000000
vt 0.250000 1.000000
vt 0.250000 0.000000
vt 0.250000 0.000000
vt 0.250000 1.000000
vt 0.250000 1.000000
vt 0.200000 1.000000
vt 0.200000 1.000000
vt 0.150000 1.000000
vt 0.150000 1.000000
vt 0.200000 1.000000
vt 0.200000 1.000000
vt 0.100000 1.000000
vt 0.100000 1.000000
vt 0.150000 1.000000
vt 0.150000 1.000000
vt 0.050000 1.000000
vt 0.050000 1.000000
vt 0.100000 1.000000
vt 0.100000 1.000000
vt 0.000000 1.000000
vt 0.000000 1.000000
vt 0.050000 1.000000
vt 0.050000 1.000000
vt 0.950000 1.000000
vt 0.950000 1.000000
vt 0.000000 1.000000
vt 0.000000 1.000000
vt 0.950000 1.000000
vt 0.900000 1.000000
vt 0.900000 1.000000
vt 0.950000 1.000000
vt 0.850000 1.000000
vt 0.850000 1.000000
vt 0.900000 1.000000
vt 0.900000 1.000000
vt 0.750000 1.000000
vt 0.750000 1.000000
vt 0.800000 1.000000
vt 0.800000 1.000000
vt 0.800000 1.000000
vt 0.800000 1.000000
vt 0.850000 1.000000
vt 0.850000 1.000000
vt 0.000000 0.000000
vt 0.050000 0.000000
vt 0.050000 1.000000
vt 0.000000 1.000000
vt 0.050000 0.000000
vt 0.100000 0.000000
vt 0.100000 1.000000
vt 0.050000 1.000000
vt 0.100000 0.000000
vt 0.150000 0.000000
vt 0.150000 1.000000
vt 0.100000 1.000000
vt 0.150000 0.000000
vt 0.200000 0.000000
vt 0.200000 1.000000
vt 0.150000 1.000000
vt 0.200000 0.000000
vt 0.250000 0.000000
vt 0.250000 1.000000
vt 0.200000 1.000000
vt 0.750000 0.000000
vt 0.800000 0.000000
vt 0.800000 1.000000
vt 0.750000 1.000000
vt 0.800000 0.000000
vt 0.850000 0.000000
vt 0.850000 1.000000
vt 0.800000 1.000000
vt 0.850000 0.000000
vt 0.900000 0.000000
vt 0.900000 1.000000
vt 0.850000 1.000000
vt 0.900000 0.000000
vt 0.950000 0.000000
vt 0.950000 1.000000
vt 0.900000 1.000000
vt 0.950000 0.000000
vt 1.000000 0.000000
vt 1.000000 1.000000
vt 0.950000 1.000000
vt 0.000000 1.000000
vt 0.050000 1.000000
vt 0.025000 1.000000
vt 0.000000 1.000000
vt 0.050000 1.000000
vt 0.100000 1.000000
vt 0.075000 1.000000
vt 0.050000 1.000000
vt 0.100000 1.000000
vt 0.150000 1.000000
vt 0.125000 1.000000
vt 0.100000 1.000000
vt 0.150000 1.000000
vt 0.200000 1.000000
vt 0.175000 1.000000
vt 0.150000 1.000000
vt 0.200000 1.000000
vt 0.250000 1.000000
vt 0.225000 1.000000
vt 0.200000 1.000000
vt 0.750000 1.000000
vt 0.800000 1.000000
vt 0.775000 1.000000
vt 0.750000 1.000000
vt 0.800000 1.000000
vt 0.850000 1.000000
vt 0.825000 1.000000
vt 0.800000 1.000000
vt 0.850000 1.000000
vt 0.900000 1.000000
vt 0.875000 1.000000
vt 0.850000 1.000000
vt 0.900000 1.000000
vt 0.950000 1.000000
vt 0.925000 1.000000
vt 0.900000 1.000000
vt 0.950000 1.000000
vt 1.000000 1.000000
vt 0.975000 1.000000
vt 0.950000 1.000000
vt 0.000000 1.000000
vt 0.750000 0.000000
vt 0.750000 1.000000
vt 0.025000 1.000000
vt 0.025000 1.000000
vt 0.250000 1.000000
vt 0.250000 0.000000
vt 0.000000 1.000000
# 304 texture vertices

vn 0.000000 0.000000 1.000000
vn 0.309017 0.000000 0.951056
vn 0.309017 0.000000 0.951056
vn 0.000000 0.000000 1.000000
vn 0.309017 0.000000 0.951056
vn 0.587785 0.000000 0.809017
vn 0.587785 0.000000 0.809017
vn 0.309017 0.000000 0.951056
vn 0.587785 0.000000 0.809017
vn 0.809017 0.000000 0.587785
vn 0.809017 0.000000 0.587785
vn 0.587785 0.000000 0.809017
vn 0.809017 0.000000 0.587785
vn 0.951056 0.000000 0.309017
vn 0.951056 0.000000 0.309017
vn 0.809017 0.000000 0.587785
vn 0.951056 0.000000 0.309017
vn 0.987688 0.000000 0.156435
vn 0.987688 0.000000 0.156435
vn 0.951056 0.000000 0.309017
vn -0.987688 0.000000 0.156434
vn -0.951056 0.000000 0.309017
vn -0.951056 0.000000 0.309017
vn -0.987688 0.000000 0.156434
vn -0.951056 0.000000 0.309017
vn -0.809017 0.000000 0.587785
vn -0.809017 0.000000 0.587785
vn -0.951056 0.000000 0.309017
vn -0.809017 0.000000 0.587785
vn -0.587785 0.000000 0.809017
vn -0.587785 0.000000 0.809017
vn -0.809017 0.000000 0.587785
vn -0.587785 0.000000 0.809017
vn -0.309017 0.000000 0.951056
vn -0.309017 0.000000 0.951056
vn -0.587785 0.000000 0.809017
vn -0.309017 0.000000 0.951056
vn 0.000000 0.000000 1.000000
vn 0.000000 0.000000 1.000000
vn -0.309017 0.000000 0.951056
vn 0.000000 -1.000000 0.000000
vn 0.000000 -1.000000 0.000000
vn 0.000000 -1.000000 0.000000
vn 0.000000 -1.000000 0.000000
vn 0.000000 -1.000000 0.000000
vn 0.000000 -1.000000 0.000000
vn 0.000000 -1.000000 0.000000
vn 0.000000 -1.000000 0.000000
vn 0.000000 -1.000000 0.000000
vn 0.000000 -1.000000 0.000000
vn 0.000000 -1.000000 0.000000
vn 0.000000 -1.000000 0.000000
vn 0.000000 -1.000000 0.000000
vn 0.000000 -1.000000 0.000000
vn 0.000000 -1.000000 0.000000
vn 0.000000 -1.000000 0.000000
vn 0.000000 -1.000000 0.000000
vn 0.000000 -1.000000 0.000000
vn 0.000000 -1.000000 0.000000
vn 0.000000 -1.000000 0.000000
vn 0.000000 -1.000000 0.000000
vn 0.000000 -1.000000 0.000000
vn 0.000000 -1.000000 0.000000
vn 0.000000 -1.000000 0.000000
vn 0.000000 -1.000000 0.000000
vn 0.000000 -1.000000 0.000000
vn 0.000000 -1.000000 0.000000
vn 0.000000 -1.000000 0.000000
vn 0.000000 -1.000000 0.000000
vn 0.000000 -1.000000 0.000000
vn 0.000000 -1.000000 0.000000
vn 0.000000 -1.000000 0.000000
vn 0.000000 -1.000000 0.000000
vn 0.000000 -1.000000 0.000000
vn 0.000000 -1.000000 0.000000
vn 0.000000 -1.000000 0.000000
vn 0.000000 -1.000000 0.000000
vn 0.000000 -1.000000 0.000000
vn 0.000000 -1.000000 0.000000
vn 0.000000 -1.000000 0.000000
vn -0.000000 0.000000 -1.000000
vn -0.309017 0.000000 -0.951056
vn -0.309017 0.000000 -0.951056
vn -0.000000 0.000000 -1.000000
vn -0.309017 0.000000 -0.951056
vn -0.587785 0.000000 -0.809017
vn -0.587785 0.000000 -0.809017
vn -0.309017 0.000000 -0.951056
vn -0.587785 0.000000 -0.809017
vn -0.809017 0.000000 -0.587785
vn -0.809017 0.000000 -0.587785
vn -0.587785 0.000000 -0.809017
vn -0.809017 0.000000 -0.587785
vn -0.951056 0.000000 -0.309017
vn -0.951056 0.000000 -0.309017
vn -0.809017 0.000000 -0.587785
vn -0.951056 0.000000 -0.309017
vn -0.987688 0.000000 -0.156434
vn -0.987688 0.000000 -0.156434
vn -0.951056 0.000000 -0.309017
vn 0.987688 0.000000 -0.156434
vn 0.951056 0.000000 -0.309017
vn 0.951056 0.000000 -0.309017
vn 0.987688 0.000000 -0.156434
vn 0.951056 0.000000 -0.309017
vn 0.809017 0.000000 -0.587785
vn 0.809017 0.000000 -0.587785
vn 0.951056 0.000000 -0.309017
vn 0.809017 0.000000 -0.587785
vn 0.587785 0.000000 -0.809017
vn 0.587785 0.000000 -0.809017
vn 0.809017 0.000000 -0.587785
vn 0.587785 0.000000 -0.809017
vn 0.309017 0.000000 -0.951056
vn 0.309017 0.000000 -0.951056
vn 0.587785 0.000000 -0.809017
vn 0.309017 0.000000 -0.951056
vn -0.000000 0.000000 -1.000000
vn -0.000000 0.000000 -1.000000
vn 0.309017 0.000000 -0.951056
vn 0.000000 1.000000 0.000000
vn 0.000000 1.000000 0.000000
vn 0.000000 1.000000 0.000000
vn 0.000000 1.000000 0.000000
vn 0.000000 1.000000 0.000000
vn 0.000000 1.000000 0.000000
vn 0.000000 1.000000 0.000000
vn 0.000000 1.000000 0.000000
vn 0.000000 1.000000 0.000000
vn 0.000000 1.000000 0.000000
vn 0.000000 1.000000 0.000000
vn 0.000000 1.000000 0.000000
vn 0.000000 1.000000 0.000000
vn 0.000000 1.000000 0.000000
vn 0.000000 1.000000 0.000000
vn 0.000000 1.000000 0.000000
vn 0.000000 1.000000 0.000000
vn 0.000000 1.000000 0.000000
vn 0.000000 1.000000 0.000000
vn 0.000000 1.000000 0.000000
vn 0.000000 1.000000 0.000000
vn -0.000000 1.000000 0.000000
vn 0.000000 1.000000 0.000000
vn 0.000000 1.000000 0.000000
vn 0.000000 1.000000 0.000000
vn 0.000000 1.000000 0.000000
vn 0.000000 1.000000 0.000000
vn 0.000000 1.000000 0.000000
vn 0.000000 1.000000 0.000000
vn 0.000000 1.000000 0.000000
vn 0.000000 1.000000 0.000000
vn 0.000000 1.000000 0.000000
vn 0.000000 1.000000 0.000000
vn 0.000000 1.000000 0.000000
vn 0.000000 1.000000 0.000000
vn 0.000000 1.000000 0.000000
vn 0.000000 1.000000 0.000000
vn 0.000000 1.000000 0.000000
vn 0.000000 1.000000 0.000000
vn 0.000000 1.000000 0.000000
vn 0.000000 0.000000 -1.000000
vn 0.000000 0.000000 -1.000000
vn -0.000000 0.000000 -1.000000
vn -0.000000 0.000000 -1.000000
vn 0.000000 0.000000 -1.000000
vn 0.000000 0.000000 -1.000000
vn 0.000000 0.000000 -1.000000
vn 0.000000 0.000000 -1.000000
vn 0.000000 0.000000 -1.000000
vn 0.000000 0.000000 -1.000000
vn 0.000000 0.000000 -1.000000
vn 0.000000 0.000000 -1.000000
vn 0.000000 0.000000 -1.000000
vn 0.000000 0.000000 -1.000000
vn 0.000000 0.000000 -1.000000
vn 0.000000 0.000000 -1.000000
vn 0.000000 1.000000 0.000000
vn 0.000000 1.000000 0.000000
vn 0.000000 1.000000 0.000000
vn 0.000000 1.000000 0.000000
vn 0.000000 1.000000 -0.000000
vn 0.000000 1.000000 -0.000000
vn 0.000000 1.000000 0.000000
vn 0.000000 1.000000 0.000000
vn 0.000000 1.000000 -0.000000
vn 0.000000 1.000000 -0.000000
vn 0.000000 1.000000 -0.000000
vn 0.000000 1.000000 -0.000000
vn 0.000000 1.000000 -0.000000
vn 0.000000 1.000000 -0.000000
vn 0.000000 1.000000 -0.000000
vn 0.000000 1.000000 -0.000000
vn 0.000000 1.000000 -0.000000
vn 0.000000 1.000000 -0.000000
vn 0.000000 1.000000 -0.000000
vn 0.000000 1.000000 -0.000000
vn 0.000000 1.000000 0.000000
vn 0.000000 1.000000 0.000000
vn 0.000000 1.000000 -0.000000
vn 0.000000 1.000000 -0.000000
vn 0.000000 1.000000 0.000000
vn 0.000000 1.000000 0.000000
vn 0.000000 1.000000 0.000000
vn 0.000000 1.000000 0.000000
vn 0.000000 1.000000 0.000000
vn 0.000000 1.000000 0.000000
vn 0.000000 1.000000 0.000000
vn 0.000000 1.000000 0.000000
vn 0.000000 1.000000 0.000000
vn 0.000000 1.000000 0.000000
vn 0.000000 1.000000 0.000000
vn 0.000000 1.000000 0.000000
vn 0.000000 1.000000 0.000000
vn 0.000000 1.000000 0.000000
vn 0.000000 1.000000 0.000000
vn 0.000000 1.000000 0.000000
vn 0.000000 0.000000 1.000000
vn 0.309017 0.000000 0.951056
vn 0.309017 0.000000 0.951056
vn 0.000000 0.000000 1.000000
vn 0.309017 0.000000 0.951056
vn 0.587785 0.000000 0.809017
vn 0.587785 0.000000 0.809017
vn 0.309017 0.000000 0.951056
vn 0.587785 0.000000 0.809017
vn 0.809017 0.000000 0.587786
vn 0.809017 0.000000 0.587786
vn 0.587785 0.000000 0.809017
vn 0.809017 0.000000 0.587786
vn 0.951056 0.000000 0.309018
vn 0.951056 0.000000 0.309018
vn 0.809017 0.000000 0.587786
vn 0.951056 0.000000 0.309018
vn 0.987688 0.000000 0.156435
vn 0.987688 0.000000 0.156435
vn 0.951056 0.000000 0.309018
vn -0.987688 0.000000 0.156435
vn -0.951056 0.000000 0.309018
vn -0.951056 0.000000 0.309018
vn -0.987688 0.000000 0.156435
vn -0.951056 0.000000 0.309018
vn -0.809017 0.000000 0.587785
vn -0.809017 0.000000 0.587785
vn -0.951056 0.000000 0.309018
vn -0.809017 0.000000 0.587785
vn -0.587786 0.000000 0.809017
vn -0.587786 0.000000 0.809017
vn -0.809017 0.000000 0.587785
vn -0.587786 0.000000 0.809017
vn -0.309017 0.000000 0.951056
vn -0.309017 0.000000 0.951056
vn -0.587786 0.000000 0.809017
vn -0.309017 0.000000 0.951056
vn 0.000000 0.000000 1.000000
vn 0.000000 0.000000 1.000000
vn -0.309017 0.000000 0.951056
vn 0.000000 1.000000 -0.000000
vn 0.000000 1.000000 -0.000000
vn 0.000000 1.000000 0.000000
vn 0.000000 1.000000 -0.000000
vn 0.000000 1.000000 -0.000000
vn 0.000000 1.000000 -0.000000
vn 0.000000 1.000000 0.000000
vn 0.000000 1.000000 -0.000000
vn 0.000000 1.000000 -0.000000
vn 0.000000 1.000000 -0.000000
vn 0.000000 1.000000 0.000000
vn 0.000000 1.000000 -0.000000
vn 0.000000 1.000000 -0.000000
vn 0.000000 1.000000 -0.000000
vn 0.000000 1.000000 0.000000
vn 0.000000 1.000000 -0.000000
vn 0.000000 1.000000 -0.000000
vn 0.000000 1.000000 -0.000000
vn 0.000000 1.000000 0.000000
vn 0.000000 1.000000 -0.000000
vn 0.000000 1.000000 0.000000
vn 0.000000 1.000000 0.000000
vn 0.000000 1.000000 0.000000
vn 0.000000 1.000000 0.000000
vn 0.000000 1.000000 0.000000
vn 0.000000 1.000000 0.000000
vn 0.000000 1.000000 0.000000
vn 0.000000 1.000000 0.000000
vn 0.000000 1.000000 0.000000
vn 0.000000 1.000000 0.000000
vn 0.000000 1.000000 0.000000
vn 0.000000 1.000000 0.000000
vn 0.000000 1.000000 0.000000
vn 0.000000 1.000000 0.000000
vn 0.000000 1.000000 0.000000
vn 0.000000 1.000000 0.000000
vn 0.000000 1.000000 0.000000
vn 0.000000 1.000000 -0.000000
vn 0.000000 1.000000 0.000000
vn 0.000000 1.000000 0.000000
vn 0.000000 0.000000 -1.000000
vn -0.000000 0.000000 -1.000000
vn -0.000000 0.000000 -1.000000
vn 0.000000 0.000000 -1.000000
vn 0.000000 0.000000 -1.000000
vn 0.000000 0.000000 -1.000000
vn 0.000000 0.000000 -1.000000
vn 0.000000 0.000000 -1.000000
# 304 vertex normals

g mat1
f 12/1/1 13/2/2 2/3/3 1/4/4
f 13/5/5 14/6/6 3/7/7 2/8/8
f 14/9/9 15/10/10 4/11/11 3/12/12
f 15/13/13 16/14/14 5/15/15 4/16/16
f 16/17/17 17/18/18 6/19/19 5/20/20
f 18/21/21 19/22/22 8/23/23 7/24/24
f 19/25/25 20/26/26 9/27/27 8/28/28
f 20/29/29 21/30/30 10/31/31 9/32/32
f 21/33/33 22/34/34 11/35/35 10/36/36
f 22/37/37 12/38/38 1/39/39 11/40/40
f 13/41/41 12/42/42 23/43/43
f 14/45/45 13/46/46 23/47/47
f 15/49/49 14/50/50 23/51/51
f 16/53/53 15/54/54 23/55/55
f 17/57/57 16/58/58 23/59/59
f 19/61/61 18/62/62 23/63/63
f 20/65/65 19/66/66 23/67/67
f 21/69/69 20/70/70 23/71/71
f 22/73/73 21/74/74 23/75/75
f 12/77/77 22/78/78 23/79/79
f 24/81/81 25/82/82 36/83/83 35/84/84
f 25/85/85 26/86/86 37/87/87 36/88/88
f 26/89/89 27/90/90 38/91/91 37/92/92
f 27/93/93 28/94/94 39/95/95 38/96/96
f 28/97/97 29/98/98 40/99/99 39/100/100
f 30/101/101 31/102/102 42/103/103 41/104/104
f 31/105/105 32/106/106 43/107/107 42/108/108
f 32/109/109 33/110/110 44/111/111 43/112/112
f 33/113/113 34/114/114 45/115/115 44/116/116
f 34/117/117 24/118/118 35/119/119 45/120/120
f 46/121/121 35/122/122 36/123/123
f 46/125/125 36/126/126 37/127/127
f 46/129/129 37/130/130 38/131/131
f 46/133/133 38/134/134 39/135/135
f 46/137/137 39/138/138 40/139/139
f 46/141/141 41/142/142 42/143/143
f 46/145/145 42/146/146 43/147/147
f 46/149/149 43/150/150 44/151/151
f 46/153/153 44/154/154 45/155/155
f 46/157/157 45/158/158 35/159/159
f 41/161/161 18/162/162 7/163/163 30/164/164
f 46/165/165 23/166/166 18/167/167 41/168/168
f 40/169/169 17/170/170 23/171/171 46/172/172
f 29/173/173 6/174/174 17/175/175 40/176/176
f 6/177/177 29/178/178 28/179/179 5/180/180
f 27/181/181 4/182/182 5/183/183 28/184/184
f 26/185/185 3/186/186 4/187/187 27/188/188
f 25/189/189 2/190/190 3/191/191 26/192/192
f 24/193/193 1/194/194 2/195/195 25/196/196
f 34/197/197 11/198/198 1/199/199 24/200/200
f 34/201/201 33/202/202 10/203/203 11/204/204
f 32/205/205 9/206/206 10/207/207 33/208/208
f 30/209/209 7/210/210 8/211/211 31/212/212
f 31/213/213 8/214/214 9/215/215 32/216/216
f 59/217/217 60/218/218 49/219/219 48/220/220
f 60/221/221 61/222/222 50/223/223 49/224/224
f 61/225/225 62/226/226 51/227/227 50/228/228
f 62/229/229 63/230/230 52/231/231 51/232/232
f 63/233/233 64/234/234 53/235/235 52/236/236
f 65/237/237 66/238/238 55/239/239 54/240/240
f 66/241/241 67/242/242 56/243/243 55/244/244
f 67/245/245 68/246/246 57/247/247 56/248/248
f 68/249/249 69/250/250 58/251/251 57/252/252
f 69/253/253 59/254/254 48/255/255 58/256/256
f 48/257/257 49/258/258 47/259/259
f 49/261/261 50/262/262 47/263/263
f 50/265/265 51/266/266 47/267/267
f 51/269/269 52/270/270 47/271/271
f 52/273/273 53/274/274 47/275/275
f 54/277/277 55/278/278 47/279/279
f 55/281/281 56/282/282 47/283/283
f 56/285/285 57/286/286 47/287/287
f 57/289/289 58/290/290 47/291/291
f 58/293/293 48/294/294 47/295/295
f 70/297/297 65/298/298 54/299/299 47/300/300
f 47/301/301 53/302/302 64/303/303 70/304/304
# 76 elements

