# Created by 3DAce v2.72


g
v -0.025000 0.000000 0.000000
v 0.025000 0.000000 0.000000
v -0.025000 0.000000 0.030000
v 0.025000 0.000000 0.030000
# 4 vertices

vt 0.000000 0.000000
vt 1.000000 0.000000
vt 1.000000 1.000000
vt 0.000000 1.000000
vt 0.000000 1.000000
vt 1.000000 1.000000
vt 1.000000 0.000000
vt 0.000000 0.000000
# 8 texture vertices

vn 0.000000 1.000000 0.000000
vn 0.000000 1.000000 0.000000
vn 0.000000 1.000000 0.000000
vn 0.000000 1.000000 0.000000
vn 0.000000 -1.000000 0.000000
vn 0.000000 -1.000000 0.000000
vn 0.000000 -1.000000 0.000000
vn 0.000000 -1.000000 0.000000
# 8 vertex normals

g mat1
f 3/1/1 4/2/2 2/3/3 1/4/4
f 1/5/5 2/6/6 4/7/7 3/8/8
# 2 elements

