# Created by 3DAce v2.72


g
v -0.075000 0.075000 0.075000
v -0.075000 -0.075000 0.075000
v 0.075000 0.075000 0.075000
v 0.075000 -0.075000 0.075000
v 0.075000 0.075000 -0.075000
v 0.075000 -0.075000 -0.075000
v -0.075000 0.075000 -0.075000
v -0.075000 -0.075000 -0.075000
v 0.073500 0.075000 -0.073500
v -0.073500 0.075000 -0.073500
v -0.073500 0.075000 0.073500
v 0.073500 0.075000 0.073500
v 0.073500 -0.075000 -0.073500
v -0.073500 -0.075000 -0.073500
v -0.073500 -0.075000 0.073500
v 0.073500 -0.075000 0.073500
# 16 vertices

vt 0.447453 0.467270
vt 0.505411 0.437716
vt 0.505465 0.497004
vt 0.446932 0.526376
vt 0.505411 0.437716
vt 0.552453 0.473930
vt 0.552971 0.532994
vt 0.505465 0.497004
vt 0.552453 0.473930
vt 0.494684 0.502915
vt 0.494632 0.561795
vt 0.552971 0.532994
vt 0.494684 0.502915
vt 0.447453 0.467270
vt 0.446932 0.526376
vt 0.494632 0.561795
vt 0.551913 0.532928
vt 0.552971 0.532994
vt 0.494632 0.561795
vt 0.494738 0.561159
vt 0.446932 0.526376
vt 0.447994 0.526442
vt 0.494738 0.561159
vt 0.494632 0.561795
vt 0.505465 0.497004
vt 0.505355 0.497663
vt 0.447994 0.526442
vt 0.446932 0.526376
vt 0.552971 0.532994
vt 0.551913 0.532928
vt 0.505355 0.497663
vt 0.505465 0.497004
vt 0.494684 0.502915
vt 0.552453 0.473930
vt 0.551404 0.473863
vt 0.494789 0.502274
vt 0.494789 0.502274
vt 0.448505 0.467337
vt 0.447453 0.467270
vt 0.494684 0.502915
vt 0.448505 0.467337
vt 0.505302 0.438380
vt 0.505411 0.437716
vt 0.447453 0.467270
vt 0.505302 0.438380
vt 0.551404 0.473863
vt 0.552453 0.473930
vt 0.505411 0.437716
vt 0.505302 0.438380
vt 0.448505 0.467337
vt 0.447994 0.526442
vt 0.505355 0.497663
vt 0.505355 0.497663
vt 0.551913 0.532928
vt 0.551404 0.473863
vt 0.505302 0.438380
vt 0.494738 0.561159
vt 0.447994 0.526442
vt 0.448505 0.467337
vt 0.494789 0.502274
vt 0.010931 0.000950
vt 0.989069 0.000950
vt 0.989069 0.999050
vt 0.010931 0.999050
# 64 texture vertices

vn -0.000000 0.000000 1.000000
vn -0.000000 0.000000 1.000000
vn -0.000000 0.000000 1.000000
vn -0.000000 0.000000 1.000000
vn 1.000000 0.000000 0.000000
vn 1.000000 0.000000 0.000000
vn 1.000000 0.000000 0.000000
vn 1.000000 0.000000 0.000000
vn -0.000000 0.000000 -1.000000
vn -0.000000 0.000000 -1.000000
vn -0.000000 0.000000 -1.000000
vn -0.000000 0.000000 -1.000000
vn -1.000000 0.000000 0.000000
vn -1.000000 0.000000 0.000000
vn -1.000000 0.000000 0.000000
vn -1.000000 0.000000 0.000000
vn 0.000000 1.000000 0.000000
vn 0.000000 1.000000 0.000000
vn 0.000000 1.000000 0.000000
vn 0.000000 1.000000 0.000000
vn 0.000000 1.000000 0.000000
vn 0.000000 1.000000 0.000000
vn 0.000000 1.000000 0.000000
vn 0.000000 1.000000 0.000000
vn 0.000000 1.000000 0.000000
vn 0.000000 1.000000 0.000000
vn 0.000000 1.000000 0.000000
vn 0.000000 1.000000 0.000000
vn 0.000000 1.000000 0.000000
vn 0.000000 1.000000 0.000000
vn 0.000000 1.000000 0.000000
vn 0.000000 1.000000 0.000000
vn 0.000000 -1.000000 0.000000
vn 0.000000 -1.000000 0.000000
vn 0.000000 -1.000000 0.000000
vn 0.000000 -1.000000 0.000000
vn 0.000000 -1.000000 0.000000
vn 0.000000 -1.000000 0.000000
vn 0.000000 -1.000000 0.000000
vn 0.000000 -1.000000 0.000000
vn 0.000000 -1.000000 0.000000
vn 0.000000 -1.000000 0.000000
vn 0.000000 -1.000000 0.000000
vn 0.000000 -1.000000 0.000000
vn 0.000000 -1.000000 0.000000
vn 0.000000 -1.000000 0.000000
vn 0.000000 -1.000000 0.000000
vn 0.000000 -1.000000 0.000000
vn -0.000000 0.000000 -1.000000
vn -0.000000 0.000000 -1.000000
vn -0.000000 0.000000 -1.000000
vn -0.000000 0.000000 -1.000000
vn -1.000000 0.000000 0.000000
vn -1.000000 0.000000 0.000000
vn -1.000000 0.000000 0.000000
vn -1.000000 0.000000 0.000000
vn 1.000000 0.000000 0.000000
vn 1.000000 0.000000 0.000000
vn 1.000000 0.000000 0.000000
vn 1.000000 0.000000 0.000000
vn -0.000000 0.000000 1.000000
vn -0.000000 0.000000 1.000000
vn -0.000000 0.000000 1.000000
vn -0.000000 0.000000 1.000000
# 64 vertex normals

g mat1
f 2/1/1 4/2/2 3/3/3 1/4/4
f 4/5/5 6/6/6 5/7/7 3/8/8
f 6/9/9 8/10/10 7/11/11 5/12/12
f 8/13/13 2/14/14 1/15/15 7/16/16
f 9/17/17 5/18/18 7/19/19 10/20/20
f 1/21/21 11/22/22 10/23/23 7/24/24
f 3/25/25 12/26/26 11/27/27 1/28/28
f 5/29/29 9/30/30 12/31/31 3/32/32
f 8/33/33 6/34/34 13/35/35 14/36/36
f 14/37/37 15/38/38 2/39/39 8/40/40
f 15/41/41 16/42/42 4/43/43 2/44/44
f 16/45/45 13/46/46 6/47/47 4/48/48
f 16/49/49 15/50/50 11/51/51 12/52/52
f 12/53/53 9/54/54 13/55/55 16/56/56
f 10/57/57 11/58/58 15/59/59 14/60/60
f 14/61/61 13/62/62 9/63/63 10/64/64
# 16 elements

