# Created by 3DAce v2.72


g
v -0.175000 0.100000 0.045000
v -0.175000 -0.100000 0.045000
v 0.175000 0.100000 0.045000
v 0.175000 -0.100000 0.045000
v 0.175000 0.100000 -0.045000
v 0.175000 -0.100000 -0.045000
v -0.175000 0.100000 -0.045000
v -0.175000 -0.100000 -0.045000
# 8 vertices

vt -0.000137 0.624629
vt 0.655777 0.624629
vt 0.655777 0.999437
vt -0.000137 0.999437
vt 0.669990 0.624629
vt 0.838654 0.624629
vt 0.838654 0.999437
vt 0.669990 0.999437
vt -0.000137 0.439342
vt 0.655777 0.439342
vt 0.655777 0.608006
vt -0.000137 0.608006
vt 0.669990 0.375777
vt 0.669990 0.000970
vt 0.838654 0.000970
vt 0.838654 0.375777
vt -0.000137 0.375778
vt -0.000137 0.000970
vt 0.655777 0.000970
vt 0.655777 0.375778
vt -0.000137 0.439342
vt 0.655777 0.439342
vt 0.655777 0.608006
vt -0.000137 0.608006
# 24 texture vertices

vn -0.000000 0.000000 1.000000
vn -0.000000 0.000000 1.000000
vn -0.000000 0.000000 1.000000
vn -0.000000 0.000000 1.000000
vn 1.000000 0.000000 0.000000
vn 1.000000 0.000000 0.000000
vn 1.000000 0.000000 0.000000
vn 1.000000 0.000000 0.000000
vn 0.000000 1.000000 0.000000
vn 0.000000 1.000000 0.000000
vn 0.000000 1.000000 0.000000
vn 0.000000 1.000000 0.000000
vn -1.000000 -0.000000 0.000000
vn -1.000000 -0.000000 0.000000
vn -1.000000 -0.000000 0.000000
vn -1.000000 -0.000000 0.000000
vn 0.000000 0.000000 -1.000000
vn 0.000000 0.000000 -1.000000
vn 0.000000 0.000000 -1.000000
vn 0.000000 0.000000 -1.000000
vn 0.000000 -1.000000 0.000000
vn 0.000000 -1.000000 0.000000
vn 0.000000 -1.000000 0.000000
vn 0.000000 -1.000000 0.000000
# 24 vertex normals

g mat1
f 2/1/1 4/2/2 3/3/3 1/4/4
f 4/5/5 6/6/6 5/7/7 3/8/8
f 1/9/9 3/10/10 5/11/11 7/12/12
f 7/13/13 8/14/14 2/15/15 1/16/16
f 5/17/17 6/18/18 8/19/19 7/20/20
f 8/21/21 6/22/22 4/23/23 2/24/24
# 6 elements

