# Created by 3DAce v2.72


g
v -0.042930 0.007000 0.233951
v -0.042930 -0.007000 0.233951
v -0.025728 -0.007000 0.221906
v -0.025728 0.007000 0.221906
v -0.030522 0.007000 0.059649
v -0.030522 -0.007000 0.059649
v -0.018478 -0.007000 0.076851
v -0.018478 0.007000 0.076851
v -0.109272 -0.007000 0.139205
v -0.109272 0.007000 0.139205
v -0.104361 0.007000 0.111351
v -0.104361 -0.007000 0.111351
v -0.108210 0.007000 0.114878
v -0.108210 -0.007000 0.114878
v -0.111015 0.007000 0.119282
v -0.111015 -0.007000 0.119281
v -0.112585 0.007000 0.124261
v -0.112585 -0.007000 0.124261
v -0.112813 0.007000 0.129477
v -0.112813 -0.007000 0.129477
v -0.111683 0.007000 0.134574
v -0.111683 -0.007000 0.134574
v -0.085761 0.007000 0.136171
v -0.085761 -0.007000 0.136171
v -0.083305 -0.007000 0.122244
v -0.083305 0.007000 0.122244
v -0.086632 -0.007000 0.126209
v -0.086632 0.007000 0.126209
v -0.087531 -0.007000 0.131307
v -0.087531 0.007000 0.131307
# 30 vertices

vt 0.000000 1.000000
vt 0.000000 1.000000
vt 0.000000 1.000000
vt 0.000000 1.000000
vt 0.000000 1.000000
vt 0.000000 1.000000
vt 0.000000 1.000000
vt 0.000000 1.000000
vt 0.000000 1.000000
vt 0.000000 1.000000
vt 0.000000 1.000000
vt 0.000000 1.000000
vt 0.000000 1.000000
vt 0.000000 1.000000
vt 0.000000 1.000000
vt 0.000000 1.000000
vt 0.000000 1.000000
vt 0.000000 1.000000
vt 0.000000 1.000000
vt 0.000000 1.000000
vt 0.000000 1.000000
vt 0.000000 1.000000
vt 0.000000 1.000000
vt 0.000000 1.000000
vt 0.000000 1.000000
vt 0.000000 1.000000
vt 0.000000 1.000000
vt 0.000000 1.000000
vt 0.000000 1.000000
vt 0.000000 1.000000
vt 0.000000 1.000000
vt 0.000000 1.000000
vt 0.000000 1.000000
vt 0.000000 1.000000
vt 0.000000 1.000000
vt 0.000000 1.000000
vt 0.000000 1.000000
vt 0.000000 1.000000
vt 0.000000 1.000000
vt 0.000000 1.000000
vt 0.000000 1.000000
vt 0.000000 1.000000
vt 0.000000 1.000000
vt 0.000000 1.000000
vt 0.000000 1.000000
vt 0.000000 1.000000
vt 0.000000 1.000000
vt 0.000000 1.000000
vt 0.000000 1.000000
vt 0.000000 1.000000
vt 0.000000 1.000000
vt 0.000000 1.000000
vt 0.000000 1.000000
vt 0.000000 1.000000
vt 0.000000 1.000000
vt 0.000000 1.000000
vt 0.000000 1.000000
vt 0.000000 1.000000
vt 0.000000 1.000000
vt 0.000000 1.000000
vt 0.000000 1.000000
vt 0.000000 1.000000
vt 0.000000 1.000000
vt 0.000000 1.000000
vt 0.000000 1.000000
vt 0.000000 1.000000
vt 0.000000 1.000000
vt 0.000000 1.000000
vt 0.000000 1.000000
vt 0.000000 1.000000
vt 0.000000 1.000000
vt 0.000000 1.000000
vt 0.000000 1.000000
vt 0.000000 1.000000
vt 0.000000 1.000000
vt 0.000000 1.000000
vt 0.000000 1.000000
vt 0.000000 1.000000
vt 0.000000 1.000000
vt 0.000000 1.000000
vt 0.000000 1.000000
vt 0.000000 1.000000
vt 0.000000 1.000000
vt 0.000000 1.000000
vt 0.000000 1.000000
vt 0.000000 1.000000
vt 0.000000 1.000000
vt 0.000000 1.000000
vt 0.000000 1.000000
vt 0.000000 1.000000
vt 0.000000 1.000000
vt 0.000000 1.000000
vt 0.000000 1.000000
vt 0.000000 1.000000
vt 0.000000 1.000000
vt 0.000000 1.000000
vt 0.000000 1.000000
vt 0.000000 1.000000
vt 0.000000 1.000000
vt 0.000000 1.000000
vt 0.000000 1.000000
vt 0.000000 1.000000
vt 0.000000 1.000000
vt 0.000000 1.000000
vt 0.000000 1.000000
vt 0.000000 1.000000
vt 0.000000 1.000000
vt 0.000000 1.000000
vt 0.000000 1.000000
vt 0.000000 1.000000
vt 0.000000 1.000000
vt 0.000000 1.000000
vt 0.000000 1.000000
vt 0.000000 1.000000
vt 0.000000 1.000000
vt 0.000000 1.000000
# 116 texture vertices

vn 0.573570 0.000000 0.819157
vn 0.573570 0.000000 0.819157
vn 0.573570 0.000000 0.819157
vn 0.573570 0.000000 0.819157
vn 0.819162 0.000000 -0.573562
vn 0.819162 0.000000 -0.573562
vn 0.819162 0.000000 -0.573562
vn 0.819162 0.000000 -0.573562
vn -0.625924 0.000003 -0.779884
vn -0.766044 0.000004 -0.642788
vn -0.766044 0.000004 -0.642788
vn -0.625924 0.000003 -0.779884
vn -0.766044 0.000004 -0.642788
vn -0.906308 0.000003 -0.422618
vn -0.906308 0.000003 -0.422618
vn -0.766044 0.000004 -0.642788
vn -0.906308 0.000003 -0.422618
vn -0.984808 0.000002 -0.173648
vn -0.984808 0.000002 -0.173648
vn -0.906308 0.000003 -0.422618
vn -0.984808 0.000002 -0.173648
vn -0.996195 0.000001 0.087157
vn -0.996195 0.000001 0.087157
vn -0.984808 0.000002 -0.173648
vn -0.996195 0.000001 0.087157
vn -0.939691 0.000001 0.342026
vn -0.939691 0.000001 0.342026
vn -0.996195 0.000001 0.087157
vn -0.939691 0.000001 0.342026
vn -0.854909 0.000000 0.518777
vn -0.854909 0.000000 0.518777
vn -0.939691 0.000001 0.342026
vn -0.854909 0.000000 0.518777
vn -0.854909 0.000000 0.518777
vn -0.819151 -0.000000 0.573578
vn -0.819151 -0.000000 0.573578
vn -0.573577 0.000002 -0.819152
vn -0.573577 0.000002 -0.819152
vn -0.625924 0.000003 -0.779884
vn -0.625924 0.000003 -0.779884
vn 0.675588 0.000000 0.737280
vn 0.906306 0.000000 0.422622
vn 0.906306 0.000000 0.422622
vn 0.675588 0.000000 0.737280
vn 0.906306 0.000000 0.422622
vn 0.996195 -0.000000 -0.087155
vn 0.996195 -0.000000 -0.087155
vn 0.906306 0.000000 0.422622
vn 0.996195 -0.000000 -0.087155
vn 0.887011 -0.000001 -0.461749
vn 0.887011 -0.000001 -0.461749
vn 0.996195 -0.000000 -0.087155
vn 0.887011 -0.000001 -0.461749
vn 0.887011 -0.000001 -0.461749
vn 0.819152 -0.000001 -0.573577
vn 0.819152 -0.000001 -0.573577
vn 0.675588 0.000000 0.737280
vn 0.675588 0.000000 0.737280
vn 0.573575 0.000000 0.819153
vn 0.573575 0.000000 0.819153
vn -0.000000 1.000000 -0.000000
vn -0.000000 1.000000 -0.000000
vn -0.000000 1.000000 -0.000000
vn -0.000000 1.000000 -0.000000
vn -0.000000 1.000000 0.000000
vn -0.000000 1.000000 0.000000
vn -0.000000 1.000000 0.000000
vn -0.000000 1.000000 0.000000
vn -0.000000 1.000000 0.000000
vn -0.000000 1.000000 0.000000
vn -0.000000 1.000000 -0.000000
vn -0.000000 1.000000 0.000000
vn -0.000000 1.000000 -0.000000
vn -0.000000 1.000000 -0.000000
vn -0.000000 1.000000 -0.000000
vn -0.000000 1.000000 -0.000000
vn -0.000000 1.000000 0.000000
vn -0.000000 1.000000 0.000000
vn 0.000000 1.000000 -0.000000
vn -0.000000 1.000000 0.000000
vn -0.000000 1.000000 0.000000
vn -0.000000 1.000000 0.000000
vn 0.000000 1.000000 -0.000000
vn 0.000000 1.000000 -0.000000
vn -0.000000 1.000000 -0.000000
vn -0.000000 1.000000 -0.000000
vn -0.000000 1.000000 0.000000
vn -0.000000 1.000000 -0.000000
vn -0.000000 -1.000000 -0.000000
vn -0.000000 -1.000000 -0.000000
vn -0.000000 -1.000000 -0.000000
vn -0.000000 -1.000000 -0.000000
vn -0.000000 -1.000000 0.000000
vn -0.000000 -1.000000 0.000000
vn -0.000000 -1.000000 0.000000
vn -0.000000 -1.000000 0.000000
vn -0.000000 -1.000000 0.000000
vn -0.000000 -1.000000 -0.000000
vn -0.000000 -1.000000 -0.000000
vn -0.000000 -1.000000 0.000000
vn -0.000000 -1.000000 -0.000000
vn -0.000000 -1.000000 -0.000000
vn -0.000000 -1.000000 -0.000000
vn -0.000000 -1.000000 -0.000000
vn -0.000000 -1.000000 0.000000
vn -0.000000 -1.000000 0.000000
vn -0.000000 -1.000000 0.000000
vn -0.000000 -1.000000 0.000000
vn -0.000000 -1.000000 0.000000
vn -0.000000 -1.000000 -0.000000
vn -0.000000 -1.000000 0.000000
vn -0.000000 -1.000000 0.000000
vn -0.000000 -1.000000 -0.000000
vn -0.000000 -1.000000 -0.000000
vn -0.000000 -1.000000 -0.000000
vn -0.000000 -1.000000 -0.000000
# 116 vertex normals

g mat1
f 1/1/1 2/2/2 3/3/3 4/4/4
f 8/5/5 7/6/6 6/7/7 5/8/8
f 12/9/9 14/10/10 13/11/11 11/12/12
f 14/13/13 16/14/14 15/15/15 13/16/16
f 16/17/17 18/18/18 17/19/19 15/20/20
f 18/21/21 20/22/22 19/23/23 17/24/24
f 20/25/25 22/26/26 21/27/27 19/28/28
f 22/29/29 9/30/30 10/31/31 21/32/32
f 10/33/33 9/34/34 2/35/35 1/36/36
f 5/37/37 6/38/38 12/39/39 11/40/40
f 26/41/41 28/42/42 27/43/43 25/44/44
f 28/45/45 30/46/46 29/47/47 27/48/48
f 30/49/49 23/50/50 24/51/51 29/52/52
f 24/53/53 23/54/54 4/55/55 3/56/56
f 26/57/57 25/58/58 7/59/59 8/60/60
f 11/61/61 26/62/62 8/63/63 5/64/64
f 1/65/65 4/66/66 23/67/67 10/68/68
f 17/69/69 30/70/70 28/71/71
f 13/73/73 28/74/74 26/75/75 11/76/76
f 23/77/77 30/78/78 21/79/79 10/80/80
f 30/81/81 17/82/82 19/83/83 21/84/84
f 13/85/85 15/86/86 17/87/87 28/88/88
f 7/89/89 25/90/90 12/91/91 6/92/92
f 24/93/93 3/94/94 2/95/95 9/96/96
f 29/97/97 18/98/98 27/99/99
f 25/101/101 27/102/102 14/103/103 12/104/104
f 22/105/105 29/106/106 24/107/107 9/108/108
f 20/109/109 18/110/110 29/111/111 22/112/112
f 18/113/113 16/114/114 14/115/115 27/116/116
# 29 elements

