# Created by 3DAce v2.72


g
v 0.600000 0.662109 -0.452500
v -0.600000 0.662109 -0.452500
v -0.600000 0.725000 -0.552500
v 0.600000 0.725000 -0.552500
v 0.600000 0.725000 -0.452500
v -0.600000 0.725000 -0.452500
v -0.600000 0.678874 -0.547576
v 0.600000 0.678874 -0.547576
v -0.600000 0.684742 -0.552500
v 0.600000 0.684742 -0.552500
# 10 vertices

vt 0.223551 0.889589
vt 0.223555 0.889245
vt 0.218251 0.889993
vt 0.218247 0.890337
vt 0.223216 0.889501
vt 0.223551 0.889589
vt 0.218247 0.890337
vt 0.217911 0.890249
vt 0.217914 0.890028
vt 0.217931 0.890000
vt 0.223235 0.889252
vt 0.223218 0.889280
vt 0.217931 0.890000
vt 0.218251 0.889993
vt 0.223555 0.889245
vt 0.223235 0.889252
vt 0.217911 0.890249
vt 0.217914 0.890028
vt 0.223218 0.889280
vt 0.223216 0.889501
vt 0.218247 0.890337
vt 0.217931 0.890000
vt 0.217914 0.890028
vt 0.217911 0.890249
vt 0.223216 0.889501
vt 0.223218 0.889280
vt 0.223235 0.889252
vt 0.223551 0.889589
vt 0.223235 0.889252
vt 0.223555 0.889245
vt 0.223551 0.889589
vt 0.223235 0.889252
vt 0.218247 0.890337
vt 0.218251 0.889993
vt 0.217931 0.890000
vt 0.218247 0.890337
# 36 texture vertices

vn 0.000000 -0.000000 1.000000
vn 0.000000 -0.000000 1.000000
vn 0.000000 -0.000000 1.000000
vn 0.000000 -0.000000 1.000000
vn 0.000000 1.000000 -0.000000
vn 0.000000 1.000000 -0.000000
vn 0.000000 1.000000 -0.000000
vn 0.000000 1.000000 -0.000000
vn 0.000000 -0.342021 -0.939692
vn -0.000000 -0.866026 -0.499999
vn -0.000000 -0.866026 -0.499999
vn 0.000000 -0.342021 -0.939692
vn -0.000000 -0.866026 -0.499999
vn -0.000000 -0.984808 -0.173649
vn -0.000000 -0.984808 -0.173649
vn -0.000000 -0.866026 -0.499999
vn 0.000000 0.000001 -1.000000
vn 0.000000 -0.342021 -0.939692
vn 0.000000 -0.342021 -0.939692
vn 0.000000 0.000001 -1.000000
vn 1.000000 0.000001 0.000001
vn 1.000000 0.000001 0.000001
vn 1.000000 0.000001 0.000001
vn 1.000000 0.000001 0.000001
vn -1.000000 -0.000001 -0.000000
vn -1.000000 -0.000001 -0.000000
vn -1.000000 -0.000000 -0.000000
vn -1.000000 -0.000000 -0.000000
vn -1.000000 -0.000000 -0.000000
vn -1.000000 0.000000 -0.000001
vn -1.000000 -0.000000 -0.000000
vn -1.000000 -0.000000 -0.000000
vn 1.000000 0.000001 0.000001
vn 1.000000 0.000001 0.000000
vn 1.000000 0.000001 0.000001
vn 1.000000 0.000001 0.000001
# 36 vertex normals

g mat1
f 6/1/1 2/2/2 1/3/3 5/4/4
f 3/5/5 6/6/6 5/7/7 4/8/8
f 10/9/9 8/10/10 7/11/11 9/12/12
f 8/13/13 1/14/14 2/15/15 7/16/16
f 4/17/17 10/18/18 9/19/19 3/20/20
f 5/21/21 8/22/22 10/23/23 4/24/24
f 3/25/25 9/26/26 7/27/27 6/28/28
f 7/29/29 2/30/30 6/31/31
f 5/33/33 1/34/34 8/35/35
# 9 elements

